<svg viewBox="0 0 22 22" fill="none" xmlns="http://www.w3.org/2000/svg">
<mask id="mask0_901_1303" style="mask-type:alpha" maskUnits="userSpaceOnUse" x="0" y="0" width="22" height="22">
<rect width="22" height="22" fill="#D9D9D9"/>
</mask>
<g mask="url(#mask0_901_1303)">
<path d="M18.3334 7.33341V13.5556L20.1667 14.7384V5.50008C20.1667 4.99591 19.9874 4.56447 19.6287 4.20575C19.2693 3.84641 18.8376 3.66675 18.3334 3.66675H3.66673C3.47577 3.66675 3.29524 3.69252 3.12514 3.74408L5.84701 5.50008H18.3334L11.9912 9.46397L13.4362 10.3962L18.3334 7.33341Z" fill="currentColor"/>
<path fill-rule="evenodd" clip-rule="evenodd" d="M1.8334 6.51944V16.5001C1.8334 17.0042 2.01307 17.436 2.3724 17.7953C2.73112 18.1541 3.16257 18.3334 3.66673 18.3334H18.3334C18.7777 18.3334 19.1658 18.1941 19.4977 17.9155L20.72 18.7041C21.1029 18.9511 21.6135 18.841 21.8605 18.4581C22.1075 18.0752 21.9974 17.5646 21.6145 17.3176L1.44727 4.30675C1.0644 4.05974 0.553785 4.16988 0.306777 4.55275C0.0597687 4.93562 0.169907 5.44624 0.552778 5.69325L1.8334 6.51944ZM3.66673 7.70221L17.3037 16.5001H3.66673V7.70221Z" fill="currentColor"/>
</g>
</svg>