<svg viewBox="0 0 18 18" fill="none" xmlns="http://www.w3.org/2000/svg">
<mask id="mask0_898_911" style="mask-type:alpha" maskUnits="userSpaceOnUse" x="0" y="0" width="18" height="18">
<rect width="18" height="18" fill="#D9D9D9"/>
</mask>
<g mask="url(#mask0_898_911)">
<path d="M16.4999 14.3439L14.9999 12.8439V5.2502H11.9624L10.5937 3.7502H7.40615L6.69365 4.5377L5.6249 3.46895L6.2999 2.7377C6.4374 2.5877 6.60303 2.46895 6.79678 2.38145C6.99053 2.29395 7.19365 2.2502 7.40615 2.2502H10.5937C10.8062 2.2502 11.0093 2.29395 11.203 2.38145C11.3968 2.46895 11.5624 2.5877 11.6999 2.7377L12.6374 3.7502H14.9999C15.4124 3.7502 15.7655 3.89707 16.0593 4.19082C16.353 4.48457 16.4999 4.8377 16.4999 5.2502V14.3439ZM2.9999 15.7502C2.5874 15.7502 2.23428 15.6033 1.94053 15.3096C1.64678 15.0158 1.4999 14.6627 1.4999 14.2502V5.2502C1.4999 4.8377 1.64678 4.48457 1.94053 4.19082C2.23428 3.89707 2.5874 3.7502 2.9999 3.7502H3.76865L5.26865 5.2502H2.9999V14.2502H14.2687L15.7687 15.7502H2.9999ZM11.7374 11.7189C11.4249 12.1439 11.0343 12.4846 10.5655 12.7408C10.0968 12.9971 9.5749 13.1252 8.9999 13.1252C8.0624 13.1252 7.26553 12.7971 6.60928 12.1408C5.95303 11.4846 5.6249 10.6877 5.6249 9.7502C5.6249 9.1752 5.75303 8.65332 6.00928 8.18457C6.26553 7.71582 6.60615 7.3252 7.03115 7.0127L8.11865 8.1002C7.81865 8.2627 7.57803 8.4877 7.39678 8.7752C7.21553 9.0627 7.1249 9.3877 7.1249 9.7502C7.1249 10.2752 7.30615 10.7189 7.66865 11.0814C8.03115 11.4439 8.4749 11.6252 8.9999 11.6252C9.3624 11.6252 9.6874 11.5346 9.9749 11.3533C10.2624 11.1721 10.4874 10.9314 10.6499 10.6314L11.7374 11.7189ZM11.3999 7.3502C11.7124 7.6502 11.953 8.00645 12.1218 8.41895C12.2905 8.83145 12.3749 9.2752 12.3749 9.7502V9.9752C12.3749 10.0502 12.3687 10.1252 12.3562 10.2002L8.5499 6.39395C8.6249 6.38145 8.6999 6.3752 8.7749 6.3752H8.9999C9.4749 6.3752 9.91865 6.45957 10.3312 6.62832C10.7437 6.79707 11.0999 7.0377 11.3999 7.3502ZM14.8312 16.9314L1.03115 3.1502C0.881152 3.0002 0.806152 2.82207 0.806152 2.61582C0.806152 2.40957 0.881152 2.23145 1.03115 2.08145C1.18115 1.93145 1.35928 1.85645 1.56553 1.85645C1.77178 1.85645 1.9499 1.93145 2.0999 2.08145L15.8999 15.8814C16.0499 16.0314 16.1249 16.2064 16.1249 16.4064C16.1249 16.6064 16.0499 16.7814 15.8999 16.9314C15.7499 17.0814 15.5718 17.1564 15.3655 17.1564C15.1593 17.1564 14.9812 17.0814 14.8312 16.9314Z" fill="currentColor"/>
</g>
</svg>