<svg viewBox="0 0 18 18" fill="none" xmlns="http://www.w3.org/2000/svg">
<mask id="mask0_898_923" style="mask-type:alpha" maskUnits="userSpaceOnUse" x="0" y="0" width="18" height="18">
<rect width="18" height="18" fill="#D9D9D9"/>
</mask>
<g mask="url(#mask0_898_923)">
<path d="M9 13.125C9.9375 13.125 10.7344 12.7969 11.3906 12.1406C12.0469 11.4844 12.375 10.6875 12.375 9.75C12.375 8.8125 12.0469 8.01562 11.3906 7.35938C10.7344 6.70312 9.9375 6.375 9 6.375C8.0625 6.375 7.26562 6.70312 6.60938 7.35938C5.95312 8.01562 5.625 8.8125 5.625 9.75C5.625 10.6875 5.95312 11.4844 6.60938 12.1406C7.26562 12.7969 8.0625 13.125 9 13.125ZM9 11.625C8.475 11.625 8.03125 11.4438 7.66875 11.0813C7.30625 10.7188 7.125 10.275 7.125 9.75C7.125 9.225 7.30625 8.78125 7.66875 8.41875C8.03125 8.05625 8.475 7.875 9 7.875C9.525 7.875 9.96875 8.05625 10.3313 8.41875C10.6938 8.78125 10.875 9.225 10.875 9.75C10.875 10.275 10.6938 10.7188 10.3313 11.0813C9.96875 11.4438 9.525 11.625 9 11.625ZM3 15.75C2.5875 15.75 2.23438 15.6031 1.94063 15.3094C1.64688 15.0156 1.5 14.6625 1.5 14.25V5.25C1.5 4.8375 1.64688 4.48438 1.94063 4.19063C2.23438 3.89688 2.5875 3.75 3 3.75H5.3625L6.3 2.7375C6.4375 2.5875 6.60313 2.46875 6.79688 2.38125C6.99062 2.29375 7.19375 2.25 7.40625 2.25H10.5938C10.8062 2.25 11.0094 2.29375 11.2031 2.38125C11.3969 2.46875 11.5625 2.5875 11.7 2.7375L12.6375 3.75H15C15.4125 3.75 15.7656 3.89688 16.0594 4.19063C16.3531 4.48438 16.5 4.8375 16.5 5.25V14.25C16.5 14.6625 16.3531 15.0156 16.0594 15.3094C15.7656 15.6031 15.4125 15.75 15 15.75H3ZM3 14.25H15V5.25H11.9625L10.5938 3.75H7.40625L6.0375 5.25H3V14.25Z" fill="currentColor"/>
</g>
</svg>
