<svg viewBox="0 0 14 14" fill="none" xmlns="http://www.w3.org/2000/svg">
<mask id="mask0_62_364" style="mask-type:alpha" maskUnits="userSpaceOnUse" x="0" y="0" width="14" height="14">
<rect width="14" height="14" fill="#D9D9D9"/>
</mask>
<g mask="url(#mask0_62_364)">
<path d="M6.18334 8.04984L4.91459 6.78109C4.80764 6.67414 4.67406 6.6232 4.51384 6.62825C4.35323 6.63292 4.21945 6.68873 4.11251 6.79567C4.00556 6.90262 3.95209 7.03873 3.95209 7.204C3.95209 7.36928 4.00556 7.50539 4.11251 7.61234L5.77501 9.27484C5.88195 9.38178 6.01806 9.43525 6.18334 9.43525C6.34862 9.43525 6.48473 9.38178 6.59167 9.27484L9.90209 5.96442C10.009 5.85748 10.0602 5.7237 10.0555 5.56309C10.0505 5.40287 9.99445 5.26928 9.88751 5.16234C9.78056 5.05539 9.64445 5.00192 9.47917 5.00192C9.31389 5.00192 9.17778 5.05539 9.07084 5.16234L6.18334 8.04984ZM7.00001 12.8332C6.19306 12.8332 5.43473 12.6799 4.72501 12.3735C4.01528 12.0674 3.39792 11.6519 2.87292 11.1269C2.34792 10.6019 1.93239 9.98456 1.62634 9.27484C1.31989 8.56512 1.16667 7.80678 1.16667 6.99984C1.16667 6.19289 1.31989 5.43456 1.62634 4.72484C1.93239 4.01512 2.34792 3.39775 2.87292 2.87275C3.39792 2.34775 4.01528 1.93203 4.72501 1.62559C5.43473 1.31953 6.19306 1.1665 7.00001 1.1665C7.80695 1.1665 8.56528 1.31953 9.27501 1.62559C9.98473 1.93203 10.6021 2.34775 11.1271 2.87275C11.6521 3.39775 12.0676 4.01512 12.3737 4.72484C12.6801 5.43456 12.8333 6.19289 12.8333 6.99984C12.8333 7.80678 12.6801 8.56512 12.3737 9.27484C12.0676 9.98456 11.6521 10.6019 11.1271 11.1269C10.6021 11.6519 9.98473 12.0674 9.27501 12.3735C8.56528 12.6799 7.80695 12.8332 7.00001 12.8332ZM7.00001 11.6665C8.29306 11.6665 9.3942 11.2121 10.3034 10.3033C11.2123 9.39403 11.6667 8.29289 11.6667 6.99984C11.6667 5.70678 11.2123 4.60564 10.3034 3.69642C9.3942 2.78759 8.29306 2.33317 7.00001 2.33317C5.70695 2.33317 4.60601 2.78759 3.69717 3.69642C2.78795 4.60564 2.33334 5.70678 2.33334 6.99984C2.33334 8.29289 2.78795 9.39403 3.69717 10.3033C4.60601 11.2121 5.70695 11.6665 7.00001 11.6665Z" fill="white"/>
</g>
</svg>
