<svg viewBox="0 0 12 12" fill="none" xmlns="http://www.w3.org/2000/svg">
<mask id="mask0_62_401" style="mask-type:alpha" maskUnits="userSpaceOnUse" x="0" y="0" width="12" height="12">
<rect width="12" height="12" fill="#D9D9D9"/>
</mask>
<g mask="url(#mask0_62_401)">
<path d="M6 10.9999C5.30833 10.9999 4.65833 10.8686 4.05 10.6059C3.44167 10.3436 2.9125 9.9874 2.4625 9.5374C2.0125 9.0874 1.65633 8.55824 1.394 7.9499C1.13133 7.34157 1 6.69157 1 5.9999C1 4.70824 1.42917 3.5874 2.2875 2.6374C3.14583 1.6874 4.21667 1.1499 5.5 1.0249V2.5249C4.63333 2.64157 3.91667 3.02907 3.35 3.6874C2.78333 4.34574 2.5 5.11657 2.5 5.9999C2.5 6.9749 2.83967 7.8019 3.519 8.4809C4.198 9.16024 5.025 9.4999 6 9.4999C6.53333 9.4999 7.03967 9.3874 7.519 9.1624C7.998 8.9374 8.40833 8.61657 8.75 8.1999L10.05 8.9499C9.575 9.5999 8.98333 10.1041 8.275 10.4624C7.56667 10.8207 6.80833 10.9999 6 10.9999ZM10.575 8.0249L9.275 7.2749C9.35 7.06657 9.40633 6.85607 9.444 6.6434C9.48133 6.43107 9.5 6.21657 9.5 5.9999C9.5 5.11657 9.21667 4.34574 8.65 3.6874C8.08333 3.02907 7.36667 2.64157 6.5 2.5249V1.0249C7.78333 1.1499 8.85417 1.6874 9.7125 2.6374C10.5708 3.5874 11 4.70824 11 5.9999C11 6.3499 10.9687 6.69574 10.906 7.0374C10.8437 7.37907 10.7333 7.70824 10.575 8.0249Z" fill="white"/>
</g>
</svg>