<svg viewBox="0 0 12 12" fill="none" xmlns="http://www.w3.org/2000/svg">
<mask id="mask0_62_323" style="mask-type:alpha" maskUnits="userSpaceOnUse" x="0" y="0" width="12" height="12">
<rect width="12" height="12" fill="#D9D9D9"/>
</mask>
<g mask="url(#mask0_62_323)">
<path d="M3.49997 6.75C3.7083 6.75 3.8853 6.677 4.03097 6.531C4.17697 6.38533 4.24997 6.20833 4.24997 6C4.24997 5.79167 4.17697 5.61467 4.03097 5.469C3.8853 5.323 3.7083 5.25 3.49997 5.25C3.29164 5.25 3.11464 5.323 2.96897 5.469C2.82297 5.61467 2.74997 5.79167 2.74997 6C2.74997 6.20833 2.82297 6.38533 2.96897 6.531C3.11464 6.677 3.29164 6.75 3.49997 6.75ZM5.99997 6.75C6.2083 6.75 6.3853 6.677 6.53097 6.531C6.67697 6.38533 6.74997 6.20833 6.74997 6C6.74997 5.79167 6.67697 5.61467 6.53097 5.469C6.3853 5.323 6.2083 5.25 5.99997 5.25C5.79164 5.25 5.61464 5.323 5.46897 5.469C5.32297 5.61467 5.24997 5.79167 5.24997 6C5.24997 6.20833 5.32297 6.38533 5.46897 6.531C5.61464 6.677 5.79164 6.75 5.99997 6.75ZM8.49997 6.75C8.7083 6.75 8.8853 6.677 9.03097 6.531C9.17697 6.38533 9.24997 6.20833 9.24997 6C9.24997 5.79167 9.17697 5.61467 9.03097 5.469C8.8853 5.323 8.7083 5.25 8.49997 5.25C8.29164 5.25 8.11464 5.323 7.96897 5.469C7.82297 5.61467 7.74997 5.79167 7.74997 6C7.74997 6.20833 7.82297 6.38533 7.96897 6.531C8.11464 6.677 8.29164 6.75 8.49997 6.75ZM5.99997 11C5.3083 11 4.6583 10.8687 4.04997 10.606C3.44164 10.3437 2.91247 9.9875 2.46247 9.5375C2.01247 9.0875 1.6563 8.55833 1.39397 7.95C1.1313 7.34167 0.999969 6.69167 0.999969 6C0.999969 5.30833 1.1313 4.65833 1.39397 4.05C1.6563 3.44167 2.01247 2.9125 2.46247 2.4625C2.91247 2.0125 3.44164 1.65617 4.04997 1.3935C4.6583 1.13117 5.3083 1 5.99997 1C6.69164 1 7.34164 1.13117 7.94997 1.3935C8.5583 1.65617 9.08747 2.0125 9.53747 2.4625C9.98747 2.9125 10.3436 3.44167 10.606 4.05C10.8686 4.65833 11 5.30833 11 6C11 6.69167 10.8686 7.34167 10.606 7.95C10.3436 8.55833 9.98747 9.0875 9.53747 9.5375C9.08747 9.9875 8.5583 10.3437 7.94997 10.606C7.34164 10.8687 6.69164 11 5.99997 11ZM5.99997 10C7.11664 10 8.06247 9.6125 8.83747 8.8375C9.61247 8.0625 9.99997 7.11667 9.99997 6C9.99997 4.88333 9.61247 3.9375 8.83747 3.1625C8.06247 2.3875 7.11664 2 5.99997 2C4.8833 2 3.93747 2.3875 3.16247 3.1625C2.38747 3.9375 1.99997 4.88333 1.99997 6C1.99997 7.11667 2.38747 8.0625 3.16247 8.8375C3.93747 9.6125 4.8833 10 5.99997 10Z" fill="white"/>
</g>
</svg>