<svg viewBox="0 0 37 36" fill="none" xmlns="http://www.w3.org/2000/svg">
<mask id="mask0_52_480" style="mask-type:alpha" maskUnits="userSpaceOnUse" x="0" y="0" width="37" height="36">
<rect x="0.5" width="36" height="36" fill="#D9D9D9"/>
</mask>
<g mask="url(#mask0_52_480)">
<path d="M8 31.5C7.175 31.5 6.4685 31.2065 5.8805 30.6195C5.2935 30.0315 5 29.325 5 28.5V7.5C5 6.675 5.2935 5.9685 5.8805 5.3805C6.4685 4.7935 7.175 4.5 8 4.5H21.5V7.5H8V28.5H29V15H32V28.5C32 29.325 31.7065 30.0315 31.1195 30.6195C30.5315 31.2065 29.825 31.5 29 31.5H8ZM26 13.5V10.5H23V7.5H26V4.5H29V7.5H32V10.5H29V13.5H26ZM9.5 25.5H27.5L21.875 18L17.375 24L14 19.5L9.5 25.5Z" fill="currentColor"/>
</g>
</svg>