<svg viewBox="0 0 24 25" fill="none" xmlns="http://www.w3.org/2000/svg">
<mask id="mask0_80_662" style="mask-type:alpha" maskUnits="userSpaceOnUse" x="0" y="0" width="24" height="25">
<rect y="0.5" width="24" height="24" fill="#D9D9D9"/>
</mask>
<g mask="url(#mask0_80_662)">
<path d="M13.3 17.775C13.1 17.575 13.004 17.3333 13.012 17.05C13.0207 16.7667 13.125 16.525 13.325 16.325L16.15 13.5H5C4.71667 13.5 4.479 13.404 4.287 13.212C4.09567 13.0207 4 12.7833 4 12.5C4 12.2167 4.09567 11.979 4.287 11.787C4.479 11.5957 4.71667 11.5 5 11.5H16.15L13.3 8.64999C13.1 8.44999 13 8.21232 13 7.93699C13 7.66232 13.1 7.42499 13.3 7.22499C13.5 7.02499 13.7377 6.92499 14.013 6.92499C14.2877 6.92499 14.525 7.02499 14.725 7.22499L19.3 11.8C19.4 11.9 19.471 12.0083 19.513 12.125C19.5543 12.2417 19.575 12.3667 19.575 12.5C19.575 12.6333 19.5543 12.7583 19.513 12.875C19.471 12.9917 19.4 13.1 19.3 13.2L14.7 17.8C14.5167 17.9833 14.2877 18.075 14.013 18.075C13.7377 18.075 13.5 17.975 13.3 17.775Z"/>
</g>
</svg>