<svg viewBox="0 0 25 25" fill="none" xmlns="http://www.w3.org/2000/svg">
<mask id="mask0_870_844" style="mask-type:alpha" maskUnits="userSpaceOnUse" x="0" y="0" width="25" height="25">
<rect x="0.823364" y="0.0361328" width="24" height="24" fill="#D9D9D9"/>
</mask>
<g mask="url(#mask0_870_844)">
<path d="M6.64835 17.0362L8.54835 18.9362C8.74835 19.1362 8.84419 19.3696 8.83585 19.6362C8.82752 19.9029 8.72335 20.1362 8.52335 20.3362C8.32335 20.5196 8.09002 20.6154 7.82335 20.6237C7.55669 20.6321 7.32335 20.5362 7.12335 20.3362L3.52335 16.7362C3.42335 16.6362 3.35252 16.5279 3.31085 16.4112C3.26919 16.2946 3.24835 16.1696 3.24835 16.0362C3.24835 15.9029 3.26919 15.7779 3.31085 15.6612C3.35252 15.5446 3.42335 15.4362 3.52335 15.3362L7.12335 11.7362C7.30669 11.5529 7.53585 11.4612 7.81085 11.4612C8.08585 11.4612 8.32335 11.5529 8.52335 11.7362C8.72335 11.9362 8.82335 12.1737 8.82335 12.4487C8.82335 12.7237 8.72335 12.9612 8.52335 13.1612L6.64835 15.0362H20.8234C21.1067 15.0362 21.3442 15.1321 21.5359 15.3237C21.7275 15.5154 21.8234 15.7529 21.8234 16.0362C21.8234 16.3196 21.7275 16.5571 21.5359 16.7487C21.3442 16.9404 21.1067 17.0362 20.8234 17.0362H6.64835ZM18.9984 9.03624H4.82335C4.54002 9.03624 4.30252 8.94041 4.11085 8.74874C3.91919 8.55708 3.82335 8.31958 3.82335 8.03624C3.82335 7.75291 3.91919 7.51541 4.11085 7.32374C4.30252 7.13208 4.54002 7.03624 4.82335 7.03624H18.9984L17.0984 5.13624C16.8984 4.93624 16.8025 4.70291 16.8109 4.43624C16.8192 4.16958 16.9234 3.93624 17.1234 3.73624C17.3234 3.55291 17.5567 3.45708 17.8234 3.44874C18.09 3.44041 18.3234 3.53624 18.5234 3.73624L22.1234 7.33624C22.2234 7.43624 22.2942 7.54458 22.3359 7.66124C22.3775 7.77791 22.3984 7.90291 22.3984 8.03624C22.3984 8.16958 22.3775 8.29458 22.3359 8.41124C22.2942 8.52791 22.2234 8.63624 22.1234 8.73624L18.5234 12.3362C18.34 12.5196 18.1109 12.6112 17.8359 12.6112C17.5609 12.6112 17.3234 12.5196 17.1234 12.3362C16.9234 12.1362 16.8234 11.8987 16.8234 11.6237C16.8234 11.3487 16.9234 11.1112 17.1234 10.9112L18.9984 9.03624Z" fill="currentColor"/>
</g>
</svg>