<svg width="19" height="18" viewBox="0 0 19 18" fill="none" xmlns="http://www.w3.org/2000/svg">
<mask id="mask0_62_494" style="mask-type:alpha" maskUnits="userSpaceOnUse" x="0" y="0" width="19" height="18">
<rect x="0.5" width="18" height="18" fill="#D9D9D9"/>
</mask>
<g mask="url(#mask0_62_494)">
<path d="M9.5001 10.0496L5.8251 13.7246C5.6876 13.8621 5.5126 13.9309 5.3001 13.9309C5.0876 13.9309 4.9126 13.8621 4.7751 13.7246C4.6376 13.5871 4.56885 13.4121 4.56885 13.1996C4.56885 12.9871 4.6376 12.8121 4.7751 12.6746L8.4501 8.99961L4.7751 5.32461C4.6376 5.18711 4.56885 5.01211 4.56885 4.79961C4.56885 4.58711 4.6376 4.41211 4.7751 4.27461C4.9126 4.13711 5.0876 4.06836 5.3001 4.06836C5.5126 4.06836 5.6876 4.13711 5.8251 4.27461L9.5001 7.94961L13.1751 4.27461C13.3126 4.13711 13.4876 4.06836 13.7001 4.06836C13.9126 4.06836 14.0876 4.13711 14.2251 4.27461C14.3626 4.41211 14.4313 4.58711 14.4313 4.79961C14.4313 5.01211 14.3626 5.18711 14.2251 5.32461L10.5501 8.99961L14.2251 12.6746C14.3626 12.8121 14.4313 12.9871 14.4313 13.1996C14.4313 13.4121 14.3626 13.5871 14.2251 13.7246C14.0876 13.8621 13.9126 13.9309 13.7001 13.9309C13.4876 13.9309 13.3126 13.8621 13.1751 13.7246L9.5001 10.0496Z" fill="#FF2626"/>
</g>
</svg>