<svg viewBox="0 0 29 29" fill="none" xmlns="http://www.w3.org/2000/svg">
<path d="M8.08334 23.8334C6.31389 23.8334 4.80209 23.2209 3.54792 21.9959C2.29376 20.7709 1.66667 19.2737 1.66667 17.5042C1.66667 15.9876 2.12362 14.6362 3.03751 13.4501C3.95139 12.264 5.14723 11.5056 6.625 11.1751C7.11112 9.38619 8.08334 7.93758 9.54167 6.82925C11 5.72091 12.6528 5.16675 14.5 5.16675C16.775 5.16675 18.7049 5.95911 20.2896 7.54383C21.8743 9.12855 22.6667 11.0584 22.6667 13.3334C24.0083 13.489 25.1215 14.0674 26.0063 15.0688C26.891 16.0702 27.3333 17.2417 27.3333 18.5834C27.3333 20.0417 26.8229 21.2813 25.8021 22.3022C24.7813 23.323 23.5417 23.8334 22.0833 23.8334H8.08334ZM8.08334 21.5001H22.0833C22.9 21.5001 23.5903 21.2181 24.1542 20.6542C24.7181 20.0904 25 19.4001 25 18.5834C25 17.7667 24.7181 17.0765 24.1542 16.5126C23.5903 15.9487 22.9 15.6667 22.0833 15.6667H20.3333V13.3334C20.3333 11.7195 19.7646 10.3438 18.6271 9.20633C17.4896 8.06883 16.1139 7.50008 14.5 7.50008C12.8861 7.50008 11.5104 8.06883 10.3729 9.20633C9.23542 10.3438 8.66667 11.7195 8.66667 13.3334H8.08334C6.95556 13.3334 5.99306 13.732 5.19584 14.5292C4.39862 15.3265 4.00001 16.289 4.00001 17.4167C4.00001 18.5445 4.39862 19.507 5.19584 20.3042C5.99306 21.1015 6.95556 21.5001 8.08334 21.5001Z" fill="currentColor" />
</svg>