<svg viewBox="0 0 49 49" fill="none" xmlns="http://www.w3.org/2000/svg">
<path d="M2.4 27.1C1.8 25.9 1.33333 24.6833 1 23.45C0.666667 22.2167 0.5 20.9667 0.5 19.7C0.5 15.9667 1.76667 12.8333 4.3 10.3C6.83333 7.76667 9.96667 6.5 13.7 6.5C15.8 6.5 17.8 6.94167 19.7 7.825C21.6 8.70833 23.2 9.93333 24.5 11.5C25.8 9.93333 27.4 8.70833 29.3 7.825C31.2 6.94167 33.2 6.5 35.3 6.5C39.0333 6.5 42.1667 7.76667 44.7 10.3C47.2333 12.8333 48.5 15.9667 48.5 19.7C48.5 20.9667 48.3333 22.2167 48 23.45C47.6667 24.6833 47.2 25.9 46.6 27.1C46.2333 26.4667 45.8 25.9 45.3 25.4C44.8 24.9 44.2167 24.5 43.55 24.2C43.85 23.4333 44.0833 22.6833 44.25 21.95C44.4167 21.2167 44.5 20.4667 44.5 19.7C44.5 17.1 43.6167 14.9167 41.85 13.15C40.0833 11.3833 37.9 10.5 35.3 10.5C32.6 10.5 30.525 11.2417 29.075 12.725C27.625 14.2083 26.1 15.8667 24.5 17.7C22.9 15.8333 21.375 14.1667 19.925 12.7C18.475 11.2333 16.4 10.5 13.7 10.5C11.1 10.5 8.91667 11.3833 7.15 13.15C5.38333 14.9167 4.5 17.1 4.5 19.7C4.5 20.4667 4.58333 21.2167 4.75 21.95C4.91667 22.6833 5.15 23.4333 5.45 24.2C4.78333 24.5 4.2 24.9 3.7 25.4C3.2 25.9 2.76667 26.4667 2.4 27.1ZM0.5 42.5V41.35C0.5 39.8833 1.24167 38.7083 2.725 37.825C4.20833 36.9417 6.13333 36.5 8.5 36.5C8.93333 36.5 9.35 36.5083 9.75 36.525C10.15 36.5417 10.5333 36.5833 10.9 36.65C10.4333 37.3167 10.0833 38.0333 9.85 38.8C9.61667 39.5667 9.5 40.3833 9.5 41.25V44.5H2.5C1.93333 44.5 1.45833 44.3083 1.075 43.925C0.691667 43.5417 0.5 43.0667 0.5 42.5ZM12.5 42.5V41.25C12.5 39.0833 13.6083 37.3333 15.825 36C18.0417 34.6667 20.9333 34 24.5 34C28.1 34 31 34.6667 33.2 36C35.4 37.3333 36.5 39.0833 36.5 41.25V42.5C36.5 43.0667 36.3083 43.5417 35.925 43.925C35.5417 44.3083 35.0667 44.5 34.5 44.5H14.5C13.9333 44.5 13.4583 44.3083 13.075 43.925C12.6917 43.5417 12.5 43.0667 12.5 42.5ZM39.5 44.5V41.25C39.5 40.3833 39.3917 39.5667 39.175 38.8C38.9583 38.0333 38.6333 37.3167 38.2 36.65C38.5667 36.5833 38.9417 36.5417 39.325 36.525C39.7083 36.5083 40.1 36.5 40.5 36.5C42.9 36.5 44.8333 36.9417 46.3 37.825C47.7667 38.7083 48.5 39.8833 48.5 41.35V42.5C48.5 43.0667 48.3083 43.5417 47.925 43.925C47.5417 44.3083 47.0667 44.5 46.5 44.5H39.5ZM24.5 38C22.6 38 20.9 38.25 19.4 38.75C17.9 39.25 17.0167 39.8333 16.75 40.5H32.3C32 39.8333 31.1083 39.25 29.625 38.75C28.1417 38.25 26.4333 38 24.5 38ZM8.5 34.5C7.4 34.5 6.45833 34.1083 5.675 33.325C4.89167 32.5417 4.5 31.6 4.5 30.5C4.5 29.3667 4.89167 28.4167 5.675 27.65C6.45833 26.8833 7.4 26.5 8.5 26.5C9.63333 26.5 10.5833 26.8833 11.35 27.65C12.1167 28.4167 12.5 29.3667 12.5 30.5C12.5 31.6 12.1167 32.5417 11.35 33.325C10.5833 34.1083 9.63333 34.5 8.5 34.5ZM40.5 34.5C39.4 34.5 38.4583 34.1083 37.675 33.325C36.8917 32.5417 36.5 31.6 36.5 30.5C36.5 29.3667 36.8917 28.4167 37.675 27.65C38.4583 26.8833 39.4 26.5 40.5 26.5C41.6333 26.5 42.5833 26.8833 43.35 27.65C44.1167 28.4167 44.5 29.3667 44.5 30.5C44.5 31.6 44.1167 32.5417 43.35 33.325C42.5833 34.1083 41.6333 34.5 40.5 34.5ZM24.5 32.5C22.8333 32.5 21.4167 31.9167 20.25 30.75C19.0833 29.5833 18.5 28.1667 18.5 26.5C18.5 24.8 19.0833 23.375 20.25 22.225C21.4167 21.075 22.8333 20.5 24.5 20.5C26.2 20.5 27.625 21.075 28.775 22.225C29.925 23.375 30.5 24.8 30.5 26.5C30.5 28.1667 29.925 29.5833 28.775 30.75C27.625 31.9167 26.2 32.5 24.5 32.5ZM24.5 24.5C23.9333 24.5 23.4583 24.6917 23.075 25.075C22.6917 25.4583 22.5 25.9333 22.5 26.5C22.5 27.0667 22.6917 27.5417 23.075 27.925C23.4583 28.3083 23.9333 28.5 24.5 28.5C25.0667 28.5 25.5417 28.3083 25.925 27.925C26.3083 27.5417 26.5 27.0667 26.5 26.5C26.5 25.9333 26.3083 25.4583 25.925 25.075C25.5417 24.6917 25.0667 24.5 24.5 24.5Z"/>
</svg>