<svg width="29" height="29" viewBox="0 0 29 29" fill="none" xmlns="http://www.w3.org/2000/svg">
<path d="M2.83334 25C2.50278 25 2.2257 24.8882 2.00209 24.6646C1.77848 24.441 1.66667 24.1639 1.66667 23.8333C1.66667 23.5028 1.77848 23.2257 2.00209 23.0021C2.2257 22.7785 2.50278 22.6667 2.83334 22.6667H26.1667C26.4972 22.6667 26.7743 22.7785 26.9979 23.0021C27.2215 23.2257 27.3333 23.5028 27.3333 23.8333C27.3333 24.1639 27.2215 24.441 26.9979 24.6646C26.7743 24.8882 26.4972 25 26.1667 25H2.83334ZM5.16667 21.5C4.52501 21.5 3.9757 21.2715 3.51876 20.8146C3.06181 20.3576 2.83334 19.8083 2.83334 19.1667V6.33333C2.83334 5.69167 3.06181 5.14236 3.51876 4.68542C3.9757 4.22847 4.52501 4 5.16667 4H23.8333C24.475 4 25.0243 4.22847 25.4813 4.68542C25.9382 5.14236 26.1667 5.69167 26.1667 6.33333V19.1667C26.1667 19.8083 25.9382 20.3576 25.4813 20.8146C25.0243 21.2715 24.475 21.5 23.8333 21.5H5.16667ZM5.16667 19.1667H23.8333V6.33333H5.16667V19.1667Z" />
</svg>