<svg viewBox="0 0 18 19" fill="none" xmlns="http://www.w3.org/2000/svg">
<mask id="mask0_401_189" style="mask-type:alpha" maskUnits="userSpaceOnUse" x="0" y="0" width="18" height="19">
<rect y="0.5" width="18" height="18" fill="#D9D9D9"/>
</mask>
<g mask="url(#mask0_401_189)">
<path d="M5.25 16.25C4.8375 16.25 4.4845 16.1033 4.191 15.8098C3.897 15.5158 3.75 15.1625 3.75 14.75V5C3.5375 5 3.35925 4.92825 3.21525 4.78475C3.07175 4.64075 3 4.4625 3 4.25C3 4.0375 3.07175 3.85925 3.21525 3.71525C3.35925 3.57175 3.5375 3.5 3.75 3.5H6.75C6.75 3.2875 6.822 3.10925 6.966 2.96525C7.1095 2.82175 7.2875 2.75 7.5 2.75H10.5C10.7125 2.75 10.8908 2.82175 11.0348 2.96525C11.1783 3.10925 11.25 3.2875 11.25 3.5H14.25C14.4625 3.5 14.6405 3.57175 14.784 3.71525C14.928 3.85925 15 4.0375 15 4.25C15 4.4625 14.928 4.64075 14.784 4.78475C14.6405 4.92825 14.4625 5 14.25 5V14.75C14.25 15.1625 14.1033 15.5158 13.8098 15.8098C13.5158 16.1033 13.1625 16.25 12.75 16.25H5.25ZM5.25 5V14.75H12.75V5H5.25ZM6.75 12.5C6.75 12.7125 6.822 12.8905 6.966 13.034C7.1095 13.178 7.2875 13.25 7.5 13.25C7.7125 13.25 7.89075 13.178 8.03475 13.034C8.17825 12.8905 8.25 12.7125 8.25 12.5V7.25C8.25 7.0375 8.17825 6.85925 8.03475 6.71525C7.89075 6.57175 7.7125 6.5 7.5 6.5C7.2875 6.5 7.1095 6.57175 6.966 6.71525C6.822 6.85925 6.75 7.0375 6.75 7.25V12.5ZM9.75 12.5C9.75 12.7125 9.822 12.8905 9.966 13.034C10.1095 13.178 10.2875 13.25 10.5 13.25C10.7125 13.25 10.8908 13.178 11.0348 13.034C11.1783 12.8905 11.25 12.7125 11.25 12.5V7.25C11.25 7.0375 11.1783 6.85925 11.0348 6.71525C10.8908 6.57175 10.7125 6.5 10.5 6.5C10.2875 6.5 10.1095 6.57175 9.966 6.71525C9.822 6.85925 9.75 7.0375 9.75 7.25V12.5Z" fill="currentColor" />
</g>
</svg>