<svg width="25" height="24" viewBox="0 0 25 24" fill="none" xmlns="http://www.w3.org/2000/svg">
<mask id="mask0_725_947" style="mask-type:alpha" maskUnits="userSpaceOnUse" x="0" y="0" width="25" height="24">
<rect x="0.666656" width="24" height="24" fill="#D9D9D9"/>
</mask>
<g mask="url(#mask0_725_947)">
<path d="M16.6667 17.5C17.0833 17.5 17.4375 17.3542 17.7292 17.0625C18.0208 16.7708 18.1667 16.4167 18.1667 16C18.1667 15.5833 18.0208 15.2292 17.7292 14.9375C17.4375 14.6458 17.0833 14.5 16.6667 14.5C16.25 14.5 15.8958 14.6458 15.6042 14.9375C15.3125 15.2292 15.1667 15.5833 15.1667 16C15.1667 16.4167 15.3125 16.7708 15.6042 17.0625C15.8958 17.3542 16.25 17.5 16.6667 17.5ZM12.6667 13.5C13.0833 13.5 13.4375 13.3542 13.7292 13.0625C14.0208 12.7708 14.1667 12.4167 14.1667 12C14.1667 11.5833 14.0208 11.2292 13.7292 10.9375C13.4375 10.6458 13.0833 10.5 12.6667 10.5C12.25 10.5 11.8958 10.6458 11.6042 10.9375C11.3125 11.2292 11.1667 11.5833 11.1667 12C11.1667 12.4167 11.3125 12.7708 11.6042 13.0625C11.8958 13.3542 12.25 13.5 12.6667 13.5ZM8.66666 9.5C9.08332 9.5 9.43749 9.35417 9.72916 9.0625C10.0208 8.77083 10.1667 8.41667 10.1667 8C10.1667 7.58333 10.0208 7.22917 9.72916 6.9375C9.43749 6.64583 9.08332 6.5 8.66666 6.5C8.24999 6.5 7.89582 6.64583 7.60416 6.9375C7.31249 7.22917 7.16666 7.58333 7.16666 8C7.16666 8.41667 7.31249 8.77083 7.60416 9.0625C7.89582 9.35417 8.24999 9.5 8.66666 9.5ZM5.66666 21C5.11666 21 4.64582 20.8042 4.25416 20.4125C3.86249 20.0208 3.66666 19.55 3.66666 19V5C3.66666 4.45 3.86249 3.97917 4.25416 3.5875C4.64582 3.19583 5.11666 3 5.66666 3H19.6667C20.2167 3 20.6875 3.19583 21.0792 3.5875C21.4708 3.97917 21.6667 4.45 21.6667 5V19C21.6667 19.55 21.4708 20.0208 21.0792 20.4125C20.6875 20.8042 20.2167 21 19.6667 21H5.66666ZM5.66666 19H19.6667V5H5.66666V19Z" fill="white"/>
</g>
</svg>
