<svg viewBox="0 0 29 29" fill="none" xmlns="http://www.w3.org/2000/svg">
<path d="M9.25 7.5C8.76389 7.5 8.35069 7.67014 8.01042 8.01042C7.67014 8.35069 7.5 8.76389 7.5 9.25C7.5 9.73611 7.67014 10.1493 8.01042 10.4896C8.35069 10.8299 8.76389 11 9.25 11C9.73611 11 10.1493 10.8299 10.4896 10.4896C10.8299 10.1493 11 9.73611 11 9.25C11 8.76389 10.8299 8.35069 10.4896 8.01042C10.1493 7.67014 9.73611 7.5 9.25 7.5ZM9.25 19.1667C8.76389 19.1667 8.35069 19.3368 8.01042 19.6771C7.67014 20.0174 7.5 20.4306 7.5 20.9167C7.5 21.4028 7.67014 21.816 8.01042 22.1562C8.35069 22.4965 8.76389 22.6667 9.25 22.6667C9.73611 22.6667 10.1493 22.4965 10.4896 22.1562C10.8299 21.816 11 21.4028 11 20.9167C11 20.4306 10.8299 20.0174 10.4896 19.6771C10.1493 19.3368 9.73611 19.1667 9.25 19.1667ZM5.16667 4H23.8333C24.1639 4 24.441 4.11181 24.6646 4.33542C24.8882 4.55903 25 4.83611 25 5.16667V13.3333C25 13.6639 24.8882 13.941 24.6646 14.1646C24.441 14.3882 24.1639 14.5 23.8333 14.5H5.16667C4.83611 14.5 4.55903 14.3882 4.33542 14.1646C4.11181 13.941 4 13.6639 4 13.3333V5.16667C4 4.83611 4.11181 4.55903 4.33542 4.33542C4.55903 4.11181 4.83611 4 5.16667 4ZM6.33333 6.33333V12.1667H22.6667V6.33333H6.33333ZM5.16667 15.6667H23.8333C24.1639 15.6667 24.441 15.7785 24.6646 16.0021C24.8882 16.2257 25 16.5028 25 16.8333V25C25 25.3306 24.8882 25.6076 24.6646 25.8312C24.441 26.0549 24.1639 26.1667 23.8333 26.1667H5.16667C4.83611 26.1667 4.55903 26.0549 4.33542 25.8312C4.11181 25.6076 4 25.3306 4 25V16.8333C4 16.5028 4.11181 16.2257 4.33542 16.0021C4.55903 15.7785 4.83611 15.6667 5.16667 15.6667ZM6.33333 18V23.8333H22.6667V18H6.33333Z" fill="currentColor" />
</svg>