<svg width="24" height="25" viewBox="0 0 24 25" fill="none" xmlns="http://www.w3.org/2000/svg">
<mask id="mask0_22_781" style="mask-type:alpha" maskUnits="userSpaceOnUse" x="0" y="0" width="24" height="25">
<rect y="0.5" width="24" height="24" fill="#D9D9D9"/>
</mask>
<g mask="url(#mask0_22_781)">
<path d="M12 15.45C11.8667 15.45 11.7417 15.429 11.625 15.387C11.5083 15.3456 11.4 15.275 11.3 15.175L6.675 10.55C6.49167 10.3666 6.40433 10.1373 6.413 9.86198C6.421 9.58731 6.51667 9.35831 6.7 9.17498C6.88333 8.99164 7.11667 8.89998 7.4 8.89998C7.68333 8.89998 7.91667 8.99164 8.1 9.17498L12 13.075L15.925 9.14998C16.1083 8.96664 16.3377 8.87898 16.613 8.88698C16.8877 8.89564 17.1167 8.99164 17.3 9.17498C17.4833 9.35831 17.575 9.59164 17.575 9.87498C17.575 10.1583 17.4833 10.3916 17.3 10.575L12.7 15.175C12.6 15.275 12.4917 15.3456 12.375 15.387C12.2583 15.429 12.1333 15.45 12 15.45Z" fill="#F97070"/>
</g>
</svg>