<svg viewBox="0 0 25 25" fill="none" xmlns="http://www.w3.org/2000/svg">
<mask id="mask0_939_846" style="mask-type:alpha" maskUnits="userSpaceOnUse" x="0" y="0" width="25" height="25">
<rect x="0.878525" y="0.926086" width="24" height="24" fill="#D9D9D9"/>
</mask>
<g mask="url(#mask0_939_846)">
<path d="M5.87852 21.9261C5.32852 21.9261 4.85769 21.7303 4.46602 21.3386C4.07436 20.9469 3.87852 20.4761 3.87852 19.9261V9.92609C3.87852 9.37609 4.07436 8.90525 4.46602 8.51359C4.85769 8.12192 5.32852 7.92609 5.87852 7.92609H8.87852C9.16186 7.92609 9.39936 8.02192 9.59102 8.21359C9.78269 8.40525 9.87852 8.64275 9.87852 8.92609C9.87852 9.20942 9.78269 9.44692 9.59102 9.63859C9.39936 9.83025 9.16186 9.92609 8.87852 9.92609H5.87852V19.9261H19.8785V9.92609H16.8785C16.5952 9.92609 16.3577 9.83025 16.166 9.63859C15.9744 9.44692 15.8785 9.20942 15.8785 8.92609C15.8785 8.64275 15.9744 8.40525 16.166 8.21359C16.3577 8.02192 16.5952 7.92609 16.8785 7.92609H19.8785C20.4285 7.92609 20.8994 8.12192 21.291 8.51359C21.6827 8.90525 21.8785 9.37609 21.8785 9.92609V19.9261C21.8785 20.4761 21.6827 20.9469 21.291 21.3386C20.8994 21.7303 20.4285 21.9261 19.8785 21.9261H5.87852ZM13.8785 13.1011L14.7785 12.2011C14.9619 12.0178 15.191 11.9261 15.466 11.9261C15.741 11.9261 15.9785 12.0261 16.1785 12.2261C16.3619 12.4094 16.4535 12.6428 16.4535 12.9261C16.4535 13.2094 16.3619 13.4428 16.1785 13.6261L13.5785 16.2261C13.3785 16.4261 13.1452 16.5261 12.8785 16.5261C12.6119 16.5261 12.3785 16.4261 12.1785 16.2261L9.57853 13.6261C9.39519 13.4428 9.29936 13.2136 9.29102 12.9386C9.28269 12.6636 9.37853 12.4261 9.57853 12.2261C9.76186 12.0428 9.99519 11.9511 10.2785 11.9511C10.5619 11.9511 10.7952 12.0428 10.9785 12.2261L11.8785 13.1011V1.92609C11.8785 1.64275 11.9744 1.40525 12.166 1.21359C12.3577 1.02192 12.5952 0.926086 12.8785 0.926086C13.1619 0.926086 13.3994 1.02192 13.591 1.21359C13.7827 1.40525 13.8785 1.64275 13.8785 1.92609V13.1011Z" fill="currentColor"/>
</g>
</svg>