<svg viewBox="0 0 16 16" fill="none" xmlns="http://www.w3.org/2000/svg">
<mask id="mask0_366_130" style="mask-type:alpha" maskUnits="userSpaceOnUse" x="0" y="0" width="16" height="16">
<rect width="16" height="16" fill="#D9D9D9"/>
</mask>
<g mask="url(#mask0_366_130)">
<path d="M2.66666 16C2.29999 16 1.98622 15.8696 1.72533 15.6087C1.46399 15.3474 1.33333 15.0334 1.33333 14.6667C1.33333 14.3 1.46399 13.986 1.72533 13.7247C1.98622 13.4638 2.29999 13.3334 2.66666 13.3334H13.3333C13.7 13.3334 14.014 13.4638 14.2753 13.7247C14.5362 13.986 14.6667 14.3 14.6667 14.6667C14.6667 15.0334 14.5362 15.3474 14.2753 15.6087C14.014 15.8696 13.7 16 13.3333 16H2.66666ZM3.33333 12C3.14444 12 2.98599 11.936 2.85799 11.808C2.73044 11.6805 2.66666 11.5223 2.66666 11.3334V9.78337C2.66666 9.69448 2.68333 9.60826 2.71666 9.52471C2.74999 9.44159 2.79999 9.36671 2.86666 9.30004L8.69999 3.46671L11.2 5.96671L5.36666 11.8C5.29999 11.8667 5.22511 11.9167 5.14199 11.95C5.05844 11.9834 4.97222 12 4.88333 12H3.33333ZM3.99999 10.6667H4.59999L9.33333 5.96671L8.69999 5.33337L3.99999 10.0667V10.6667ZM11.95 5.23337L9.44999 2.73337L10.65 1.53337C10.7722 1.40004 10.9278 1.33604 11.1167 1.34137C11.3055 1.34715 11.4611 1.41115 11.5833 1.53337L13.15 3.10004C13.2722 3.22226 13.3333 3.37515 13.3333 3.55871C13.3333 3.74182 13.2722 3.90004 13.15 4.03337L11.95 5.23337Z" fill="currentColor"/>
</g>
</svg>