<svg width="19" height="18" viewBox="0 0 19 18" fill="none" xmlns="http://www.w3.org/2000/svg">
<mask id="mask0_66_446" style="mask-type:alpha" maskUnits="userSpaceOnUse" x="0" y="0" width="19" height="18">
<rect x="0.5" width="18" height="18" fill="#D9D9D9"/>
</mask>
<g mask="url(#mask0_66_446)">
<path d="M8 15.75L11 12.75H15.5C15.9125 12.75 16.2657 12.8967 16.5597 13.1903C16.8533 13.4843 17 13.8375 17 14.25C17 14.6625 16.8533 15.0157 16.5597 15.3097C16.2657 15.6033 15.9125 15.75 15.5 15.75H8ZM14.225 6.69375L11.0375 3.54375L12.0875 2.49375C12.375 2.20625 12.7283 2.0625 13.1473 2.0625C13.5658 2.0625 13.9187 2.20625 14.2062 2.49375L15.2562 3.54375C15.5437 3.83125 15.6937 4.17825 15.7062 4.58475C15.7188 4.99075 15.5813 5.3375 15.2938 5.625L14.225 6.69375ZM2.75 15.75C2.5375 15.75 2.3595 15.678 2.216 15.534C2.072 15.3905 2 15.2125 2 15V12.8812C2 12.7812 2.01875 12.6845 2.05625 12.591C2.09375 12.497 2.15 12.4125 2.225 12.3375L9.95 4.6125L13.1375 7.8L5.4125 15.525C5.3375 15.6 5.25325 15.6562 5.15975 15.6937C5.06575 15.7312 4.96875 15.75 4.86875 15.75H2.75Z" fill="white"/>
</g>
</svg>