<svg width="14" height="14" viewBox="0 0 14 14" fill="none" xmlns="http://www.w3.org/2000/svg">
<mask id="mask0_62_380" style="mask-type:alpha" maskUnits="userSpaceOnUse" x="0" y="0" width="14" height="14">
<rect width="14" height="14" fill="#D9D9D9"/>
</mask>
<g mask="url(#mask0_62_380)">
<path d="M2.33332 11.6668C2.01249 11.6668 1.73793 11.5527 1.50966 11.3244C1.28099 11.0957 1.16666 10.821 1.16666 10.5002V3.50016C1.16666 3.17933 1.28099 2.90477 1.50966 2.6765C1.73793 2.44783 2.01249 2.3335 2.33332 2.3335H11.6667C11.9875 2.3335 12.2622 2.44783 12.4909 2.6765C12.7192 2.90477 12.8333 3.17933 12.8333 3.50016V10.5002C12.8333 10.821 12.7192 11.0957 12.4909 11.3244C12.2622 11.5527 11.9875 11.6668 11.6667 11.6668H2.33332ZM11.6667 4.66683L7.30624 7.39391C7.25763 7.42308 7.20649 7.44486 7.15282 7.45925C7.09955 7.47402 7.0486 7.48141 6.99999 7.48141C6.95138 7.48141 6.90043 7.47402 6.84716 7.45925C6.79349 7.44486 6.74235 7.42308 6.69374 7.39391L2.33332 4.66683V10.5002H11.6667V4.66683ZM6.99999 6.41683L11.6667 3.50016H2.33332L6.99999 6.41683ZM2.33332 4.81266V3.95225V3.96683V3.95925V4.81266Z" fill="white"/>
</g>
</svg>