<svg width="118" height="118" viewBox="0 0 118 118" fill="none" xmlns="http://www.w3.org/2000/svg">
<path d="M76.2239 54.2619C78.2574 54.2619 79.986 53.5502 81.4094 52.1267C82.8329 50.7032 83.5447 48.9747 83.5447 46.9412C83.5447 44.9076 82.8329 43.1791 81.4094 41.7556C79.986 40.3321 78.2574 39.6204 76.2239 39.6204C74.1904 39.6204 72.4619 40.3321 71.0384 41.7556C69.6149 43.1791 68.9032 44.9076 68.9032 46.9412C68.9032 48.9747 69.6149 50.7032 71.0384 52.1267C72.4619 53.5502 74.1904 54.2619 76.2239 54.2619ZM42.0604 54.2619C44.0939 54.2619 45.8225 53.5502 47.2459 52.1267C48.6694 50.7032 49.3812 48.9747 49.3812 46.9412C49.3812 44.9076 48.6694 43.1791 47.2459 41.7556C45.8225 40.3321 44.0939 39.6204 42.0604 39.6204C40.0269 39.6204 38.2984 40.3321 36.8749 41.7556C35.4514 43.1791 34.7397 44.9076 34.7397 46.9412C34.7397 48.9747 35.4514 50.7032 36.8749 52.1267C38.2984 53.5502 40.0269 54.2619 42.0604 54.2619ZM59.1422 107.947C52.3908 107.947 46.0461 106.666 40.1082 104.104C34.1703 101.542 29.0051 98.0644 24.6126 93.6719C20.2202 89.2795 16.7428 84.1143 14.1806 78.1764C11.6183 72.2384 10.3372 65.8938 10.3372 59.1424C10.3372 52.391 11.6183 46.0464 14.1806 40.1085C16.7428 34.1705 20.2202 29.0053 24.6126 24.6129C29.0051 20.2204 34.1703 16.7431 40.1082 14.1808C46.0461 11.6185 52.3908 10.3374 59.1422 10.3374C65.8935 10.3374 72.2382 11.6185 78.1761 14.1808C84.1141 16.7431 89.2792 20.2204 93.6717 24.6129C98.0641 29.0053 101.541 34.1705 104.104 40.1085C106.666 46.0464 107.947 52.391 107.947 59.1424C107.947 65.8938 106.666 72.2384 104.104 78.1764C101.541 84.1143 98.0641 89.2795 93.6717 93.6719C89.2792 98.0644 84.1141 101.542 78.1761 104.104C72.2382 106.666 65.8935 107.947 59.1422 107.947ZM59.1422 98.1864C70.0419 98.1864 79.2742 94.404 86.839 86.8392C94.4038 79.2745 98.1862 70.0422 98.1862 59.1424C98.1862 48.2426 94.4038 39.0103 86.839 31.4456C79.2742 23.8808 70.0419 20.0984 59.1422 20.0984C48.2424 20.0984 39.0101 23.8808 31.4453 31.4456C23.8805 39.0103 20.0982 48.2426 20.0982 59.1424C20.0982 70.0422 23.8805 79.2745 31.4453 86.8392C39.0101 94.404 48.2424 98.1864 59.1422 98.1864ZM59.1422 85.9851C63.86 85.9851 68.2118 84.8464 72.1975 82.5688C76.1832 80.2912 79.3962 77.2003 81.8365 73.2959C82.3245 72.3198 82.2839 71.3437 81.7145 70.3676C81.1451 69.3915 80.291 68.9034 79.1522 68.9034H39.1321C37.9933 68.9034 37.1392 69.3915 36.5698 70.3676C36.0005 71.3437 35.9598 72.3198 36.4478 73.2959C38.8881 77.2003 42.1214 80.2912 46.1478 82.5688C50.1742 84.8464 54.5057 85.9851 59.1422 85.9851Z" fill="#FD7979"/>
</svg>