<svg width="24" height="25" viewBox="0 0 24 25" fill="none" xmlns="http://www.w3.org/2000/svg">
<mask id="mask0_725_940" style="mask-type:alpha" maskUnits="userSpaceOnUse" x="0" y="0" width="24" height="25">
<rect y="0.5" width="24" height="24" fill="#D9D9D9"/>
</mask>
<g mask="url(#mask0_725_940)">
<path d="M12 4.5C14.2333 4.5 16.125 5.275 17.675 6.825C19.225 8.375 20 10.2667 20 12.5C20 14.7333 19.225 16.625 17.675 18.175C16.125 19.725 14.2333 20.5 12 20.5C9.76667 20.5 7.875 19.725 6.325 18.175C4.775 16.625 4 14.7333 4 12.5C4 10.2667 4.775 8.375 6.325 6.825C7.875 5.275 9.76667 4.5 12 4.5ZM12 18.5C13.6667 18.5 15.0833 17.9167 16.25 16.75C17.4167 15.5833 18 14.1667 18 12.5C18 10.8333 17.4167 9.41667 16.25 8.25C15.0833 7.08333 13.6667 6.5 12 6.5C10.3333 6.5 8.91667 7.08333 7.75 8.25C6.58333 9.41667 6 10.8333 6 12.5C6 14.1667 6.58333 15.5833 7.75 16.75C8.91667 17.9167 10.3333 18.5 12 18.5ZM12 16C12.6333 16 13.2208 15.85 13.7625 15.55C14.3042 15.25 14.7417 14.8417 15.075 14.325C15.175 14.1417 15.1708 13.9583 15.0625 13.775C14.9542 13.5917 14.7917 13.5 14.575 13.5H9.425C9.20833 13.5 9.04583 13.5917 8.9375 13.775C8.82917 13.9583 8.825 14.1417 8.925 14.325C9.25833 14.8417 9.69583 15.25 10.2375 15.55C10.7792 15.85 11.3667 16 12 16ZM8.5 10.5C8.5 10.7833 8.59583 11.0208 8.7875 11.2125C8.97917 11.4042 9.21667 11.5 9.5 11.5C9.78333 11.5 10.0208 11.4042 10.2125 11.2125C10.4042 11.0208 10.5 10.7833 10.5 10.5C10.5 10.2167 10.4042 9.97917 10.2125 9.7875C10.0208 9.59583 9.78333 9.5 9.5 9.5C9.21667 9.5 8.97917 9.59583 8.7875 9.7875C8.59583 9.97917 8.5 10.2167 8.5 10.5ZM13.5 10.5C13.5 10.7833 13.5958 11.0208 13.7875 11.2125C13.9792 11.4042 14.2167 11.5 14.5 11.5C14.7833 11.5 15.0208 11.4042 15.2125 11.2125C15.4042 11.0208 15.5 10.7833 15.5 10.5C15.5 10.2167 15.4042 9.97917 15.2125 9.7875C15.0208 9.59583 14.7833 9.5 14.5 9.5C14.2167 9.5 13.9792 9.59583 13.7875 9.7875C13.5958 9.97917 13.5 10.2167 13.5 10.5ZM2 6.5C1.71667 6.5 1.47917 6.40417 1.2875 6.2125C1.09583 6.02083 1 5.78333 1 5.5V4.5C1 3.66667 1.29167 2.95833 1.875 2.375C2.45833 1.79167 3.16667 1.5 4 1.5H5C5.28333 1.5 5.52083 1.59583 5.7125 1.7875C5.90417 1.97917 6 2.21667 6 2.5C6 2.78333 5.90417 3.02083 5.7125 3.2125C5.52083 3.40417 5.28333 3.5 5 3.5H4C3.71667 3.5 3.47917 3.59583 3.2875 3.7875C3.09583 3.97917 3 4.21667 3 4.5V5.5C3 5.78333 2.90417 6.02083 2.7125 6.2125C2.52083 6.40417 2.28333 6.5 2 6.5ZM4 23.5C3.16667 23.5 2.45833 23.2083 1.875 22.625C1.29167 22.0417 1 21.3333 1 20.5V19.5C1 19.2167 1.09583 18.9792 1.2875 18.7875C1.47917 18.5958 1.71667 18.5 2 18.5C2.28333 18.5 2.52083 18.5958 2.7125 18.7875C2.90417 18.9792 3 19.2167 3 19.5V20.5C3 20.7833 3.09583 21.0208 3.2875 21.2125C3.47917 21.4042 3.71667 21.5 4 21.5H5C5.28333 21.5 5.52083 21.5958 5.7125 21.7875C5.90417 21.9792 6 22.2167 6 22.5C6 22.7833 5.90417 23.0208 5.7125 23.2125C5.52083 23.4042 5.28333 23.5 5 23.5H4ZM19 23.5C18.7167 23.5 18.4792 23.4042 18.2875 23.2125C18.0958 23.0208 18 22.7833 18 22.5C18 22.2167 18.0958 21.9792 18.2875 21.7875C18.4792 21.5958 18.7167 21.5 19 21.5H20C20.2833 21.5 20.5208 21.4042 20.7125 21.2125C20.9042 21.0208 21 20.7833 21 20.5V19.5C21 19.2167 21.0958 18.9792 21.2875 18.7875C21.4792 18.5958 21.7167 18.5 22 18.5C22.2833 18.5 22.5208 18.5958 22.7125 18.7875C22.9042 18.9792 23 19.2167 23 19.5V20.5C23 21.3333 22.7083 22.0417 22.125 22.625C21.5417 23.2083 20.8333 23.5 20 23.5H19ZM21 5.5V4.5C21 4.21667 20.9042 3.97917 20.7125 3.7875C20.5208 3.59583 20.2833 3.5 20 3.5H19C18.7167 3.5 18.4792 3.40417 18.2875 3.2125C18.0958 3.02083 18 2.78333 18 2.5C18 2.21667 18.0958 1.97917 18.2875 1.7875C18.4792 1.59583 18.7167 1.5 19 1.5H20C20.8333 1.5 21.5417 1.79167 22.125 2.375C22.7083 2.95833 23 3.66667 23 4.5V5.5C23 5.78333 22.9042 6.02083 22.7125 6.2125C22.5208 6.40417 22.2833 6.5 22 6.5C21.7167 6.5 21.4792 6.40417 21.2875 6.2125C21.0958 6.02083 21 5.78333 21 5.5Z" fill="#FF3D3D"/>
</g>
</svg>
