<svg  viewBox="0 0 49 49" fill="none" xmlns="http://www.w3.org/2000/svg">
<mask id="mask0_153_80" style="mask-type:alpha" maskUnits="userSpaceOnUse" x="0" y="0" width="49" height="49">
<rect x="0.25" y="0.5" width="48" height="48"/>
</mask>
<g mask="url(#mask0_153_80)">
<path d="M8.25 34.5V38.5H40.25V34.5H8.25ZM8.25 42.5C7.15 42.5 6.20867 42.1087 5.426 41.326C4.642 40.542 4.25 39.6 4.25 38.5V16.5C4.25 15.4 4.642 14.4587 5.426 13.676C6.20867 12.892 7.15 12.5 8.25 12.5H12.65C12.4833 12.2 12.3747 11.8833 12.324 11.55C12.2747 11.2167 12.25 10.8667 12.25 10.5C12.25 8.83333 12.8333 7.41667 14 6.25C15.1667 5.08333 16.5833 4.5 18.25 4.5C19.25 4.5 20.1747 4.758 21.024 5.274C21.8747 5.79133 22.6167 6.43333 23.25 7.2L24.25 8.5L25.25 7.2C25.85 6.4 26.5833 5.75 27.45 5.25C28.3167 4.75 29.25 4.5 30.25 4.5C31.9167 4.5 33.3333 5.08333 34.5 6.25C35.6667 7.41667 36.25 8.83333 36.25 10.5C36.25 10.8667 36.2247 11.2167 36.174 11.55C36.1247 11.8833 36.0167 12.2 35.85 12.5H40.25C41.35 12.5 42.292 12.892 43.076 13.676C43.8587 14.4587 44.25 15.4 44.25 16.5V38.5C44.25 39.6 43.8587 40.542 43.076 41.326C42.292 42.1087 41.35 42.5 40.25 42.5H8.25ZM8.25 28.5H40.25V16.5H30.05L33.1 20.65C33.4 21.05 33.4913 21.508 33.374 22.024C33.258 22.5413 33.0167 22.9833 32.65 23.35C32.2167 23.6833 31.7333 23.8 31.2 23.7C30.6667 23.6 30.2333 23.3333 29.9 22.9L24.25 15.3L18.6 22.95C18.2333 23.4167 17.7753 23.6913 17.226 23.774C16.6753 23.858 16.2167 23.7167 15.85 23.35C15.3833 23.0167 15.1087 22.5833 15.026 22.05C14.942 21.5167 15.0667 21.0333 15.4 20.6L18.35 16.5H8.25V28.5ZM18.25 12.5C18.8167 12.5 19.292 12.3087 19.676 11.926C20.0587 11.542 20.25 11.0667 20.25 10.5C20.25 9.93333 20.0587 9.458 19.676 9.074C19.292 8.69133 18.8167 8.5 18.25 8.5C17.6833 8.5 17.2087 8.69133 16.826 9.074C16.442 9.458 16.25 9.93333 16.25 10.5C16.25 11.0667 16.442 11.542 16.826 11.926C17.2087 12.3087 17.6833 12.5 18.25 12.5ZM30.25 12.5C30.8167 12.5 31.292 12.3087 31.676 11.926C32.0587 11.542 32.25 11.0667 32.25 10.5C32.25 9.93333 32.0587 9.458 31.676 9.074C31.292 8.69133 30.8167 8.5 30.25 8.5C29.6833 8.5 29.2087 8.69133 28.826 9.074C28.442 9.458 28.25 9.93333 28.25 10.5C28.25 11.0667 28.442 11.542 28.826 11.926C29.2087 12.3087 29.6833 12.5 30.25 12.5Z"/>
</g>
</svg>