<svg width="19" height="19" viewBox="0 0 19 19" fill="none" xmlns="http://www.w3.org/2000/svg">
<mask id="mask0_52_1134" style="mask-type:alpha" maskUnits="userSpaceOnUse" x="0" y="0" width="19" height="19">
<rect x="0.5" y="0.5" width="18" height="18" fill="#D9D9D9"/>
</mask>
<g mask="url(#mask0_52_1134)">
<path d="M9.875 9.4625C10.2375 9.0625 10.5157 8.60625 10.7098 8.09375C10.9032 7.58125 11 7.05 11 6.5C11 5.95 10.9032 5.41875 10.7098 4.90625C10.5157 4.39375 10.2375 3.9375 9.875 3.5375C10.625 3.6375 11.25 3.96875 11.75 4.53125C12.25 5.09375 12.5 5.75 12.5 6.5C12.5 7.25 12.25 7.90625 11.75 8.46875C11.25 9.03125 10.625 9.3625 9.875 9.4625ZM13.6437 15.5C13.7562 15.4125 13.8438 15.303 13.9062 15.1715C13.9688 15.0405 14 14.8938 14 14.7313V13.25C14 12.8 13.9 12.372 13.7 11.966C13.5 11.5595 13.2375 11.2 12.9125 10.8875C13.55 11.1125 14.1407 11.403 14.6847 11.759C15.2283 12.1155 15.5 12.6125 15.5 13.25V14.75C15.5 14.9625 15.428 15.1405 15.284 15.284C15.1405 15.428 14.9625 15.5 14.75 15.5H13.6437ZM16.25 10.25C16.0375 10.25 15.8595 10.178 15.716 10.034C15.572 9.8905 15.5 9.7125 15.5 9.5V8.75H14.75C14.5375 8.75 14.3595 8.678 14.216 8.534C14.072 8.3905 14 8.2125 14 8C14 7.7875 14.072 7.60925 14.216 7.46525C14.3595 7.32175 14.5375 7.25 14.75 7.25H15.5V6.5C15.5 6.2875 15.572 6.10925 15.716 5.96525C15.8595 5.82175 16.0375 5.75 16.25 5.75C16.4625 5.75 16.6405 5.82175 16.784 5.96525C16.928 6.10925 17 6.2875 17 6.5V7.25H17.75C17.9625 7.25 18.1405 7.32175 18.284 7.46525C18.428 7.60925 18.5 7.7875 18.5 8C18.5 8.2125 18.428 8.3905 18.284 8.534C18.1405 8.678 17.9625 8.75 17.75 8.75H17V9.5C17 9.7125 16.928 9.8905 16.784 10.034C16.6405 10.178 16.4625 10.25 16.25 10.25ZM6.5 9.5C5.675 9.5 4.96875 9.20625 4.38125 8.61875C3.79375 8.03125 3.5 7.325 3.5 6.5C3.5 5.675 3.79375 4.96875 4.38125 4.38125C4.96875 3.79375 5.675 3.5 6.5 3.5C7.325 3.5 8.03125 3.79375 8.61875 4.38125C9.20625 4.96875 9.5 5.675 9.5 6.5C9.5 7.325 9.20625 8.03125 8.61875 8.61875C8.03125 9.20625 7.325 9.5 6.5 9.5ZM1.25 15.5C1.0375 15.5 0.8595 15.428 0.716 15.284C0.572 15.1405 0.5 14.9625 0.5 14.75V13.4C0.5 12.975 0.6095 12.5843 0.8285 12.2277C1.047 11.8717 1.3375 11.6 1.7 11.4125C2.475 11.025 3.2625 10.7343 4.0625 10.5402C4.8625 10.3468 5.675 10.25 6.5 10.25C7.325 10.25 8.1375 10.3468 8.9375 10.5402C9.7375 10.7343 10.525 11.025 11.3 11.4125C11.6625 11.6 11.953 11.8717 12.1715 12.2277C12.3905 12.5843 12.5 12.975 12.5 13.4V14.75C12.5 14.9625 12.4283 15.1405 12.2847 15.284C12.1407 15.428 11.9625 15.5 11.75 15.5H1.25ZM6.5 8C6.9125 8 7.26575 7.853 7.55975 7.559C7.85325 7.2655 8 6.9125 8 6.5C8 6.0875 7.85325 5.7345 7.55975 5.441C7.26575 5.147 6.9125 5 6.5 5C6.0875 5 5.7345 5.147 5.441 5.441C5.147 5.7345 5 6.0875 5 6.5C5 6.9125 5.147 7.2655 5.441 7.559C5.7345 7.853 6.0875 8 6.5 8ZM2 14H11V13.4C11 13.2625 10.9657 13.1375 10.8973 13.025C10.8282 12.9125 10.7375 12.825 10.625 12.7625C9.95 12.425 9.26875 12.1718 8.58125 12.0028C7.89375 11.8342 7.2 11.75 6.5 11.75C5.8 11.75 5.10625 11.8342 4.41875 12.0028C3.73125 12.1718 3.05 12.425 2.375 12.7625C2.2625 12.825 2.172 12.9125 2.1035 13.025C2.0345 13.1375 2 13.2625 2 13.4V14Z" fill="white"/>
</g>
</svg>