<svg width="25" height="24" viewBox="0 0 25 24" fill="none" xmlns="http://www.w3.org/2000/svg">
<mask id="mask0_725_960" style="mask-type:alpha" maskUnits="userSpaceOnUse" x="0" y="0" width="25" height="24">
<rect x="0.333374" width="24" height="24" fill="#D9D9D9"/>
</mask>
<g mask="url(#mask0_725_960)">
<path d="M12.2834 18C12.6334 18 12.9292 17.8792 13.1709 17.6375C13.4125 17.3958 13.5334 17.1 13.5334 16.75C13.5334 16.4 13.4125 16.1042 13.1709 15.8625C12.9292 15.6208 12.6334 15.5 12.2834 15.5C11.9334 15.5 11.6375 15.6208 11.3959 15.8625C11.1542 16.1042 11.0334 16.4 11.0334 16.75C11.0334 17.1 11.1542 17.3958 11.3959 17.6375C11.6375 17.8792 11.9334 18 12.2834 18ZM12.3334 22C10.95 22 9.65004 21.7375 8.43337 21.2125C7.21671 20.6875 6.15837 19.975 5.25837 19.075C4.35837 18.175 3.64587 17.1167 3.12087 15.9C2.59587 14.6833 2.33337 13.3833 2.33337 12C2.33337 10.6167 2.59587 9.31667 3.12087 8.1C3.64587 6.88333 4.35837 5.825 5.25837 4.925C6.15837 4.025 7.21671 3.3125 8.43337 2.7875C9.65004 2.2625 10.95 2 12.3334 2C13.7167 2 15.0167 2.2625 16.2334 2.7875C17.45 3.3125 18.5084 4.025 19.4084 4.925C20.3084 5.825 21.0209 6.88333 21.5459 8.1C22.0709 9.31667 22.3334 10.6167 22.3334 12C22.3334 13.3833 22.0709 14.6833 21.5459 15.9C21.0209 17.1167 20.3084 18.175 19.4084 19.075C18.5084 19.975 17.45 20.6875 16.2334 21.2125C15.0167 21.7375 13.7167 22 12.3334 22ZM12.3334 20C14.5667 20 16.4584 19.225 18.0084 17.675C19.5584 16.125 20.3334 14.2333 20.3334 12C20.3334 9.76667 19.5584 7.875 18.0084 6.325C16.4584 4.775 14.5667 4 12.3334 4C10.1 4 8.20837 4.775 6.65837 6.325C5.10837 7.875 4.33337 9.76667 4.33337 12C4.33337 14.2333 5.10837 16.125 6.65837 17.675C8.20837 19.225 10.1 20 12.3334 20ZM12.4334 7.7C12.85 7.7 13.2125 7.83333 13.5209 8.1C13.8292 8.36667 13.9834 8.7 13.9834 9.1C13.9834 9.46667 13.8709 9.79167 13.6459 10.075C13.4209 10.3583 13.1667 10.625 12.8834 10.875C12.5 11.2083 12.1625 11.575 11.8709 11.975C11.5792 12.375 11.4334 12.825 11.4334 13.325C11.4334 13.5583 11.5209 13.7542 11.6959 13.9125C11.8709 14.0708 12.075 14.15 12.3084 14.15C12.5584 14.15 12.7709 14.0667 12.9459 13.9C13.1209 13.7333 13.2334 13.525 13.2834 13.275C13.35 12.925 13.5 12.6125 13.7334 12.3375C13.9667 12.0625 14.2167 11.8 14.4834 11.55C14.8667 11.1833 15.1959 10.7833 15.4709 10.35C15.7459 9.91667 15.8834 9.43333 15.8834 8.9C15.8834 8.05 15.5375 7.35417 14.8459 6.8125C14.1542 6.27083 13.35 6 12.4334 6C11.8 6 11.1959 6.13333 10.6209 6.4C10.0459 6.66667 9.60837 7.075 9.30837 7.625C9.19171 7.825 9.15421 8.0375 9.19587 8.2625C9.23754 8.4875 9.35004 8.65833 9.53337 8.775C9.76671 8.90833 10.0084 8.95 10.2584 8.9C10.5084 8.85 10.7167 8.70833 10.8834 8.475C11.0667 8.225 11.2959 8.03333 11.5709 7.9C11.8459 7.76667 12.1334 7.7 12.4334 7.7Z" fill="white"/>
</g>
</svg>
