<svg viewBox="0 0 18 18" fill="none" xmlns="http://www.w3.org/2000/svg">
<mask id="mask0_99_116" style="mask-type:alpha" maskUnits="userSpaceOnUse" x="0" y="0" width="18" height="18">
<rect width="18" height="18" fill="#D9D9D9"/>
</mask>
<g mask="url(#mask0_99_116)">
<path d="M9 16.5C8.675 16.5 8.38125 16.422 8.11875 16.266C7.85625 16.1095 7.65 15.9 7.5 15.6375C7.0875 15.6375 6.7345 15.4908 6.441 15.1973C6.147 14.9033 6 14.55 6 14.1375V11.475C5.2625 10.9875 4.672 10.3438 4.2285 9.54375C3.7845 8.74375 3.5625 7.875 3.5625 6.9375C3.5625 5.425 4.0905 4.1405 5.1465 3.084C6.203 2.028 7.4875 1.5 9 1.5C10.5125 1.5 11.7967 2.028 12.8527 3.084C13.9092 4.1405 14.4375 5.425 14.4375 6.9375C14.4375 7.9 14.2158 8.775 13.7723 9.5625C13.3283 10.35 12.7375 10.9875 12 11.475V14.1375C12 14.55 11.8533 14.9033 11.5598 15.1973C11.2658 15.4908 10.9125 15.6375 10.5 15.6375C10.35 15.9 10.1438 16.1095 9.88125 16.266C9.61875 16.422 9.325 16.5 9 16.5ZM7.5 14.1375H10.5V13.4625H7.5V14.1375ZM7.5 12.7125H10.5V12H7.5V12.7125ZM7.35 10.5H8.4375V8.475L6.7875 6.825L7.575 6.0375L9 7.4625L10.425 6.0375L11.2125 6.825L9.5625 8.475V10.5H10.65C11.325 10.175 11.875 9.69675 12.3 9.06525C12.725 8.43425 12.9375 7.725 12.9375 6.9375C12.9375 5.8375 12.5563 4.90625 11.7938 4.14375C11.0313 3.38125 10.1 3 9 3C7.9 3 6.96875 3.38125 6.20625 4.14375C5.44375 4.90625 5.0625 5.8375 5.0625 6.9375C5.0625 7.725 5.275 8.43425 5.7 9.06525C6.125 9.69675 6.675 10.175 7.35 10.5Z" fill="white"/>
</g>
</svg>