<svg width="22" height="22" viewBox="0 0 22 22" fill="none" xmlns="http://www.w3.org/2000/svg">
<mask id="mask0_58_179" style="mask-type:alpha" maskUnits="userSpaceOnUse" x="0" y="0" width="22" height="22">
<rect width="22" height="22" fill="#D9D9D9"/>
</mask>
<g mask="url(#mask0_58_179)">
<path d="M6.87498 16.0416C5.46942 16.0416 4.27776 15.5527 3.29998 14.5749C2.3222 13.5971 1.83331 12.4055 1.83331 10.9999C1.83331 9.59436 2.3222 8.4027 3.29998 7.42492C4.27776 6.44714 5.46942 5.95825 6.87498 5.95825H16.5C17.5083 5.95825 18.3715 6.31728 19.0896 7.03534C19.8076 7.75339 20.1666 8.61659 20.1666 9.62492C20.1666 10.6333 19.8076 11.4964 19.0896 12.2145C18.3715 12.9326 17.5083 13.2916 16.5 13.2916H7.79165C7.14998 13.2916 6.60762 13.0701 6.16456 12.627C5.72151 12.1839 5.49998 11.6416 5.49998 10.9999C5.49998 10.3583 5.72151 9.81589 6.16456 9.37284C6.60762 8.92978 7.14998 8.70825 7.79165 8.70825H15.8125C16.0111 8.70825 16.1755 8.77303 16.3056 8.90259C16.4352 9.03275 16.5 9.19714 16.5 9.39575C16.5 9.59436 16.4352 9.75845 16.3056 9.888C16.1755 10.0182 16.0111 10.0833 15.8125 10.0833H7.79165C7.53192 10.0833 7.31437 10.1709 7.13898 10.3463C6.96298 10.5223 6.87498 10.7402 6.87498 10.9999C6.87498 11.2596 6.96298 11.4772 7.13898 11.6526C7.31437 11.8286 7.53192 11.9166 7.79165 11.9166H16.5C17.1416 11.9166 17.684 11.6951 18.1271 11.252C18.5701 10.8089 18.7916 10.2666 18.7916 9.62492C18.7916 8.98325 18.5701 8.44089 18.1271 7.99784C17.684 7.55478 17.1416 7.33325 16.5 7.33325H6.87498C5.86665 7.33325 5.00345 7.69228 4.2854 8.41034C3.56734 9.12839 3.20831 9.99159 3.20831 10.9999C3.20831 12.0083 3.56734 12.8714 4.2854 13.5895C5.00345 14.3076 5.86665 14.6666 6.87498 14.6666H15.8125C16.0111 14.6666 16.1755 14.7314 16.3056 14.8609C16.4352 14.9911 16.5 15.1555 16.5 15.3541C16.5 15.5527 16.4352 15.7171 16.3056 15.8473C16.1755 15.9768 16.0111 16.0416 15.8125 16.0416H6.87498Z" fill="white"/>
</g>
</svg>