<svg width="12" height="12" viewBox="0 0 12 12" fill="none" xmlns="http://www.w3.org/2000/svg">
<mask id="mask0_62_354" style="mask-type:alpha" maskUnits="userSpaceOnUse" x="0" y="0" width="12" height="12">
<rect width="12" height="12" fill="#D9D9D9"/>
</mask>
<g mask="url(#mask0_62_354)">
<path d="M2 10C1.725 10 1.48967 9.90217 1.294 9.7065C1.098 9.5105 1 9.275 1 9V3C1 2.725 1.098 2.48967 1.294 2.294C1.48967 2.098 1.725 2 2 2H10C10.275 2 10.5105 2.098 10.7065 2.294C10.9022 2.48967 11 2.725 11 3V9C11 9.275 10.9022 9.5105 10.7065 9.7065C10.5105 9.90217 10.275 10 10 10H2ZM10 4L6.2625 6.3375C6.22083 6.3625 6.177 6.38117 6.131 6.3935C6.08533 6.40617 6.04167 6.4125 6 6.4125C5.95833 6.4125 5.91467 6.40617 5.869 6.3935C5.823 6.38117 5.77917 6.3625 5.7375 6.3375L2 4V9H10V4ZM6 5.5L10 3H2L6 5.5ZM2 4.125V3.3875V3.4V3.3935V4.125Z" fill="white"/>
</g>
</svg>