<svg width="42" height="42" viewBox="0 0 42 42" fill="none" xmlns="http://www.w3.org/2000/svg">
<mask id="mask0_52_678" style="mask-type:alpha" maskUnits="userSpaceOnUse" x="0" y="0" width="42" height="42">
<rect width="42" height="42" fill="#D9D9D9"/>
</mask>
<g mask="url(#mask0_52_678)">
<path d="M7 35C6.0375 35 5.21383 34.6576 4.529 33.9727C3.843 33.2868 3.5 32.4625 3.5 31.5V10.5C3.5 9.5375 3.843 8.71383 4.529 8.029C5.21383 7.343 6.0375 7 7 7H35C35.9625 7 36.7868 7.343 37.4728 8.029C38.1576 8.71383 38.5 9.5375 38.5 10.5V17.4563H36.75L35 17.5V14L21 22.75L7 14V31.5H28V35H7ZM21 19.25L35 10.5H7L21 19.25ZM33.25 35C32.7542 35 32.3388 34.832 32.004 34.496C31.668 34.1612 31.5 33.7458 31.5 33.25V28C31.5 27.5042 31.668 27.0882 32.004 26.7522C32.3388 26.4174 32.7542 26.25 33.25 26.25V24.5C33.25 23.5375 33.5924 22.7133 34.2773 22.0273C34.9632 21.3424 35.7875 21 36.75 21C37.7125 21 38.5368 21.3424 39.2228 22.0273C39.9076 22.7133 40.25 23.5375 40.25 24.5V26.25C40.7458 26.25 41.1612 26.4174 41.496 26.7522C41.832 27.0882 42 27.5042 42 28V33.25C42 33.7458 41.832 34.1612 41.496 34.496C41.1612 34.832 40.7458 35 40.25 35H33.25ZM35 26.25H38.5V24.5C38.5 24.0042 38.332 23.5882 37.996 23.2522C37.6612 22.9174 37.2458 22.75 36.75 22.75C36.2542 22.75 35.8388 22.9174 35.504 23.2522C35.168 23.5882 35 24.0042 35 24.5V26.25Z" fill="white"/>
</g>
</svg>