<svg width="18" height="19" viewBox="0 0 18 19" fill="none" xmlns="http://www.w3.org/2000/svg">
<mask id="mask0_446_234" style="mask-type:alpha" maskUnits="userSpaceOnUse" x="0" y="0" width="18" height="19">
<rect y="0.5" width="18" height="18" fill="#D9D9D9"/>
</mask>
<g mask="url(#mask0_446_234)">
<path d="M5.25 11C4.8375 11 4.4845 10.853 4.191 10.559C3.897 10.2655 3.75 9.9125 3.75 9.5C3.75 9.0875 3.897 8.73425 4.191 8.44025C4.4845 8.14675 4.8375 8 5.25 8C5.6625 8 6.0155 8.14675 6.309 8.44025C6.603 8.73425 6.75 9.0875 6.75 9.5C6.75 9.9125 6.603 10.2655 6.309 10.559C6.0155 10.853 5.6625 11 5.25 11ZM5.25 14C4 14 2.9375 13.5625 2.0625 12.6875C1.1875 11.8125 0.75 10.75 0.75 9.5C0.75 8.25 1.1875 7.1875 2.0625 6.3125C2.9375 5.4375 4 5 5.25 5C6.0875 5 6.847 5.20625 7.5285 5.61875C8.2095 6.03125 8.75 6.575 9.15 7.25H15.4313C15.5313 7.25 15.6283 7.26875 15.7223 7.30625C15.8158 7.34375 15.9 7.4 15.975 7.475L17.475 8.975C17.55 9.05 17.6033 9.13125 17.6348 9.21875C17.6658 9.30625 17.6813 9.4 17.6813 9.5C17.6813 9.6 17.6658 9.69375 17.6348 9.78125C17.6033 9.86875 17.55 9.95 17.475 10.025L15.0938 12.4062C15.0313 12.4688 14.9563 12.5188 14.8688 12.5563C14.7813 12.5938 14.6938 12.6187 14.6063 12.6312C14.5188 12.6437 14.4313 12.6375 14.3438 12.6125C14.2563 12.5875 14.175 12.5438 14.1 12.4813L13.125 11.75L12.0563 12.5563C11.9938 12.6063 11.925 12.6438 11.85 12.6688C11.775 12.6938 11.7 12.7062 11.625 12.7062C11.55 12.7062 11.472 12.6938 11.391 12.6688C11.3095 12.6438 11.2375 12.6063 11.175 12.5563L10.0313 11.75H9.15C8.75 12.425 8.2095 12.9687 7.5285 13.3812C6.847 13.7937 6.0875 14 5.25 14ZM5.25 12.5C5.95 12.5 6.56575 12.2875 7.09725 11.8625C7.62825 11.4375 7.98125 10.9 8.15625 10.25H10.5L11.5875 11.0187L13.125 9.875L14.4563 10.9062L15.8625 9.5L15.1125 8.75H8.15625C7.98125 8.1 7.62825 7.5625 7.09725 7.1375C6.56575 6.7125 5.95 6.5 5.25 6.5C4.425 6.5 3.71875 6.79375 3.13125 7.38125C2.54375 7.96875 2.25 8.675 2.25 9.5C2.25 10.325 2.54375 11.0312 3.13125 11.6187C3.71875 12.2062 4.425 12.5 5.25 12.5Z" fill="currentColor"/>
</g>
</svg>