<svg width="12" height="12" viewBox="0 0 12 12" fill="none" xmlns="http://www.w3.org/2000/svg">
<mask id="mask0_62_517" style="mask-type:alpha" maskUnits="userSpaceOnUse" x="0" y="0" width="12" height="12">
<rect width="12" height="12" fill="#D9D9D9"/>
</mask>
<g mask="url(#mask0_62_517)">
<path d="M6 6C5.45 6 4.97917 5.80417 4.5875 5.4125C4.19583 5.02083 4 4.55 4 4C4 3.45 4.19583 2.97917 4.5875 2.5875C4.97917 2.19583 5.45 2 6 2C6.55 2 7.02083 2.19583 7.4125 2.5875C7.80417 2.97917 8 3.45 8 4C8 4.55 7.80417 5.02083 7.4125 5.4125C7.02083 5.80417 6.55 6 6 6ZM3 10C2.725 10 2.48967 9.90217 2.294 9.7065C2.098 9.5105 2 9.275 2 9V8.6C2 8.31667 2.073 8.05617 2.219 7.8185C2.36467 7.58117 2.55833 7.4 2.8 7.275C3.31667 7.01667 3.84167 6.82283 4.375 6.6935C4.90833 6.5645 5.45 6.5 6 6.5C6.55 6.5 7.09167 6.5645 7.625 6.6935C8.15833 6.82283 8.68333 7.01667 9.2 7.275C9.44167 7.4 9.63533 7.58117 9.781 7.8185C9.927 8.05617 10 8.31667 10 8.6V9C10 9.275 9.90217 9.5105 9.7065 9.7065C9.5105 9.90217 9.275 10 9 10H3Z" fill="white"/>
</g>
</svg>