<svg viewBox="0 0 24 24" fill="none" xmlns="http://www.w3.org/2000/svg">
<path d="M9.35 16.8C7.21667 16.5167 5.45833 15.9333 4.075 15.05C2.69167 14.1667 2 13.15 2 12C2 10.6167 2.9625 9.4375 4.8875 8.4625C6.8125 7.4875 9.18333 7 12 7C14.8167 7 17.1875 7.4875 19.1125 8.4625C21.0375 9.4375 22 10.6167 22 12C22 12.9333 21.5458 13.7792 20.6375 14.5375C19.7292 15.2958 18.525 15.8917 17.025 16.325C16.7583 16.4083 16.5208 16.3708 16.3125 16.2125C16.1042 16.0542 16 15.8417 16 15.575C16 15.275 16.0875 15.0083 16.2625 14.775C16.4375 14.5417 16.6667 14.375 16.95 14.275C17.95 13.9417 18.7083 13.5625 19.225 13.1375C19.7417 12.7125 20 12.3333 20 12C20 11.4667 19.2875 10.8333 17.8625 10.1C16.4375 9.36667 14.4833 9 12 9C9.51667 9 7.5625 9.36667 6.1375 10.1C4.7125 10.8333 4 11.4667 4 12C4 12.4 4.425 12.8792 5.275 13.4375C6.125 13.9958 7.33333 14.4167 8.9 14.7L8.3 14.1C8.11667 13.9167 8.025 13.6833 8.025 13.4C8.025 13.1167 8.11667 12.8833 8.3 12.7C8.48333 12.5167 8.71667 12.425 9 12.425C9.28333 12.425 9.51667 12.5167 9.7 12.7L12.3 15.3C12.5 15.5 12.6 15.7333 12.6 16C12.6 16.2667 12.5 16.5 12.3 16.7L9.7 19.3C9.51667 19.4833 9.2875 19.5792 9.0125 19.5875C8.7375 19.5958 8.5 19.5 8.3 19.3C8.11667 19.1167 8.02083 18.8875 8.0125 18.6125C8.00417 18.3375 8.09167 18.1 8.275 17.9L9.35 16.8Z" fill="currentColor"/>
</svg>