<svg width="19" height="19" viewBox="0 0 19 19" fill="none" xmlns="http://www.w3.org/2000/svg">
<mask id="mask0_52_1035" style="mask-type:alpha" maskUnits="userSpaceOnUse" x="0" y="0" width="19" height="19">
<rect x="0.5" y="0.5" width="18" height="18" fill="#D9D9D9"/>
</mask>
<g mask="url(#mask0_52_1035)">
<path d="M4.25 16.25C3.8375 16.25 3.48425 16.1033 3.19025 15.8097C2.89675 15.5157 2.75 15.1625 2.75 14.75V4.25C2.75 3.8375 2.89675 3.48425 3.19025 3.19025C3.48425 2.89675 3.8375 2.75 4.25 2.75H12.6312C12.8312 2.75 13.022 2.7875 13.2035 2.8625C13.3845 2.9375 13.5438 3.04375 13.6813 3.18125L15.8187 5.31875C15.9562 5.45625 16.0625 5.6155 16.1375 5.7965C16.2125 5.978 16.25 6.16875 16.25 6.36875V14.75C16.25 15.1625 16.1033 15.5157 15.8097 15.8097C15.5157 16.1033 15.1625 16.25 14.75 16.25H4.25ZM14.75 6.3875L12.6125 4.25H4.25V14.75H14.75V6.3875ZM9.5 14C10.125 14 10.6562 13.7812 11.0938 13.3438C11.5312 12.9062 11.75 12.375 11.75 11.75C11.75 11.125 11.5312 10.5938 11.0938 10.1562C10.6562 9.71875 10.125 9.5 9.5 9.5C8.875 9.5 8.34375 9.71875 7.90625 10.1562C7.46875 10.5938 7.25 11.125 7.25 11.75C7.25 12.375 7.46875 12.9062 7.90625 13.3438C8.34375 13.7812 8.875 14 9.5 14ZM5.75 8H11C11.2125 8 11.3907 7.928 11.5347 7.784C11.6783 7.6405 11.75 7.4625 11.75 7.25V5.75C11.75 5.5375 11.6783 5.35925 11.5347 5.21525C11.3907 5.07175 11.2125 5 11 5H5.75C5.5375 5 5.35925 5.07175 5.21525 5.21525C5.07175 5.35925 5 5.5375 5 5.75V7.25C5 7.4625 5.07175 7.6405 5.21525 7.784C5.35925 7.928 5.5375 8 5.75 8Z"/>
</g>
</svg>