<svg width="12" height="12" viewBox="0 0 12 12" fill="none" xmlns="http://www.w3.org/2000/svg">
<mask id="mask0_62_529" style="mask-type:alpha" maskUnits="userSpaceOnUse" x="0" y="0" width="12" height="12">
<rect width="12" height="12" fill="#D9D9D9"/>
</mask>
<g mask="url(#mask0_62_529)">
<path d="M3.3 1.5C3.825 1.5 4.325 1.61033 4.8 1.831C5.275 2.052 5.675 2.35833 6 2.75C6.325 2.35833 6.725 2.052 7.2 1.831C7.675 1.61033 8.175 1.5 8.7 1.5C9.63333 1.5 10.4167 1.81667 11.05 2.45C11.6833 3.08333 12 3.86667 12 4.8C12 5.11667 11.9583 5.42917 11.875 5.7375C11.7917 6.04583 11.675 6.35 11.525 6.65C11.4333 6.49167 11.325 6.35 11.2 6.225C11.075 6.1 10.9292 6 10.7625 5.925C10.8375 5.73333 10.8958 5.54583 10.9375 5.3625C10.9792 5.17917 11 4.99167 11 4.8C11 4.15 10.7792 3.60417 10.3375 3.1625C9.89583 2.72083 9.35 2.5 8.7 2.5C8.025 2.5 7.50633 2.68533 7.144 3.056C6.78133 3.427 6.4 3.84167 6 4.3C5.6 3.83333 5.21883 3.41667 4.8565 3.05C4.49383 2.68333 3.975 2.5 3.3 2.5C2.65 2.5 2.10417 2.72083 1.6625 3.1625C1.22083 3.60417 1 4.15 1 4.8C1 4.99167 1.02083 5.17917 1.0625 5.3625C1.10417 5.54583 1.1625 5.73333 1.2375 5.925C1.07083 6 0.925 6.1 0.8 6.225C0.675 6.35 0.566667 6.49167 0.475 6.65C0.325 6.35 0.208333 6.04583 0.125 5.7375C0.0416667 5.42917 0 5.11667 0 4.8C0 3.86667 0.316667 3.08333 0.95 2.45C1.58333 1.81667 2.36667 1.5 3.3 1.5ZM0.5 11C0.358333 11 0.239667 10.952 0.144 10.856C0.048 10.7603 0 10.6417 0 10.5V10.2125C0 9.84583 0.183333 9.55217 0.55 9.3315C0.916667 9.1105 1.4 9 2 9C2.10833 9 2.2105 9.00417 2.3065 9.0125C2.40217 9.02083 2.49583 9.03333 2.5875 9.05C2.47083 9.21667 2.38533 9.39583 2.331 9.5875C2.277 9.77917 2.25 9.98333 2.25 10.2V11H0.5ZM3.5 11C3.35833 11 3.2395 10.952 3.1435 10.856C3.04783 10.7603 3 10.6417 3 10.5V10.2C3 9.65833 3.27717 9.21867 3.8315 8.881C4.3855 8.54367 5.10833 8.375 6 8.375C6.9 8.375 7.625 8.54367 8.175 8.881C8.725 9.21867 9 9.65833 9 10.2V10.5C9 10.6417 8.952 10.7603 8.856 10.856C8.76033 10.952 8.64167 11 8.5 11H3.5ZM9.75 11V10.2C9.75 9.98333 9.72083 9.77917 9.6625 9.5875C9.60417 9.39583 9.52083 9.21667 9.4125 9.05C9.50417 9.03333 9.598 9.02083 9.694 9.0125C9.78967 9.00417 9.89167 9 10 9C10.6 9 11.0833 9.1105 11.45 9.3315C11.8167 9.55217 12 9.84583 12 10.2125V10.5C12 10.6417 11.952 10.7603 11.856 10.856C11.7603 10.952 11.6417 11 11.5 11H9.75ZM2 8.5C1.725 8.5 1.48967 8.40217 1.294 8.2065C1.098 8.0105 1 7.775 1 7.5C1 7.225 1.098 6.9895 1.294 6.7935C1.48967 6.59783 1.725 6.5 2 6.5C2.275 6.5 2.51033 6.59783 2.706 6.7935C2.902 6.9895 3 7.225 3 7.5C3 7.775 2.902 8.0105 2.706 8.2065C2.51033 8.40217 2.275 8.5 2 8.5ZM10 8.5C9.725 8.5 9.4895 8.40217 9.2935 8.2065C9.09783 8.0105 9 7.775 9 7.5C9 7.225 9.09783 6.9895 9.2935 6.7935C9.4895 6.59783 9.725 6.5 10 6.5C10.275 6.5 10.5105 6.59783 10.7065 6.7935C10.9022 6.9895 11 7.225 11 7.5C11 7.775 10.9022 8.0105 10.7065 8.2065C10.5105 8.40217 10.275 8.5 10 8.5ZM6 8C5.58333 8 5.22917 7.85417 4.9375 7.5625C4.64583 7.27083 4.5 6.91667 4.5 6.5C4.5 6.08333 4.64583 5.72917 4.9375 5.4375C5.22917 5.14583 5.58333 5 6 5C6.41667 5 6.77083 5.14583 7.0625 5.4375C7.35417 5.72917 7.5 6.08333 7.5 6.5C7.5 6.91667 7.35417 7.27083 7.0625 7.5625C6.77083 7.85417 6.41667 8 6 8Z" fill="white"/>
</g>
</svg>