<svg  viewBox="0 0 24 24" fill="none" xmlns="http://www.w3.org/2000/svg">
<mask id="mask0_52_959" style="mask-type:alpha" maskUnits="userSpaceOnUse" x="0" y="0" width="24" height="24">
<rect width="24" height="24" fill="#D9D9D9"/>
</mask>
<g mask="url(#mask0_52_959)">
<path d="M20 6H4V18H13V20H4C3.45 20 2.97933 19.8043 2.588 19.413C2.196 19.021 2 18.55 2 18V6C2 5.45 2.196 4.97933 2.588 4.588C2.97933 4.196 3.45 4 4 4H20C20.55 4 21.021 4.196 21.413 4.588C21.8043 4.97933 22 5.45 22 6V13H20V6ZM19.175 20H16C15.7167 20 15.4793 19.904 15.288 19.712C15.096 19.5207 15 19.2833 15 19C15 18.7167 15.096 18.4793 15.288 18.288C15.4793 18.096 15.7167 18 16 18H19.175L18.275 17.1C18.075 16.9 17.9793 16.6667 17.988 16.4C17.996 16.1333 18.1 15.9 18.3 15.7C18.5 15.5167 18.7333 15.4207 19 15.412C19.2667 15.404 19.5 15.5 19.7 15.7L22.3 18.3C22.5 18.5 22.6 18.7333 22.6 19C22.6 19.2667 22.5 19.5 22.3 19.7L19.7 22.3C19.5167 22.4833 19.2877 22.579 19.013 22.587C18.7377 22.5957 18.5 22.5 18.3 22.3C18.1167 22.1167 18.025 21.8833 18.025 21.6C18.025 21.3167 18.1167 21.0833 18.3 20.9L19.175 20ZM4 6V18V13V13.075V6ZM12 11L20 6V8L12.525 12.675C12.3583 12.775 12.1833 12.825 12 12.825C11.8167 12.825 11.6417 12.775 11.475 12.675L4 8V6L12 11Z" fill="white"/>
</g>
</svg>