<svg viewBox="0 0 24 25" xmlns="http://www.w3.org/2000/svg">
<g clip-path="url(#clip0_63_592)">
<path d="M12 7.6311C11.3606 7.6311 10.7275 7.75704 10.1367 8.00173C9.54599 8.24642 9.00924 8.60507 8.55711 9.0572C8.10498 9.50933 7.74633 10.0461 7.50164 10.6368C7.25695 11.2276 7.13101 11.8607 7.13101 12.5001C7.13101 13.1395 7.25695 13.7727 7.50164 14.3634C7.74633 14.9541 8.10498 15.4909 8.55711 15.943C9.00924 16.3951 9.54599 16.7538 10.1367 16.9985C10.7275 17.2432 11.3606 17.3691 12 17.3691C13.2914 17.3691 14.5298 16.8561 15.4429 15.943C16.356 15.0299 16.869 13.7914 16.869 12.5001C16.869 11.2088 16.356 9.97032 15.4429 9.0572C14.5298 8.14409 13.2914 7.6311 12 7.6311V7.6311ZM8.63101 12.5001C8.63101 11.6066 8.98596 10.7497 9.61777 10.1179C10.2496 9.48605 11.1065 9.1311 12 9.1311C12.8935 9.1311 13.7504 9.48605 14.3823 10.1179C15.0141 10.7497 15.369 11.6066 15.369 12.5001C15.369 13.3936 15.0141 14.2505 14.3823 14.8823C13.7504 15.5142 12.8935 15.8691 12 15.8691C11.1065 15.8691 10.2496 15.5142 9.61777 14.8823C8.98596 14.2505 8.63101 13.3936 8.63101 12.5001Z"/>
<mask id="path-2-inside-1_63_592" fill="white">
<path d="M14.694 2.51448C13.9035 -0.170518 10.0965 -0.170518 9.30601 2.51448L9.16501 2.99298C9.10981 3.18041 9.01336 3.35311 8.88274 3.49842C8.75212 3.64373 8.59063 3.75797 8.41012 3.83276C8.22962 3.90755 8.03466 3.941 7.83954 3.93066C7.64443 3.92032 7.4541 3.86644 7.28251 3.77298L6.84451 3.53298C4.38451 2.19498 1.69501 4.88598 3.03451 7.34448L3.27301 7.78248C3.36647 7.95407 3.42035 8.1444 3.43069 8.33951C3.44103 8.53463 3.40758 8.72959 3.33279 8.91009C3.258 9.0906 3.14376 9.25209 2.99845 9.38271C2.85314 9.51333 2.68044 9.60978 2.49301 9.66498L2.01451 9.80598C-0.670487 10.5965 -0.670487 14.4035 2.01451 15.194L2.49301 15.335C2.68044 15.3902 2.85314 15.4866 2.99845 15.6173C3.14376 15.7479 3.258 15.9094 3.33279 16.0899C3.40758 16.2704 3.44103 16.4653 3.43069 16.6605C3.42035 16.8556 3.36647 17.0459 3.27301 17.2175L3.03301 17.6555C1.69501 20.1155 4.38451 22.8065 6.84451 21.4655L7.28251 21.227C7.4541 21.1335 7.64443 21.0796 7.83954 21.0693C8.03466 21.059 8.22962 21.0924 8.41012 21.1672C8.59063 21.242 8.75212 21.3562 8.88274 21.5015C9.01336 21.6469 9.10981 21.8196 9.16501 22.007L9.30601 22.4855C10.0965 25.1705 13.9035 25.1705 14.694 22.4855L14.835 22.007C14.8902 21.8196 14.9867 21.6469 15.1173 21.5015C15.2479 21.3562 15.4094 21.242 15.5899 21.1672C15.7704 21.0924 15.9654 21.059 16.1605 21.0693C16.3556 21.0796 16.5459 21.1335 16.7175 21.227L17.1555 21.467C19.6155 22.8065 22.3065 20.114 20.9655 17.6555L20.727 17.2175C20.6336 17.0459 20.5797 16.8556 20.5693 16.6605C20.559 16.4653 20.5924 16.2704 20.6672 16.0899C20.742 15.9094 20.8563 15.7479 21.0016 15.6173C21.1469 15.4866 21.3196 15.3902 21.507 15.335L21.9855 15.194C24.6705 14.4035 24.6705 10.5965 21.9855 9.80598L21.507 9.66498C21.3196 9.60978 21.1469 9.51333 21.0016 9.38271C20.8563 9.25209 20.742 9.0906 20.6672 8.91009C20.5924 8.72959 20.559 8.53463 20.5693 8.33951C20.5797 8.1444 20.6336 7.95407 20.727 7.78248L20.967 7.34448C22.3065 4.88448 19.614 2.19498 17.1555 3.53448L16.7175 3.77298C16.5459 3.86644 16.3556 3.92032 16.1605 3.93066C15.9654 3.941 15.7704 3.90755 15.5899 3.83276C15.4094 3.75797 15.2479 3.64373 15.1173 3.49842C14.9867 3.35311 14.8902 3.18041 14.835 2.99298L14.694 2.51448V2.51448ZM10.7445 2.93898C11.1135 1.68648 12.8865 1.68648 13.2555 2.93898L13.3965 3.41748C13.515 3.81961 13.7221 4.19011 14.0024 4.50183C14.2827 4.81355 14.6293 5.05858 15.0166 5.21895C15.404 5.37933 15.8223 5.45098 16.2409 5.42867C16.6596 5.40635 17.0679 5.29063 17.436 5.08998L17.8725 4.84998C19.0185 4.22748 20.2725 5.47998 19.6485 6.62748L19.41 7.06548C19.2097 7.43362 19.0942 7.84192 19.0722 8.26047C19.0501 8.67901 19.1219 9.09719 19.2824 9.48436C19.4429 9.87153 19.688 10.2179 19.9998 10.498C20.3115 10.7782 20.682 10.9851 21.084 11.1035L21.561 11.2445C22.8135 11.6135 22.8135 13.3865 21.561 13.7555L21.0825 13.8965C20.6804 14.015 20.3099 14.222 19.9982 14.5024C19.6864 14.7827 19.4414 15.1293 19.281 15.5166C19.1207 15.9039 19.049 16.3223 19.0713 16.7409C19.0936 17.1595 19.2094 17.5679 19.41 17.936L19.65 18.3725C20.2725 19.5185 19.02 20.7725 17.8725 20.1485L17.436 19.91C17.0678 19.7094 16.6594 19.5937 16.2407 19.5715C15.8219 19.5492 15.4036 19.621 15.0162 19.7816C14.6288 19.9421 14.2823 20.1873 14.002 20.4992C13.7218 20.8111 13.5149 21.1817 13.3965 21.584L13.2555 22.061C12.8865 23.3135 11.1135 23.3135 10.7445 22.061L10.6035 21.5825C10.4849 21.1806 10.2779 20.8103 9.99771 20.4987C9.71748 20.1871 9.3711 19.9422 8.98395 19.7819C8.5968 19.6215 8.17868 19.5498 7.76022 19.572C7.34176 19.5941 6.93355 19.7096 6.56551 19.91L6.12751 20.15C4.98151 20.7725 3.72751 19.52 4.35151 18.3725L4.59001 17.936C4.79094 17.5678 4.90689 17.1594 4.92935 16.7405C4.95182 16.3217 4.88022 15.9032 4.71983 15.5156C4.55943 15.1281 4.3143 14.7814 4.00243 14.501C3.69056 14.2205 3.31985 14.0135 2.91751 13.895L2.43901 13.754C1.18651 13.385 1.18651 11.612 2.43901 11.243L2.91751 11.102C3.31922 10.9833 3.68932 10.7764 4.00073 10.4963C4.31213 10.2161 4.55696 9.86992 4.71729 9.48297C4.87763 9.09601 4.94941 8.67809 4.92739 8.25981C4.90536 7.84153 4.79009 7.43347 4.59001 7.06548L4.35001 6.62748C3.72751 5.48148 4.98001 4.22748 6.12751 4.85148L6.56551 5.08998C6.93355 5.29035 7.34176 5.40584 7.76022 5.42801C8.17868 5.45018 8.5968 5.37846 8.98395 5.21811C9.3711 5.05775 9.71748 4.81282 9.99771 4.50126C10.2779 4.1897 10.4849 3.8194 10.6035 3.41748L10.7445 2.93898V2.93898Z"/>
</mask>
<path d="M14.694 2.51448C13.9035 -0.170518 10.0965 -0.170518 9.30601 2.51448L9.16501 2.99298C9.10981 3.18041 9.01336 3.35311 8.88274 3.49842C8.75212 3.64373 8.59063 3.75797 8.41012 3.83276C8.22962 3.90755 8.03466 3.941 7.83954 3.93066C7.64443 3.92032 7.4541 3.86644 7.28251 3.77298L6.84451 3.53298C4.38451 2.19498 1.69501 4.88598 3.03451 7.34448L3.27301 7.78248C3.36647 7.95407 3.42035 8.1444 3.43069 8.33951C3.44103 8.53463 3.40758 8.72959 3.33279 8.91009C3.258 9.0906 3.14376 9.25209 2.99845 9.38271C2.85314 9.51333 2.68044 9.60978 2.49301 9.66498L2.01451 9.80598C-0.670487 10.5965 -0.670487 14.4035 2.01451 15.194L2.49301 15.335C2.68044 15.3902 2.85314 15.4866 2.99845 15.6173C3.14376 15.7479 3.258 15.9094 3.33279 16.0899C3.40758 16.2704 3.44103 16.4653 3.43069 16.6605C3.42035 16.8556 3.36647 17.0459 3.27301 17.2175L3.03301 17.6555C1.69501 20.1155 4.38451 22.8065 6.84451 21.4655L7.28251 21.227C7.4541 21.1335 7.64443 21.0796 7.83954 21.0693C8.03466 21.059 8.22962 21.0924 8.41012 21.1672C8.59063 21.242 8.75212 21.3562 8.88274 21.5015C9.01336 21.6469 9.10981 21.8196 9.16501 22.007L9.30601 22.4855C10.0965 25.1705 13.9035 25.1705 14.694 22.4855L14.835 22.007C14.8902 21.8196 14.9867 21.6469 15.1173 21.5015C15.2479 21.3562 15.4094 21.242 15.5899 21.1672C15.7704 21.0924 15.9654 21.059 16.1605 21.0693C16.3556 21.0796 16.5459 21.1335 16.7175 21.227L17.1555 21.467C19.6155 22.8065 22.3065 20.114 20.9655 17.6555L20.727 17.2175C20.6336 17.0459 20.5797 16.8556 20.5693 16.6605C20.559 16.4653 20.5924 16.2704 20.6672 16.0899C20.742 15.9094 20.8563 15.7479 21.0016 15.6173C21.1469 15.4866 21.3196 15.3902 21.507 15.335L21.9855 15.194C24.6705 14.4035 24.6705 10.5965 21.9855 9.80598L21.507 9.66498C21.3196 9.60978 21.1469 9.51333 21.0016 9.38271C20.8563 9.25209 20.742 9.0906 20.6672 8.91009C20.5924 8.72959 20.559 8.53463 20.5693 8.33951C20.5797 8.1444 20.6336 7.95407 20.727 7.78248L20.967 7.34448C22.3065 4.88448 19.614 2.19498 17.1555 3.53448L16.7175 3.77298C16.5459 3.86644 16.3556 3.92032 16.1605 3.93066C15.9654 3.941 15.7704 3.90755 15.5899 3.83276C15.4094 3.75797 15.2479 3.64373 15.1173 3.49842C14.9867 3.35311 14.8902 3.18041 14.835 2.99298L14.694 2.51448V2.51448ZM10.7445 2.93898C11.1135 1.68648 12.8865 1.68648 13.2555 2.93898L13.3965 3.41748C13.515 3.81961 13.7221 4.19011 14.0024 4.50183C14.2827 4.81355 14.6293 5.05858 15.0166 5.21895C15.404 5.37933 15.8223 5.45098 16.2409 5.42867C16.6596 5.40635 17.0679 5.29063 17.436 5.08998L17.8725 4.84998C19.0185 4.22748 20.2725 5.47998 19.6485 6.62748L19.41 7.06548C19.2097 7.43362 19.0942 7.84192 19.0722 8.26047C19.0501 8.67901 19.1219 9.09719 19.2824 9.48436C19.4429 9.87153 19.688 10.2179 19.9998 10.498C20.3115 10.7782 20.682 10.9851 21.084 11.1035L21.561 11.2445C22.8135 11.6135 22.8135 13.3865 21.561 13.7555L21.0825 13.8965C20.6804 14.015 20.3099 14.222 19.9982 14.5024C19.6864 14.7827 19.4414 15.1293 19.281 15.5166C19.1207 15.9039 19.049 16.3223 19.0713 16.7409C19.0936 17.1595 19.2094 17.5679 19.41 17.936L19.65 18.3725C20.2725 19.5185 19.02 20.7725 17.8725 20.1485L17.436 19.91C17.0678 19.7094 16.6594 19.5937 16.2407 19.5715C15.8219 19.5492 15.4036 19.621 15.0162 19.7816C14.6288 19.9421 14.2823 20.1873 14.002 20.4992C13.7218 20.8111 13.5149 21.1817 13.3965 21.584L13.2555 22.061C12.8865 23.3135 11.1135 23.3135 10.7445 22.061L10.6035 21.5825C10.4849 21.1806 10.2779 20.8103 9.99771 20.4987C9.71748 20.1871 9.3711 19.9422 8.98395 19.7819C8.5968 19.6215 8.17868 19.5498 7.76022 19.572C7.34176 19.5941 6.93355 19.7096 6.56551 19.91L6.12751 20.15C4.98151 20.7725 3.72751 19.52 4.35151 18.3725L4.59001 17.936C4.79094 17.5678 4.90689 17.1594 4.92935 16.7405C4.95182 16.3217 4.88022 15.9032 4.71983 15.5156C4.55943 15.1281 4.3143 14.7814 4.00243 14.501C3.69056 14.2205 3.31985 14.0135 2.91751 13.895L2.43901 13.754C1.18651 13.385 1.18651 11.612 2.43901 11.243L2.91751 11.102C3.31922 10.9833 3.68932 10.7764 4.00073 10.4963C4.31213 10.2161 4.55696 9.86992 4.71729 9.48297C4.87763 9.09601 4.94941 8.67809 4.92739 8.25981C4.90536 7.84153 4.79009 7.43347 4.59001 7.06548L4.35001 6.62748C3.72751 5.48148 4.98001 4.22748 6.12751 4.85148L6.56551 5.08998C6.93355 5.29035 7.34176 5.40584 7.76022 5.42801C8.17868 5.45018 8.5968 5.37846 8.98395 5.21811C9.3711 5.05775 9.71748 4.81282 9.99771 4.50126C10.2779 4.1897 10.4849 3.8194 10.6035 3.41748L10.7445 2.93898V2.93898Z"  stroke-width="2" mask="url(#path-2-inside-1_63_592)"/>
</g>
<defs>
<clipPath id="clip0_63_592">
<rect width="24" height="24" fill="white" transform="translate(0 0.5)"/>
</clipPath>
</defs>
</svg>