<svg width="22" height="23" viewBox="0 0 22 23" fill="none" xmlns="http://www.w3.org/2000/svg">
<mask id="mask0_108_128" style="mask-type:alpha" maskUnits="userSpaceOnUse" x="0" y="0" width="22" height="23">
<rect y="0.5" width="22" height="22" fill="#D9D9D9"/>
</mask>
<g mask="url(#mask0_108_128)">
<path d="M12.7187 20.6668H9.28123C9.05207 20.6668 8.85346 20.5904 8.6854 20.4377C8.51734 20.2849 8.41804 20.0939 8.38748 19.8647L8.11248 17.7335C7.91387 17.6571 7.72687 17.5654 7.55148 17.4585C7.37548 17.3516 7.20346 17.237 7.0354 17.1147L5.04165 17.9397C4.82776 18.0161 4.61387 18.0238 4.39998 17.9627C4.18609 17.9016 4.01804 17.7717 3.89582 17.5731L2.19998 14.6168C2.07776 14.4182 2.03957 14.2043 2.0854 13.9752C2.13123 13.746 2.24582 13.5627 2.42915 13.4252L4.1479 12.1189C4.13262 12.012 4.12498 11.9087 4.12498 11.8091V11.1903C4.12498 11.0913 4.13262 10.9884 4.1479 10.8814L2.42915 9.57516C2.24582 9.43766 2.13123 9.25433 2.0854 9.02516C2.03957 8.796 2.07776 8.58211 2.19998 8.3835L3.89582 5.42725C4.00276 5.21336 4.16684 5.07952 4.38807 5.02575C4.6099 4.97258 4.82776 4.98419 5.04165 5.06058L7.0354 5.88558C7.20346 5.76336 7.37915 5.64877 7.56248 5.54183C7.74582 5.43489 7.92915 5.34322 8.11248 5.26683L8.38748 3.13558C8.41804 2.90641 8.51734 2.71544 8.6854 2.56266C8.85346 2.40988 9.05207 2.3335 9.28123 2.3335H12.7187C12.9479 2.3335 13.1465 2.40988 13.3146 2.56266C13.4826 2.71544 13.5819 2.90641 13.6125 3.13558L13.8875 5.26683C14.0861 5.34322 14.2734 5.43489 14.4494 5.54183C14.6248 5.64877 14.7965 5.76336 14.9646 5.88558L16.9583 5.06058C17.1722 4.98419 17.3861 4.97655 17.6 5.03766C17.8139 5.09877 17.9819 5.22864 18.1041 5.42725L19.8 8.3835C19.9222 8.58211 19.9604 8.796 19.9146 9.02516C19.8687 9.25433 19.7542 9.43766 19.5708 9.57516L17.8521 10.8814C17.8673 10.9884 17.875 11.0913 17.875 11.1903V11.8091C17.875 11.9087 17.8597 12.012 17.8292 12.1189L19.5479 13.4252C19.7312 13.5627 19.8458 13.746 19.8917 13.9752C19.9375 14.2043 19.8993 14.4182 19.7771 14.6168L18.0812 17.5502C17.959 17.7488 17.7873 17.8826 17.5661 17.9517C17.3442 18.0201 17.1264 18.0161 16.9125 17.9397L14.9646 17.1147C14.7965 17.237 14.6208 17.3516 14.4375 17.4585C14.2542 17.5654 14.0708 17.6571 13.8875 17.7335L13.6125 19.8647C13.5819 20.0939 13.4826 20.2849 13.3146 20.4377C13.1465 20.5904 12.9479 20.6668 12.7187 20.6668ZM11.0458 14.7085C11.9319 14.7085 12.6882 14.3953 13.3146 13.7689C13.941 13.1425 14.2542 12.3863 14.2542 11.5002C14.2542 10.6141 13.941 9.8578 13.3146 9.23141C12.6882 8.60502 11.9319 8.29183 11.0458 8.29183C10.1444 8.29183 9.38421 8.60502 8.76515 9.23141C8.14671 9.8578 7.83748 10.6141 7.83748 11.5002C7.83748 12.3863 8.14671 13.1425 8.76515 13.7689C9.38421 14.3953 10.1444 14.7085 11.0458 14.7085ZM11.0458 12.8752C10.6639 12.8752 10.3394 12.7413 10.0723 12.4737C9.80465 12.2066 9.67082 11.8821 9.67082 11.5002C9.67082 11.1182 9.80465 10.7937 10.0723 10.5267C10.3394 10.259 10.6639 10.1252 11.0458 10.1252C11.4278 10.1252 11.7526 10.259 12.0202 10.5267C12.2873 10.7937 12.4208 11.1182 12.4208 11.5002C12.4208 11.8821 12.2873 12.2066 12.0202 12.4737C11.7526 12.7413 11.4278 12.8752 11.0458 12.8752ZM10.0833 18.8335H11.8937L12.2146 16.4043C12.6882 16.2821 13.1276 16.1024 13.5327 15.8653C13.9373 15.6288 14.3076 15.3425 14.6437 15.0064L16.9125 15.946L17.8062 14.3877L15.8354 12.8981C15.9118 12.6842 15.9653 12.4587 15.9958 12.2216C16.0264 11.9851 16.0417 11.7446 16.0417 11.5002C16.0417 11.2557 16.0264 11.0149 15.9958 10.7778C15.9653 10.5413 15.9118 10.3161 15.8354 10.1022L17.8062 8.61266L16.9125 7.05433L14.6437 8.01683C14.3076 7.66544 13.9373 7.37119 13.5327 7.13408C13.1276 6.89758 12.6882 6.71822 12.2146 6.596L11.9167 4.16683H10.1062L9.7854 6.596C9.31179 6.71822 8.87271 6.89758 8.46815 7.13408C8.06298 7.37119 7.69234 7.6578 7.35623 7.99391L5.08748 7.05433L4.19373 8.61266L6.16457 10.0793C6.08818 10.3085 6.03471 10.5377 6.00415 10.7668C5.97359 10.996 5.95832 11.2404 5.95832 11.5002C5.95832 11.7446 5.97359 11.9814 6.00415 12.2106C6.03471 12.4397 6.08818 12.6689 6.16457 12.8981L4.19373 14.3877L5.08748 15.946L7.35623 14.9835C7.69234 15.3349 8.06298 15.6288 8.46815 15.8653C8.87271 16.1024 9.31179 16.2821 9.7854 16.4043L10.0833 18.8335Z" fill="white"/>
</g>
</svg>