<svg width="25" height="25" viewBox="0 0 25 25" fill="none" xmlns="http://www.w3.org/2000/svg">
<path d="M16.3334 16.6752L19.2084 13.8002C19.4084 13.6002 19.6417 13.496 19.9084 13.4877C20.175 13.4794 20.4084 13.5752 20.6084 13.7752C20.8084 13.9752 20.9084 14.2127 20.9084 14.4877C20.9084 14.7627 20.8084 15.0002 20.6084 15.2002L16.0334 19.8002C15.9334 19.9002 15.825 19.971 15.7084 20.0127C15.5917 20.0544 15.4667 20.0752 15.3334 20.0752C15.2 20.0752 15.075 20.0544 14.9584 20.0127C14.8417 19.971 14.7334 19.9002 14.6334 19.8002L10.0084 15.1752C9.80837 14.9752 9.71254 14.7419 9.72087 14.4752C9.72921 14.2085 9.83337 13.9752 10.0334 13.7752C10.2334 13.5919 10.4667 13.496 10.7334 13.4877C11 13.4794 11.2334 13.5752 11.4334 13.7752L14.3334 16.6752L14.3334 7.5002L5.33337 7.5002C5.05004 7.5002 4.81254 7.40436 4.62087 7.2127C4.42921 7.02103 4.33337 6.78353 4.33337 6.5002C4.33337 6.21686 4.42921 5.97936 4.62087 5.78769C4.81254 5.59603 5.05004 5.5002 5.33337 5.5002L14.3334 5.5002C14.8834 5.5002 15.3542 5.69603 15.7459 6.0877C16.1375 6.47936 16.3334 6.9502 16.3334 7.5002L16.3334 16.6752Z" />
</svg>
