<svg width="24" height="24" viewBox="0 0 24 24" fill="none" xmlns="http://www.w3.org/2000/svg">
<mask id="mask0_725_934" style="mask-type:alpha" maskUnits="userSpaceOnUse" x="0" y="0" width="24" height="24">
<rect width="24" height="24" fill="#D9D9D9"/>
</mask>
<g mask="url(#mask0_725_934)">
<path d="M10.475 22C10.0084 22 9.57085 21.9 9.16252 21.7C8.75419 21.5 8.40835 21.2167 8.12502 20.85L3.10002 14.475C2.96669 14.325 2.90835 14.1458 2.92502 13.9375C2.94169 13.7292 3.01669 13.5583 3.15002 13.425C3.48335 13.075 3.88335 12.8667 4.35002 12.8C4.81669 12.7333 5.25002 12.825 5.65002 13.075L7.50002 14.2V6C7.50002 5.71667 7.59585 5.47917 7.78752 5.2875C7.97919 5.09583 8.21669 5 8.50002 5C8.78335 5 9.02502 5.09583 9.22502 5.2875C9.42502 5.47917 9.52502 5.71667 9.52502 6V16C9.52502 16.3833 9.35419 16.6708 9.01252 16.8625C8.67085 17.0542 8.33335 17.05 8.00002 16.85L7.10002 16.3L9.70002 19.625C9.80002 19.7417 9.91669 19.8333 10.05 19.9C10.1834 19.9667 10.325 20 10.475 20H16C16.55 20 17.0209 19.8042 17.4125 19.4125C17.8042 19.0208 18 18.55 18 18V14C18 13.7167 17.9042 13.4792 17.7125 13.2875C17.5209 13.0958 17.2834 13 17 13H12.525C12.2417 13 12.0042 12.9042 11.8125 12.7125C11.6209 12.5208 11.525 12.2833 11.525 12C11.525 11.7167 11.6209 11.4792 11.8125 11.2875C12.0042 11.0958 12.2417 11 12.525 11H17C17.8334 11 18.5417 11.2917 19.125 11.875C19.7084 12.4583 20 13.1667 20 14V18C20 19.1 19.6084 20.0417 18.825 20.825C18.0417 21.6083 17.1 22 16 22H10.475ZM11.975 9C11.6917 9 11.4542 8.90417 11.2625 8.7125C11.0709 8.52083 10.975 8.28333 10.975 8C10.975 7.96667 11.0167 7.8 11.1 7.5C11.2334 7.26667 11.3334 7.02917 11.4 6.7875C11.4667 6.54583 11.5 6.28333 11.5 6C11.5 5.16667 11.2084 4.45833 10.625 3.875C10.0417 3.29167 9.33335 3 8.50002 3C7.66669 3 6.95835 3.29167 6.37502 3.875C5.79169 4.45833 5.50002 5.16667 5.50002 6C5.50002 6.28333 5.53335 6.54583 5.60002 6.7875C5.66669 7.02917 5.76669 7.26667 5.90002 7.5C5.95002 7.58333 5.98335 7.66667 6.00002 7.75C6.01669 7.83333 6.02502 7.91667 6.02502 8C6.02502 8.28333 5.93335 8.52083 5.75002 8.7125C5.56669 8.90417 5.33335 9 5.05002 9C4.86669 9 4.69585 8.95 4.53752 8.85C4.37919 8.75 4.25835 8.625 4.17502 8.475C3.95835 8.10833 3.79169 7.71667 3.67502 7.3C3.55835 6.88333 3.50002 6.45 3.50002 6C3.50002 4.61667 3.98752 3.4375 4.96252 2.4625C5.93752 1.4875 7.11669 1 8.50002 1C9.88335 1 11.0625 1.4875 12.0375 2.4625C13.0125 3.4375 13.5 4.61667 13.5 6C13.5 6.45 13.4417 6.88333 13.325 7.3C13.2084 7.71667 13.0417 8.10833 12.825 8.475C12.7417 8.625 12.625 8.75 12.475 8.85C12.325 8.95 12.1584 9 11.975 9Z" fill="white"/>
</g>
</svg>