<svg width="17" height="16" viewBox="0 0 17 16" fill="none" xmlns="http://www.w3.org/2000/svg">
<mask id="mask0_71_209" style="mask-type:alpha" maskUnits="userSpaceOnUse" x="0" y="0" width="17" height="16">
<rect x="0.5" width="16" height="16" fill="#D9D9D9"/>
</mask>
<g mask="url(#mask0_71_209)">
<path d="M8.49987 10.6667C9.3332 10.6667 10.0416 10.3751 10.6252 9.79201C11.2083 9.20845 11.4999 8.50001 11.4999 7.66667C11.4999 6.83334 11.2083 6.12489 10.6252 5.54134C10.0416 4.95823 9.3332 4.66667 8.49987 4.66667C7.66654 4.66667 6.95809 4.95823 6.37454 5.54134C5.79143 6.12489 5.49987 6.83334 5.49987 7.66667C5.49987 8.50001 5.79143 9.20845 6.37454 9.79201C6.95809 10.3751 7.66654 10.6667 8.49987 10.6667ZM8.49987 9.46667C7.99987 9.46667 7.57498 9.29156 7.2252 8.94134C6.87498 8.59156 6.69987 8.16667 6.69987 7.66667C6.69987 7.16667 6.87498 6.74156 7.2252 6.39134C7.57498 6.04156 7.99987 5.86667 8.49987 5.86667C8.99987 5.86667 9.42498 6.04156 9.7752 6.39134C10.125 6.74156 10.2999 7.16667 10.2999 7.66667C10.2999 8.16667 10.125 8.59156 9.7752 8.94134C9.42498 9.29156 8.99987 9.46667 8.49987 9.46667ZM8.49987 12.6667C6.95543 12.6667 5.54431 12.2584 4.26654 11.442C2.98876 10.6251 2.02209 9.52223 1.36654 8.13334C1.3332 8.07778 1.31098 8.00823 1.29987 7.92467C1.28876 7.84156 1.2832 7.75556 1.2832 7.66667C1.2832 7.57778 1.28876 7.49156 1.29987 7.40801C1.31098 7.32489 1.3332 7.25556 1.36654 7.20001C2.02209 5.81112 2.98876 4.70845 4.26654 3.892C5.54431 3.07512 6.95543 2.66667 8.49987 2.66667C10.0443 2.66667 11.4554 3.07512 12.7332 3.892C14.011 4.70845 14.9776 5.81112 15.6332 7.20001C15.6665 7.25556 15.6888 7.32489 15.6999 7.40801C15.711 7.49156 15.7165 7.57778 15.7165 7.66667C15.7165 7.75556 15.711 7.84156 15.6999 7.92467C15.6888 8.00823 15.6665 8.07778 15.6332 8.13334C14.9776 9.52223 14.011 10.6251 12.7332 11.442C11.4554 12.2584 10.0443 12.6667 8.49987 12.6667ZM8.49987 11.3333C9.75543 11.3333 10.9083 11.0027 11.9585 10.3413C13.0083 9.68045 13.811 8.78889 14.3665 7.66667C13.811 6.54445 13.0083 5.65267 11.9585 4.99134C10.9083 4.33045 9.75543 4.00001 8.49987 4.00001C7.24431 4.00001 6.09143 4.33045 5.0412 4.99134C3.99143 5.65267 3.18876 6.54445 2.6332 7.66667C3.18876 8.78889 3.99143 9.68045 5.0412 10.3413C6.09143 11.0027 7.24431 11.3333 8.49987 11.3333Z" fill="white"/>
</g>
</svg>