<svg viewBox="0 0 25 25" fill="none" xmlns="http://www.w3.org/2000/svg">
<mask id="mask0_906_1499" style="mask-type:alpha" maskUnits="userSpaceOnUse" x="0" y="0" width="25" height="25">
<rect x="0.478394" y="0.890381" width="24" height="24" fill="#D9D9D9"/>
</mask>
<g mask="url(#mask0_906_1499)">
<path d="M12.4784 17.8904C12.7617 17.8904 12.9992 17.7945 13.1909 17.6029C13.3826 17.4112 13.4784 17.1737 13.4784 16.8904C13.4784 16.607 13.3826 16.3695 13.1909 16.1779C12.9992 15.9862 12.7617 15.8904 12.4784 15.8904C12.1951 15.8904 11.9576 15.9862 11.7659 16.1779C11.5742 16.3695 11.4784 16.607 11.4784 16.8904C11.4784 17.1737 11.5742 17.4112 11.7659 17.6029C11.9576 17.7945 12.1951 17.8904 12.4784 17.8904ZM12.4784 13.8904C12.7617 13.8904 12.9992 13.7945 13.1909 13.6029C13.3826 13.4112 13.4784 13.1737 13.4784 12.8904V8.89038C13.4784 8.60705 13.3826 8.36955 13.1909 8.17788C12.9992 7.98621 12.7617 7.89038 12.4784 7.89038C12.1951 7.89038 11.9576 7.98621 11.7659 8.17788C11.5742 8.36955 11.4784 8.60705 11.4784 8.89038V12.8904C11.4784 13.1737 11.5742 13.4112 11.7659 13.6029C11.9576 13.7945 12.1951 13.8904 12.4784 13.8904ZM9.12839 20.8904H6.47839C5.92839 20.8904 5.45756 20.6945 5.06589 20.3029C4.67423 19.9112 4.47839 19.4404 4.47839 18.8904V16.2404L2.55339 14.2904C2.37006 14.0904 2.22839 13.8695 2.12839 13.6279C2.02839 13.3862 1.97839 13.1404 1.97839 12.8904C1.97839 12.6404 2.02839 12.3945 2.12839 12.1529C2.22839 11.9112 2.37006 11.6904 2.55339 11.4904L4.47839 9.54038V6.89038C4.47839 6.34038 4.67423 5.86955 5.06589 5.47788C5.45756 5.08621 5.92839 4.89038 6.47839 4.89038H9.12839L11.0784 2.96538C11.2784 2.78205 11.4992 2.64038 11.7409 2.54038C11.9826 2.44038 12.2284 2.39038 12.4784 2.39038C12.7284 2.39038 12.9742 2.44038 13.2159 2.54038C13.4576 2.64038 13.6784 2.78205 13.8784 2.96538L15.8284 4.89038H18.4784C19.0284 4.89038 19.4992 5.08621 19.8909 5.47788C20.2826 5.86955 20.4784 6.34038 20.4784 6.89038V9.54038L22.4034 11.4904C22.5867 11.6904 22.7284 11.9112 22.8284 12.1529C22.9284 12.3945 22.9784 12.6404 22.9784 12.8904C22.9784 13.1404 22.9284 13.3862 22.8284 13.6279C22.7284 13.8695 22.5867 14.0904 22.4034 14.2904L20.4784 16.2404V18.8904C20.4784 19.4404 20.2826 19.9112 19.8909 20.3029C19.4992 20.6945 19.0284 20.8904 18.4784 20.8904H15.8284L13.8784 22.8154C13.6784 22.9987 13.4576 23.1404 13.2159 23.2404C12.9742 23.3404 12.7284 23.3904 12.4784 23.3904C12.2284 23.3904 11.9826 23.3404 11.7409 23.2404C11.4992 23.1404 11.2784 22.9987 11.0784 22.8154L9.12839 20.8904ZM9.97839 18.8904L12.4784 21.3904L14.9784 18.8904H18.4784V15.3904L20.9784 12.8904L18.4784 10.3904V6.89038H14.9784L12.4784 4.39038L9.97839 6.89038H6.47839V10.3904L3.97839 12.8904L6.47839 15.3904V18.8904H9.97839Z" fill="currentColor"/>
</g>
</svg>
