<svg width="184" height="29" viewBox="0 0 184 29" xmlns="http://www.w3.org/2000/svg">
<style>

    html.dark path {
        fill: white;
    }
</style>
<path d="M25.2394 7.41908H20.3887C20.8356 6.69541 21.0985 5.83647 21.0985 4.91667C21.0985 2.34324 19.0643 0.25 16.5633 0.25C15.2028 0.25 13.977 0.872222 13.1455 1.8529C12.3141 0.872222 11.0882 0.25 9.72768 0.25C7.22675 0.25 5.19248 2.34324 5.19248 4.91667C5.19248 5.83647 5.4521 6.69541 5.90234 7.41908H1.05164C0.469952 7.41908 -2.87558e-08 7.90266 0 8.50121V15.2645C0 15.4133 0.11831 15.535 0.26291 15.535H1.57746V27.1679C1.57746 27.7664 2.04741 28.25 2.6291 28.25H23.6619C24.2436 28.25 24.7136 27.7664 24.7136 27.1679V15.535H26.0281C26.1727 15.535 26.291 15.4133 26.291 15.2645V8.50121C26.291 7.90266 25.8211 7.41908 25.2394 7.41908ZM12.0281 25.9505H3.8122V15.535H12.0281V25.9505ZM12.0281 13.2355H2.23474V9.7186H12.0281V13.2355ZM12.0281 7.28382H9.72768C8.45914 7.28382 7.42721 6.22198 7.42721 4.91667C7.42721 3.61135 8.45914 2.54952 9.72768 2.54952C10.9962 2.54952 12.0281 3.61135 12.0281 4.91667V7.28382ZM14.2629 4.91667C14.2629 3.61135 15.2948 2.54952 16.5633 2.54952C17.8319 2.54952 18.8638 3.61135 18.8638 4.91667C18.8638 6.22198 17.8319 7.28382 16.5633 7.28382H14.2629V4.91667ZM22.4788 25.9505H14.2629V15.535H22.4788V25.9505ZM24.0563 13.2355H14.2629V9.7186H24.0563V13.2355Z" fill="url(#paint0_linear_22_749)" />
<path d="M41.1457 27.261C41.0174 27.261 40.9104 27.201 40.8248 27.0809C40.7478 26.9608 40.7093 26.845 40.7093 26.7335C40.7093 26.5447 40.7392 26.4203 40.7991 26.3603C40.859 26.3088 40.9831 26.2745 41.1714 26.2574C41.4795 26.223 41.7363 26.1759 41.9417 26.1158C42.1556 26.0643 42.3396 25.9528 42.4937 25.7812C42.6563 25.6097 42.7376 25.3523 42.7376 25.0092V11.7684C42.7376 11.3738 42.6648 11.0735 42.5194 10.8676C42.3739 10.6618 42.2027 10.5245 42.0059 10.4559C41.8176 10.3873 41.5694 10.3315 41.2613 10.2886C41.0131 10.2543 40.8676 10.2286 40.8248 10.2114C40.7221 10.1685 40.6451 10.1085 40.5937 10.0313C40.5424 9.95404 40.5167 9.84253 40.5167 9.69669C40.5167 9.57659 40.5424 9.4565 40.5937 9.3364C40.6536 9.20772 40.7307 9.13909 40.8248 9.13052C43.2126 9.02757 45.0312 8.96753 46.2807 8.95037C46.3663 8.95037 46.4476 8.98897 46.5246 9.06618C46.6017 9.14338 46.6487 9.27635 46.6658 9.46507V10.5074C47.0766 9.94118 47.68 9.50368 48.4759 9.19485C49.2718 8.88603 50.072 8.73162 50.8765 8.73162C52.2202 8.73162 53.3199 9.04044 54.1757 9.65809C55.0316 10.2672 55.652 11.0735 56.0371 12.0772C56.4308 13.0809 56.6277 14.2004 56.6277 15.4357C56.6277 16.6281 56.3795 17.7347 55.8831 18.7555C55.3953 19.7763 54.6593 20.5999 53.6751 21.2261C52.6909 21.8438 51.4927 22.1526 50.0806 22.1526C48.7541 22.1526 47.6158 21.9896 46.6658 21.6636L46.7429 22.8989V25.4338C46.7429 25.6912 46.9654 25.8799 47.4104 26C47.864 26.1287 48.4117 26.2145 49.0536 26.2574C49.2162 26.2745 49.3275 26.3217 49.3874 26.3989C49.4473 26.4761 49.4772 26.5876 49.4772 26.7335C49.4772 26.8536 49.4387 26.9694 49.3617 27.0809C49.2847 27.201 49.1777 27.261 49.0408 27.261H41.1457ZM48.8354 20.8015C50.0849 20.8015 50.9749 20.3382 51.5055 19.4118C52.0362 18.4767 52.3015 17.1514 52.3015 15.4357C52.3015 12.2102 51.2146 10.5974 49.0408 10.5974C48.6128 10.5974 48.1721 10.7047 47.7185 10.9191C47.2735 11.125 46.9483 11.4167 46.7429 11.7941V19.6691C46.8113 19.8321 46.9611 20.0037 47.1922 20.1838C47.4318 20.364 47.7014 20.5141 48.0009 20.6342C48.3005 20.7457 48.5786 20.8015 48.8354 20.8015Z" fill="url(#paint1_linear_22_749)"/>
<path d="M58.9898 21.7794C58.8528 21.7794 58.7458 21.7237 58.6688 21.6121C58.5918 21.492 58.5533 21.3719 58.5533 21.2518C58.5533 21.106 58.5832 20.9945 58.6431 20.9173C58.7031 20.8401 58.8143 20.7929 58.9769 20.7757C59.3963 20.7414 59.7472 20.6728 60.0296 20.5699C60.3206 20.4583 60.4661 20.2953 60.4661 20.0809V11.7684C60.4661 11.3652 60.3933 11.0564 60.2478 10.8419C60.1023 10.6275 59.9312 10.4859 59.7343 10.4173C59.5375 10.3487 59.2807 10.2886 58.9641 10.2371C58.9213 10.2286 58.8571 10.22 58.7715 10.2114C58.6859 10.1942 58.6132 10.1771 58.5533 10.1599C58.4506 10.117 58.3736 10.057 58.3222 9.97978C58.2709 9.90257 58.2452 9.79105 58.2452 9.64522C58.2452 9.52512 58.2751 9.40503 58.335 9.28493C58.395 9.15625 58.4677 9.08762 58.5533 9.07904C60.1023 9.019 61.7883 8.9761 63.6112 8.95037H63.9835C64.0691 8.95037 64.1504 8.98897 64.2274 9.06618C64.3044 9.14338 64.3515 9.27635 64.3686 9.46507V12.0772C64.6168 11.5196 64.972 10.9877 65.4341 10.4816C65.9048 9.96691 66.4483 9.54657 67.0645 9.22059C67.6807 8.89461 68.3183 8.73162 68.9773 8.73162C69.7133 8.73162 70.2567 8.95895 70.6076 9.4136C70.9585 9.85968 71.1339 10.413 71.1339 11.0735C71.1339 11.4939 71.0355 11.8928 70.8387 12.2702C70.6419 12.6477 70.3937 12.9522 70.0941 13.1838C69.8031 13.4069 69.5207 13.5184 69.2468 13.5184L67.3726 11.0607C66.8077 11.0607 66.2686 11.3438 65.7551 11.9099C65.2416 12.4675 64.8308 13.1324 64.5227 13.9044V19.6562C64.5227 19.9393 64.6168 20.1538 64.8051 20.2996C65.0019 20.4455 65.2373 20.5484 65.5112 20.6085C65.785 20.6599 66.1402 20.7071 66.5767 20.75L66.8463 20.7757C67.0345 20.7929 67.1586 20.8315 67.2185 20.8915C67.2785 20.943 67.3084 21.0631 67.3084 21.2518C67.3084 21.3719 67.2699 21.492 67.1929 21.6121C67.1158 21.7237 67.0089 21.7794 66.8719 21.7794H58.9898Z" fill="url(#paint2_linear_22_749)"/>
<path d="M79.6066 22.1526C77.1162 22.1526 75.2676 21.565 74.0609 20.3897C72.8542 19.2145 72.2508 17.5245 72.2508 15.3199C72.2508 13.9387 72.5717 12.7506 73.2136 11.7555C73.864 10.7604 74.7327 10.0098 75.8196 9.50368C76.9065 8.98897 78.1004 8.73162 79.4012 8.73162C81.3012 8.73162 82.7176 9.10478 83.6504 9.8511C84.5833 10.5888 85.1695 11.674 85.4092 13.1066C85.4862 13.5699 85.5247 14.2776 85.5247 15.2298L76.6155 15.2426C76.6155 16.4865 76.8081 17.4945 77.1932 18.2665C77.5869 19.0386 78.0833 19.5919 78.6824 19.9265C79.2814 20.261 79.9147 20.4283 80.5823 20.4283C81.3697 20.4283 82.0286 20.3254 82.5592 20.1195C83.0984 19.9136 83.5691 19.5748 83.9714 19.1029C83.9799 19.0944 84.0013 19.0686 84.0356 19.0257C84.0783 18.9743 84.1211 18.94 84.1639 18.9228C84.2067 18.9056 84.2538 18.9013 84.3051 18.9099L84.87 19.1801C84.9556 19.2145 84.9984 19.2659 84.9984 19.3346C84.9984 19.386 84.9727 19.4589 84.9213 19.5533C84.4592 20.3597 83.7831 20.9945 82.893 21.4577C82.003 21.921 80.9075 22.1526 79.6066 22.1526ZM81.2498 14.046C81.2498 12.5619 81.1001 11.4896 80.8005 10.829C80.501 10.1599 80.0217 9.82537 79.3627 9.82537C78.6695 9.82537 78.0704 10.1728 77.5655 10.8676C77.0691 11.5539 76.7653 12.6134 76.654 14.046H81.2498Z" fill="url(#paint3_linear_22_749)"/>
<path d="M93.0603 22.1654C92.4355 22.1654 91.8535 22.0839 91.3144 21.921C90.7752 21.758 90.3173 21.5821 89.9408 21.3934C89.8038 21.3248 89.6712 21.2904 89.5428 21.2904C89.3888 21.2904 89.2732 21.3119 89.1962 21.3548C89.1192 21.3977 89.0421 21.4663 88.9651 21.5607C88.8795 21.6636 88.794 21.7365 88.7084 21.7794C88.6228 21.8309 88.4944 21.8566 88.3232 21.8566C88.1521 21.8566 87.998 21.8223 87.8611 21.7537C87.7327 21.6765 87.6685 21.5821 87.6685 21.4706L87.6172 20.0037C87.5744 18.4596 87.553 17.6532 87.553 17.5846C87.553 17.3958 87.6172 17.2586 87.7456 17.1728C87.8825 17.0784 88.0408 17.0312 88.2205 17.0312C88.366 17.0312 88.4944 17.057 88.6057 17.1085C88.7169 17.1599 88.7854 17.2286 88.8111 17.3143C88.9566 17.829 89.1748 18.3909 89.4658 19C89.6113 19.3002 89.8295 19.6091 90.1205 19.9265C90.4115 20.2353 90.7923 20.5055 91.263 20.7371C91.7423 20.9602 92.29 21.0717 92.9062 21.0717C93.6251 21.0717 94.1857 20.9473 94.5879 20.6985C94.9987 20.4498 95.2041 20.0852 95.2041 19.6048C95.2041 19.2102 95.0886 18.867 94.8575 18.5754C94.635 18.2751 94.2499 17.9835 93.7021 17.7004C93.163 17.4173 92.4013 17.0999 91.4171 16.7482C90.4157 16.3964 89.5642 15.8946 88.8624 15.2426C88.1692 14.5907 87.8226 13.7543 87.8226 12.7335C87.8226 11.9957 88.0579 11.3223 88.5286 10.7132C89.0079 10.0956 89.6626 9.61091 90.4928 9.25919C91.3315 8.90748 92.2601 8.73162 93.2785 8.73162C93.7578 8.73162 94.1899 8.78309 94.5751 8.88603C94.9602 8.98039 95.3581 9.10478 95.7689 9.25919C95.8289 9.27635 95.923 9.31066 96.0514 9.36213C96.1883 9.40502 96.2867 9.42647 96.3466 9.42647C96.475 9.42647 96.5606 9.40502 96.6034 9.36213C96.6547 9.31066 96.6932 9.25061 96.7189 9.18199C96.7446 9.10478 96.7703 9.04473 96.7959 9.00184C96.8473 8.91605 96.9286 8.85172 97.0398 8.80882C97.1597 8.75735 97.288 8.73162 97.425 8.73162C97.6218 8.73162 97.793 8.77451 97.9385 8.86029C98.084 8.9375 98.1567 9.04473 98.1567 9.18199C98.1567 9.28493 98.1524 9.38358 98.1439 9.47794C98.1268 9.92402 98.1182 10.4087 98.1182 10.932C98.1182 11.2065 98.131 11.4681 98.1567 11.7169C98.1738 12.0257 98.1824 12.2359 98.1824 12.3474C98.1824 12.5876 98.1182 12.7678 97.9898 12.8879C97.8614 12.9994 97.6988 13.0551 97.502 13.0551C97.3651 13.0551 97.241 13.0337 97.1297 12.9908C97.027 12.9393 96.9628 12.875 96.9371 12.7978C96.766 12.2831 96.5606 11.8199 96.321 11.4081C96.0899 10.9877 95.7347 10.6232 95.2554 10.3143C94.7847 9.99694 94.1771 9.83824 93.4325 9.83824C92.9276 9.83824 92.4826 9.94975 92.0975 10.1728C91.7209 10.3958 91.5326 10.7561 91.5326 11.2537C91.5326 11.6397 91.6353 11.9743 91.8407 12.2574C92.0461 12.5404 92.3542 12.7935 92.765 13.0165C93.1843 13.2396 93.7406 13.4669 94.4339 13.6985C95.8802 14.1789 97.027 14.7623 97.8743 15.4485C98.7301 16.1262 99.158 17.0398 99.158 18.1893C99.158 19.4847 98.636 20.4712 97.5919 21.1489C96.5478 21.8266 95.0372 22.1654 93.0603 22.1654Z" fill="url(#paint4_linear_22_749)"/>
<path d="M108.131 22.1526C105.641 22.1526 103.792 21.565 102.586 20.3897C101.379 19.2145 100.776 17.5245 100.776 15.3199C100.776 13.9387 101.096 12.7506 101.738 11.7555C102.389 10.7604 103.257 10.0098 104.344 9.50368C105.431 8.98897 106.625 8.73162 107.926 8.73162C109.826 8.73162 111.242 9.10478 112.175 9.8511C113.108 10.5888 113.694 11.674 113.934 13.1066C114.011 13.5699 114.049 14.2776 114.049 15.2298L105.14 15.2426C105.14 16.4865 105.333 17.4945 105.718 18.2665C106.112 19.0386 106.608 19.5919 107.207 19.9265C107.806 20.261 108.439 20.4283 109.107 20.4283C109.894 20.4283 110.553 20.3254 111.084 20.1195C111.623 19.9136 112.094 19.5748 112.496 19.1029C112.505 19.0944 112.526 19.0686 112.56 19.0257C112.603 18.9743 112.646 18.94 112.689 18.9228C112.731 18.9056 112.779 18.9013 112.83 18.9099L113.395 19.1801C113.48 19.2145 113.523 19.2659 113.523 19.3346C113.523 19.386 113.497 19.4589 113.446 19.5533C112.984 20.3597 112.308 20.9945 111.418 21.4577C110.528 21.921 109.432 22.1526 108.131 22.1526ZM109.775 14.046C109.775 12.5619 109.625 11.4896 109.325 10.829C109.026 10.1599 108.546 9.82537 107.887 9.82537C107.194 9.82537 106.595 10.1728 106.09 10.8676C105.594 11.5539 105.29 12.6134 105.179 14.046H109.775Z" fill="url(#paint5_linear_22_749)"/>
<path d="M116.283 21.7794C116.146 21.7794 116.039 21.7237 115.962 21.6121C115.885 21.492 115.847 21.3719 115.847 21.2518C115.847 21.106 115.877 20.9945 115.937 20.9173C115.996 20.8401 116.108 20.7929 116.27 20.7757C117.177 20.6642 117.631 20.3897 117.631 19.9522V11.7684C117.631 11.3738 117.558 11.0735 117.413 10.8676C117.267 10.6618 117.096 10.5245 116.899 10.4559C116.711 10.3873 116.463 10.3315 116.155 10.2886C115.907 10.2543 115.761 10.2286 115.718 10.2114C115.616 10.1685 115.539 10.1085 115.487 10.0313C115.436 9.95404 115.41 9.84253 115.41 9.69669C115.41 9.57659 115.436 9.4565 115.487 9.3364C115.547 9.20772 115.624 9.13909 115.718 9.13052C117.721 9.01042 119.531 8.95037 121.149 8.95037C121.234 8.95037 121.315 8.98897 121.392 9.06618C121.469 9.14338 121.517 9.27635 121.534 9.46507V10.9063C121.73 10.6746 122.098 10.3873 122.638 10.0441C123.177 9.6924 123.802 9.38787 124.512 9.13052C125.231 8.86458 125.937 8.73162 126.63 8.73162C127.897 8.73162 128.902 9.00613 129.647 9.55515C130.391 10.0956 130.764 11.0993 130.764 12.5662V19.5276C130.764 20.008 130.884 20.3211 131.123 20.4669C131.363 20.6127 131.611 20.6985 131.868 20.7243C132.133 20.75 132.309 20.7672 132.394 20.7757C132.548 20.7929 132.655 20.8358 132.715 20.9044C132.783 20.9645 132.818 21.0803 132.818 21.2518C132.818 21.3719 132.779 21.492 132.702 21.6121C132.625 21.7237 132.518 21.7794 132.381 21.7794H125.488C125.351 21.7794 125.244 21.7237 125.167 21.6121C125.09 21.492 125.051 21.3719 125.051 21.2518C125.051 21.0974 125.077 20.9859 125.128 20.9173C125.179 20.8401 125.286 20.7929 125.449 20.7757C125.766 20.7414 126.048 20.6513 126.296 20.5055C126.553 20.3597 126.681 20.1752 126.681 19.9522V12.6305C126.681 12.296 126.656 11.9957 126.604 11.7298C126.553 11.4638 126.412 11.2237 126.181 11.0092C125.958 10.7947 125.616 10.6875 125.154 10.6875C124.717 10.6875 124.268 10.7733 123.806 10.9449C123.352 11.1078 122.933 11.3137 122.548 11.5625C122.171 11.8113 121.876 12.0558 121.662 12.296V19.5276C121.662 19.8707 121.722 20.1324 121.842 20.3125C121.97 20.4841 122.124 20.5999 122.304 20.6599C122.484 20.7114 122.715 20.75 122.997 20.7757C123.185 20.7929 123.309 20.8315 123.369 20.8915C123.429 20.943 123.459 21.0631 123.459 21.2518C123.459 21.3634 123.416 21.4792 123.331 21.5993C123.254 21.7194 123.151 21.7794 123.023 21.7794H116.283Z" fill="url(#paint6_linear_22_749)"/>
<path d="M139.403 22.1654C138.171 22.1654 137.187 21.9252 136.451 21.4449C135.723 20.9645 135.36 20.1195 135.36 18.9099V10.3915H133.986C133.9 10.383 133.828 10.3186 133.768 10.1985C133.708 10.0699 133.678 9.94547 133.678 9.82537C133.678 9.67096 133.704 9.54228 133.755 9.43934C133.815 9.3364 133.896 9.26777 133.999 9.23346L135.603 8.75735C135.8 8.71446 136.023 8.54289 136.271 8.24265C136.528 7.93382 136.767 7.53922 136.99 7.05882C137.212 6.56985 137.388 6.03799 137.516 5.46324C137.593 5.12868 137.923 4.9614 138.505 4.9614C139.155 4.9614 139.48 5.10723 139.48 5.3989V8.98897H142.317C142.412 8.99755 142.484 9.04473 142.536 9.13052C142.596 9.2163 142.626 9.31495 142.626 9.42647C142.626 9.6924 142.583 9.91544 142.497 10.0956C142.42 10.2757 142.335 10.3658 142.24 10.3658H139.48V17.7647C139.48 18.4939 139.515 19.0515 139.583 19.4375C139.66 19.815 139.78 20.0766 139.942 20.2224C140.114 20.3597 140.358 20.4283 140.674 20.4283C140.957 20.4283 141.29 20.3726 141.676 20.261C142.061 20.1495 142.416 20.0123 142.741 19.8493C142.792 19.8235 142.865 19.875 142.959 20.0037C143.053 20.1324 143.126 20.2739 143.178 20.4283C143.229 20.5741 143.229 20.6642 143.178 20.6985C142.964 20.9301 142.63 21.1618 142.176 21.3934C141.731 21.6164 141.252 21.8009 140.738 21.9467C140.233 22.0925 139.788 22.1654 139.403 22.1654Z" fill="url(#paint7_linear_22_749)"/>
<path d="M151.779 22.1526C149.288 22.1526 147.44 21.565 146.233 20.3897C145.026 19.2145 144.423 17.5245 144.423 15.3199C144.423 13.9387 144.744 12.7506 145.386 11.7555C146.036 10.7604 146.905 10.0098 147.992 9.50368C149.078 8.98897 150.272 8.73162 151.573 8.73162C153.473 8.73162 154.89 9.10478 155.822 9.8511C156.755 10.5888 157.341 11.674 157.581 13.1066C157.658 13.5699 157.697 14.2776 157.697 15.2298L148.787 15.2426C148.787 16.4865 148.98 17.4945 149.365 18.2665C149.759 19.0386 150.255 19.5919 150.854 19.9265C151.453 20.261 152.087 20.4283 152.754 20.4283C153.542 20.4283 154.201 20.3254 154.731 20.1195C155.27 19.9136 155.741 19.5748 156.143 19.1029C156.152 19.0944 156.173 19.0686 156.208 19.0257C156.25 18.9743 156.293 18.94 156.336 18.9228C156.379 18.9056 156.426 18.9013 156.477 18.9099L157.042 19.1801C157.128 19.2145 157.17 19.2659 157.17 19.3346C157.17 19.386 157.145 19.4589 157.093 19.5533C156.631 20.3597 155.955 20.9945 155.065 21.4577C154.175 21.921 153.079 22.1526 151.779 22.1526ZM153.422 14.046C153.422 12.5619 153.272 11.4896 152.972 10.829C152.673 10.1599 152.194 9.82537 151.535 9.82537C150.841 9.82537 150.242 10.1728 149.737 10.8676C149.241 11.5539 148.937 12.6134 148.826 14.046H153.422Z" fill="url(#paint8_linear_22_749)"/>
<path d="M159.943 21.7794C159.806 21.7794 159.699 21.7237 159.622 21.6121C159.545 21.492 159.507 21.3719 159.507 21.2518C159.507 21.106 159.537 20.9945 159.597 20.9173C159.665 20.8315 159.776 20.7843 159.93 20.7757C160.333 20.7414 160.679 20.6728 160.97 20.5699C161.261 20.4583 161.407 20.2953 161.407 20.0809L161.419 11.7684C161.419 11.3738 161.347 11.0735 161.201 10.8676C161.064 10.6618 160.897 10.5245 160.701 10.4559C160.512 10.3873 160.264 10.3315 159.956 10.2886C159.691 10.2457 159.541 10.22 159.507 10.2114C159.404 10.1685 159.327 10.1085 159.276 10.0313C159.224 9.95404 159.199 9.84253 159.199 9.69669C159.199 9.57659 159.224 9.4565 159.276 9.3364C159.336 9.20772 159.413 9.13909 159.507 9.13052C161.407 9.01042 163.268 8.95037 165.091 8.95037C165.185 8.95037 165.271 8.99326 165.348 9.07904C165.433 9.15625 165.476 9.28493 165.476 9.46507V19.6562C165.476 19.9565 165.553 20.1881 165.707 20.3511C165.87 20.5055 166.054 20.6085 166.259 20.6599C166.465 20.7028 166.726 20.7414 167.042 20.7757C167.231 20.7929 167.355 20.8315 167.415 20.8915C167.474 20.943 167.504 21.0631 167.504 21.2518C167.504 21.3634 167.462 21.4792 167.376 21.5993C167.299 21.7194 167.196 21.7794 167.068 21.7794H159.943ZM163.358 6.72427C162.913 6.72427 162.506 6.62561 162.138 6.42831C161.77 6.22243 161.479 5.94363 161.265 5.59191C161.051 5.23162 160.945 4.82414 160.945 4.36949C160.945 3.91483 161.051 3.50735 161.265 3.14706C161.479 2.78676 161.77 2.50797 162.138 2.31066C162.506 2.10478 162.913 2.00184 163.358 2.00184C163.794 2.00184 164.197 2.10478 164.565 2.31066C164.933 2.50797 165.224 2.78676 165.438 3.14706C165.66 3.50735 165.771 3.91483 165.771 4.36949C165.771 4.82414 165.66 5.23162 165.438 5.59191C165.224 5.94363 164.933 6.22243 164.565 6.42831C164.197 6.62561 163.794 6.72427 163.358 6.72427Z" fill="url(#paint9_linear_22_749)"/>
<path d="M168.852 15.4485C168.852 13.9902 169.16 12.7592 169.777 11.7555C170.393 10.7518 171.257 9.99694 172.37 9.49081C173.491 8.98468 174.805 8.73162 176.311 8.73162C177.817 8.73162 179.118 8.98468 180.213 9.49081C181.309 9.99694 182.148 10.7518 182.73 11.7555C183.32 12.7592 183.615 13.9902 183.615 15.4485C183.615 16.9069 183.312 18.1379 182.704 19.1415C182.105 20.1452 181.253 20.9001 180.149 21.4062C179.045 21.9038 177.736 22.1526 176.221 22.1526C174.715 22.1526 173.41 21.9038 172.306 21.4062C171.202 20.9001 170.35 20.1452 169.751 19.1415C169.152 18.1379 168.852 16.9069 168.852 15.4485ZM173.358 15.4485C173.358 16.6667 173.444 17.6746 173.615 18.4724C173.786 19.2616 174.081 19.8707 174.501 20.2996C174.929 20.72 175.515 20.9301 176.26 20.9301C176.996 20.9301 177.569 20.72 177.98 20.2996C178.399 19.8707 178.69 19.2616 178.853 18.4724C179.015 17.6832 179.097 16.6752 179.097 15.4485C179.097 14.2304 179.011 13.2267 178.84 12.4375C178.669 11.6397 178.369 11.0306 177.941 10.6103C177.522 10.1814 176.944 9.96691 176.208 9.96691C175.472 9.96691 174.895 10.1814 174.475 10.6103C174.056 11.0306 173.765 11.6397 173.602 12.4375C173.44 13.2267 173.358 14.2304 173.358 15.4485Z" fill="url(#paint10_linear_22_749)"/>
<defs>
<linearGradient id="paint0_linear_22_749" x1="91.8077" y1="0.25" x2="91.8077" y2="28.25" gradientUnits="userSpaceOnUse">
<stop stop-color="var(--primary-02)"/>
<stop offset="1" stop-color="var(--primary-03)"/>
</linearGradient>
<linearGradient id="paint1_linear_22_749" x1="91.8077" y1="0.25" x2="91.8077" y2="28.25" gradientUnits="userSpaceOnUse">
<stop stop-color="var(--primary-02)"/>
<stop offset="1" stop-color="var(--primary-03)"/>
</linearGradient>
<linearGradient id="paint2_linear_22_749" x1="91.8077" y1="0.25" x2="91.8077" y2="28.25" gradientUnits="userSpaceOnUse">
<stop stop-color="var(--primary-02)"/>
<stop offset="1" stop-color="var(--primary-03)"/>
</linearGradient>
<linearGradient id="paint3_linear_22_749" x1="91.8077" y1="0.25" x2="91.8077" y2="28.25" gradientUnits="userSpaceOnUse">
<stop stop-color="var(--primary-02)"/>
<stop offset="1" stop-color="var(--primary-03)"/>
</linearGradient>
<linearGradient id="paint4_linear_22_749" x1="91.8077" y1="0.25" x2="91.8077" y2="28.25" gradientUnits="userSpaceOnUse">
<stop stop-color="var(--primary-02)"/>
<stop offset="1" stop-color="var(--primary-03)"/>
</linearGradient>
<linearGradient id="paint5_linear_22_749" x1="91.8077" y1="0.25" x2="91.8077" y2="28.25" gradientUnits="userSpaceOnUse">
<stop stop-color="var(--primary-02)"/>
<stop offset="1" stop-color="var(--primary-03)"/>
</linearGradient>
<linearGradient id="paint6_linear_22_749" x1="91.8077" y1="0.25" x2="91.8077" y2="28.25" gradientUnits="userSpaceOnUse">
<stop stop-color="var(--primary-02)"/>
<stop offset="1" stop-color="var(--primary-03)"/>
</linearGradient>
<linearGradient id="paint7_linear_22_749" x1="91.8077" y1="0.25" x2="91.8077" y2="28.25" gradientUnits="userSpaceOnUse">
<stop stop-color="var(--primary-02)"/>
<stop offset="1" stop-color="var(--primary-03)"/>
</linearGradient>
<linearGradient id="paint8_linear_22_749" x1="91.8077" y1="0.25" x2="91.8077" y2="28.25" gradientUnits="userSpaceOnUse">
<stop stop-color="var(--primary-02)"/>
<stop offset="1" stop-color="var(--primary-03)"/>
</linearGradient>
<linearGradient id="paint9_linear_22_749" x1="91.8077" y1="0.25" x2="91.8077" y2="28.25" gradientUnits="userSpaceOnUse">
<stop stop-color="var(--primary-02)"/>
<stop offset="1" stop-color="var(--primary-03)"/>
</linearGradient>
<linearGradient id="paint10_linear_22_749" x1="91.8077" y1="0.25" x2="91.8077" y2="28.25" gradientUnits="userSpaceOnUse">
<stop stop-color="var(--primary-02)"/>
<stop offset="1" stop-color="var(--primary-03)"/>
</linearGradient>
</defs>
</svg>
