<svg width="184" height="29" viewBox="0 0 184 29" fill="none" xmlns="http://www.w3.org/2000/svg">
<path d="M25.2394 7.66908H20.3887C20.8356 6.94541 21.0985 6.08647 21.0985 5.16667C21.0985 2.59324 19.0643 0.5 16.5633 0.5C15.2028 0.5 13.977 1.12222 13.1455 2.1029C12.3141 1.12222 11.0882 0.5 9.72768 0.5C7.22675 0.5 5.19248 2.59324 5.19248 5.16667C5.19248 6.08647 5.4521 6.94541 5.90234 7.66908H1.05164C0.469952 7.66908 -2.87558e-08 8.15266 0 8.75121V15.5145C0 15.6633 0.11831 15.785 0.26291 15.785H1.57746V27.4179C1.57746 28.0164 2.04741 28.5 2.6291 28.5H23.6619C24.2436 28.5 24.7136 28.0164 24.7136 27.4179V15.785H26.0281C26.1727 15.785 26.291 15.6633 26.291 15.5145V8.75121C26.291 8.15266 25.8211 7.66908 25.2394 7.66908ZM12.0281 26.2005H3.8122V15.785H12.0281V26.2005ZM12.0281 13.4855H2.23474V9.9686H12.0281V13.4855ZM12.0281 7.53382H9.72768C8.45914 7.53382 7.42721 6.47198 7.42721 5.16667C7.42721 3.86135 8.45914 2.79952 9.72768 2.79952C10.9962 2.79952 12.0281 3.86135 12.0281 5.16667V7.53382ZM14.2629 5.16667C14.2629 3.86135 15.2948 2.79952 16.5633 2.79952C17.8319 2.79952 18.8638 3.86135 18.8638 5.16667C18.8638 6.47198 17.8319 7.53382 16.5633 7.53382H14.2629V5.16667ZM22.4788 26.2005H14.2629V15.785H22.4788V26.2005ZM24.0563 13.4855H14.2629V9.9686H24.0563V13.4855Z" fill="#F8EAEA"/>
<path d="M41.1457 27.511C41.0174 27.511 40.9104 27.451 40.8248 27.3309C40.7478 27.2108 40.7093 27.095 40.7093 26.9835C40.7093 26.7947 40.7392 26.6703 40.7991 26.6103C40.859 26.5588 40.9831 26.5245 41.1714 26.5074C41.4795 26.473 41.7363 26.4259 41.9417 26.3658C42.1556 26.3143 42.3396 26.2028 42.4937 26.0312C42.6563 25.8597 42.7376 25.6023 42.7376 25.2592V12.0184C42.7376 11.6238 42.6648 11.3235 42.5194 11.1176C42.3739 10.9118 42.2027 10.7745 42.0059 10.7059C41.8176 10.6373 41.5694 10.5815 41.2613 10.5386C41.0131 10.5043 40.8676 10.4786 40.8248 10.4614C40.7221 10.4185 40.6451 10.3585 40.5937 10.2813C40.5424 10.204 40.5167 10.0925 40.5167 9.94669C40.5167 9.82659 40.5424 9.7065 40.5937 9.5864C40.6536 9.45772 40.7307 9.38909 40.8248 9.38052C43.2126 9.27757 45.0312 9.21753 46.2807 9.20037C46.3663 9.20037 46.4476 9.23897 46.5246 9.31618C46.6017 9.39338 46.6487 9.52635 46.6658 9.71507V10.7574C47.0766 10.1912 47.68 9.75368 48.4759 9.44485C49.2718 9.13603 50.072 8.98162 50.8765 8.98162C52.2202 8.98162 53.3199 9.29044 54.1757 9.90809C55.0316 10.5172 55.652 11.3235 56.0371 12.3272C56.4308 13.3309 56.6277 14.4504 56.6277 15.6857C56.6277 16.8781 56.3795 17.9847 55.8831 19.0055C55.3953 20.0263 54.6593 20.8499 53.6751 21.4761C52.6909 22.0938 51.4927 22.4026 50.0806 22.4026C48.7541 22.4026 47.6158 22.2396 46.6658 21.9136L46.7429 23.1489V25.6838C46.7429 25.9412 46.9654 26.1299 47.4104 26.25C47.864 26.3787 48.4117 26.4645 49.0536 26.5074C49.2162 26.5245 49.3275 26.5717 49.3874 26.6489C49.4473 26.7261 49.4772 26.8376 49.4772 26.9835C49.4772 27.1036 49.4387 27.2194 49.3617 27.3309C49.2847 27.451 49.1777 27.511 49.0408 27.511H41.1457ZM48.8354 21.0515C50.0849 21.0515 50.9749 20.5882 51.5055 19.6618C52.0362 18.7267 52.3015 17.4014 52.3015 15.6857C52.3015 12.4602 51.2146 10.8474 49.0408 10.8474C48.6128 10.8474 48.1721 10.9547 47.7185 11.1691C47.2735 11.375 46.9483 11.6667 46.7429 12.0441V19.9191C46.8113 20.0821 46.9611 20.2537 47.1922 20.4338C47.4318 20.614 47.7014 20.7641 48.0009 20.8842C48.3005 20.9957 48.5786 21.0515 48.8354 21.0515Z" fill="#F8EAEA"/>
<path d="M58.9898 22.0294C58.8528 22.0294 58.7458 21.9737 58.6688 21.8621C58.5918 21.742 58.5533 21.6219 58.5533 21.5018C58.5533 21.356 58.5832 21.2445 58.6431 21.1673C58.7031 21.0901 58.8143 21.0429 58.9769 21.0257C59.3963 20.9914 59.7472 20.9228 60.0296 20.8199C60.3206 20.7083 60.4661 20.5453 60.4661 20.3309V12.0184C60.4661 11.6152 60.3933 11.3064 60.2478 11.0919C60.1023 10.8775 59.9312 10.7359 59.7343 10.6673C59.5375 10.5987 59.2807 10.5386 58.9641 10.4871C58.9213 10.4786 58.8571 10.47 58.7715 10.4614C58.6859 10.4442 58.6132 10.4271 58.5533 10.4099C58.4506 10.367 58.3736 10.307 58.3222 10.2298C58.2709 10.1526 58.2452 10.0411 58.2452 9.89522C58.2452 9.77512 58.2751 9.65503 58.335 9.53493C58.395 9.40625 58.4677 9.33762 58.5533 9.32904C60.1023 9.269 61.7883 9.2261 63.6112 9.20037H63.9835C64.0691 9.20037 64.1504 9.23897 64.2274 9.31618C64.3044 9.39338 64.3515 9.52635 64.3686 9.71507V12.3272C64.6168 11.7696 64.972 11.2377 65.4341 10.7316C65.9048 10.2169 66.4483 9.79657 67.0645 9.47059C67.6807 9.14461 68.3183 8.98162 68.9773 8.98162C69.7133 8.98162 70.2567 9.20895 70.6076 9.6636C70.9585 10.1097 71.1339 10.663 71.1339 11.3235C71.1339 11.7439 71.0355 12.1428 70.8387 12.5202C70.6419 12.8977 70.3937 13.2022 70.0941 13.4338C69.8031 13.6569 69.5207 13.7684 69.2468 13.7684L67.3726 11.3107C66.8077 11.3107 66.2686 11.5938 65.7551 12.1599C65.2416 12.7175 64.8308 13.3824 64.5227 14.1544V19.9062C64.5227 20.1893 64.6168 20.4038 64.8051 20.5496C65.0019 20.6955 65.2373 20.7984 65.5112 20.8585C65.785 20.9099 66.1402 20.9571 66.5767 21L66.8463 21.0257C67.0345 21.0429 67.1586 21.0815 67.2185 21.1415C67.2785 21.193 67.3084 21.3131 67.3084 21.5018C67.3084 21.6219 67.2699 21.742 67.1929 21.8621C67.1158 21.9737 67.0089 22.0294 66.8719 22.0294H58.9898Z" fill="#F8EAEA"/>
<path d="M79.6066 22.4026C77.1162 22.4026 75.2676 21.815 74.0609 20.6397C72.8542 19.4645 72.2508 17.7745 72.2508 15.5699C72.2508 14.1887 72.5717 13.0006 73.2136 12.0055C73.864 11.0104 74.7327 10.2598 75.8196 9.75368C76.9065 9.23897 78.1004 8.98162 79.4012 8.98162C81.3012 8.98162 82.7176 9.35478 83.6504 10.1011C84.5833 10.8388 85.1695 11.924 85.4092 13.3566C85.4862 13.8199 85.5247 14.5276 85.5247 15.4798L76.6155 15.4926C76.6155 16.7365 76.8081 17.7445 77.1932 18.5165C77.5869 19.2886 78.0833 19.8419 78.6824 20.1765C79.2814 20.511 79.9147 20.6783 80.5823 20.6783C81.3697 20.6783 82.0286 20.5754 82.5592 20.3695C83.0984 20.1636 83.5691 19.8248 83.9714 19.3529C83.9799 19.3444 84.0013 19.3186 84.0356 19.2757C84.0783 19.2243 84.1211 19.19 84.1639 19.1728C84.2067 19.1556 84.2538 19.1513 84.3051 19.1599L84.87 19.4301C84.9556 19.4645 84.9984 19.5159 84.9984 19.5846C84.9984 19.636 84.9727 19.7089 84.9213 19.8033C84.4592 20.6097 83.7831 21.2445 82.893 21.7077C82.003 22.171 80.9075 22.4026 79.6066 22.4026ZM81.2498 14.296C81.2498 12.8119 81.1001 11.7396 80.8005 11.079C80.501 10.4099 80.0217 10.0754 79.3627 10.0754C78.6695 10.0754 78.0704 10.4228 77.5655 11.1176C77.0691 11.8039 76.7653 12.8634 76.654 14.296H81.2498Z" fill="#F8EAEA"/>
<path d="M93.0603 22.4154C92.4355 22.4154 91.8535 22.3339 91.3144 22.171C90.7752 22.008 90.3173 21.8321 89.9408 21.6434C89.8038 21.5748 89.6712 21.5404 89.5428 21.5404C89.3888 21.5404 89.2732 21.5619 89.1962 21.6048C89.1192 21.6477 89.0421 21.7163 88.9651 21.8107C88.8795 21.9136 88.794 21.9865 88.7084 22.0294C88.6228 22.0809 88.4944 22.1066 88.3232 22.1066C88.1521 22.1066 87.998 22.0723 87.8611 22.0037C87.7327 21.9265 87.6685 21.8321 87.6685 21.7206L87.6172 20.2537C87.5744 18.7096 87.553 17.9032 87.553 17.8346C87.553 17.6458 87.6172 17.5086 87.7456 17.4228C87.8825 17.3284 88.0408 17.2812 88.2205 17.2812C88.366 17.2812 88.4944 17.307 88.6057 17.3585C88.7169 17.4099 88.7854 17.4786 88.8111 17.5643C88.9566 18.079 89.1748 18.6409 89.4658 19.25C89.6113 19.5502 89.8295 19.8591 90.1205 20.1765C90.4115 20.4853 90.7923 20.7555 91.263 20.9871C91.7423 21.2102 92.29 21.3217 92.9062 21.3217C93.6251 21.3217 94.1857 21.1973 94.5879 20.9485C94.9987 20.6998 95.2041 20.3352 95.2041 19.8548C95.2041 19.4602 95.0886 19.117 94.8575 18.8254C94.635 18.5251 94.2499 18.2335 93.7021 17.9504C93.163 17.6673 92.4013 17.3499 91.4171 16.9982C90.4157 16.6464 89.5642 16.1446 88.8624 15.4926C88.1692 14.8407 87.8226 14.0043 87.8226 12.9835C87.8226 12.2457 88.0579 11.5723 88.5286 10.9632C89.0079 10.3456 89.6626 9.86091 90.4928 9.50919C91.3315 9.15748 92.2601 8.98162 93.2785 8.98162C93.7578 8.98162 94.1899 9.03309 94.5751 9.13603C94.9602 9.23039 95.3581 9.35478 95.7689 9.50919C95.8289 9.52635 95.923 9.56066 96.0514 9.61213C96.1883 9.65502 96.2867 9.67647 96.3466 9.67647C96.475 9.67647 96.5606 9.65502 96.6034 9.61213C96.6547 9.56066 96.6932 9.50061 96.7189 9.43199C96.7446 9.35478 96.7703 9.29473 96.7959 9.25184C96.8473 9.16605 96.9286 9.10172 97.0398 9.05882C97.1597 9.00735 97.288 8.98162 97.425 8.98162C97.6218 8.98162 97.793 9.02451 97.9385 9.11029C98.084 9.1875 98.1567 9.29473 98.1567 9.43199C98.1567 9.53493 98.1524 9.63358 98.1439 9.72794C98.1268 10.174 98.1182 10.6587 98.1182 11.182C98.1182 11.4565 98.131 11.7181 98.1567 11.9669C98.1738 12.2757 98.1824 12.4859 98.1824 12.5974C98.1824 12.8376 98.1182 13.0178 97.9898 13.1379C97.8614 13.2494 97.6988 13.3051 97.502 13.3051C97.3651 13.3051 97.241 13.2837 97.1297 13.2408C97.027 13.1893 96.9628 13.125 96.9371 13.0478C96.766 12.5331 96.5606 12.0699 96.321 11.6581C96.0899 11.2377 95.7347 10.8732 95.2554 10.5643C94.7847 10.2469 94.1771 10.0882 93.4325 10.0882C92.9276 10.0882 92.4826 10.1998 92.0975 10.4228C91.7209 10.6458 91.5326 11.0061 91.5326 11.5037C91.5326 11.8897 91.6353 12.2243 91.8407 12.5074C92.0461 12.7904 92.3542 13.0435 92.765 13.2665C93.1843 13.4896 93.7406 13.7169 94.4339 13.9485C95.8802 14.4289 97.027 15.0123 97.8743 15.6985C98.7301 16.3762 99.158 17.2898 99.158 18.4393C99.158 19.7347 98.636 20.7212 97.5919 21.3989C96.5478 22.0766 95.0372 22.4154 93.0603 22.4154Z" fill="#F8EAEA"/>
<path d="M108.131 22.4026C105.641 22.4026 103.792 21.815 102.586 20.6397C101.379 19.4645 100.776 17.7745 100.776 15.5699C100.776 14.1887 101.096 13.0006 101.738 12.0055C102.389 11.0104 103.257 10.2598 104.344 9.75368C105.431 9.23897 106.625 8.98162 107.926 8.98162C109.826 8.98162 111.242 9.35478 112.175 10.1011C113.108 10.8388 113.694 11.924 113.934 13.3566C114.011 13.8199 114.049 14.5276 114.049 15.4798L105.14 15.4926C105.14 16.7365 105.333 17.7445 105.718 18.5165C106.112 19.2886 106.608 19.8419 107.207 20.1765C107.806 20.511 108.439 20.6783 109.107 20.6783C109.894 20.6783 110.553 20.5754 111.084 20.3695C111.623 20.1636 112.094 19.8248 112.496 19.3529C112.505 19.3444 112.526 19.3186 112.56 19.2757C112.603 19.2243 112.646 19.19 112.689 19.1728C112.731 19.1556 112.779 19.1513 112.83 19.1599L113.395 19.4301C113.48 19.4645 113.523 19.5159 113.523 19.5846C113.523 19.636 113.497 19.7089 113.446 19.8033C112.984 20.6097 112.308 21.2445 111.418 21.7077C110.528 22.171 109.432 22.4026 108.131 22.4026ZM109.775 14.296C109.775 12.8119 109.625 11.7396 109.325 11.079C109.026 10.4099 108.546 10.0754 107.887 10.0754C107.194 10.0754 106.595 10.4228 106.09 11.1176C105.594 11.8039 105.29 12.8634 105.179 14.296H109.775Z" fill="#F8EAEA"/>
<path d="M116.283 22.0294C116.146 22.0294 116.039 21.9737 115.962 21.8621C115.885 21.742 115.847 21.6219 115.847 21.5018C115.847 21.356 115.877 21.2445 115.937 21.1673C115.996 21.0901 116.108 21.0429 116.27 21.0257C117.177 20.9142 117.631 20.6397 117.631 20.2022V12.0184C117.631 11.6238 117.558 11.3235 117.413 11.1176C117.267 10.9118 117.096 10.7745 116.899 10.7059C116.711 10.6373 116.463 10.5815 116.155 10.5386C115.907 10.5043 115.761 10.4786 115.718 10.4614C115.616 10.4185 115.539 10.3585 115.487 10.2813C115.436 10.204 115.41 10.0925 115.41 9.94669C115.41 9.82659 115.436 9.7065 115.487 9.5864C115.547 9.45772 115.624 9.38909 115.718 9.38052C117.721 9.26042 119.531 9.20037 121.149 9.20037C121.234 9.20037 121.315 9.23897 121.392 9.31618C121.469 9.39338 121.517 9.52635 121.534 9.71507V11.1563C121.73 10.9246 122.098 10.6373 122.638 10.2941C123.177 9.9424 123.802 9.63787 124.512 9.38052C125.231 9.11458 125.937 8.98162 126.63 8.98162C127.897 8.98162 128.902 9.25613 129.647 9.80515C130.391 10.3456 130.764 11.3493 130.764 12.8162V19.7776C130.764 20.258 130.884 20.5711 131.123 20.7169C131.363 20.8627 131.611 20.9485 131.868 20.9743C132.133 21 132.309 21.0172 132.394 21.0257C132.548 21.0429 132.655 21.0858 132.715 21.1544C132.783 21.2145 132.818 21.3303 132.818 21.5018C132.818 21.6219 132.779 21.742 132.702 21.8621C132.625 21.9737 132.518 22.0294 132.381 22.0294H125.488C125.351 22.0294 125.244 21.9737 125.167 21.8621C125.09 21.742 125.051 21.6219 125.051 21.5018C125.051 21.3474 125.077 21.2359 125.128 21.1673C125.179 21.0901 125.286 21.0429 125.449 21.0257C125.766 20.9914 126.048 20.9013 126.296 20.7555C126.553 20.6097 126.681 20.4252 126.681 20.2022V12.8805C126.681 12.546 126.656 12.2457 126.604 11.9798C126.553 11.7138 126.412 11.4737 126.181 11.2592C125.958 11.0447 125.616 10.9375 125.154 10.9375C124.717 10.9375 124.268 11.0233 123.806 11.1949C123.352 11.3578 122.933 11.5637 122.548 11.8125C122.171 12.0613 121.876 12.3058 121.662 12.546V19.7776C121.662 20.1207 121.722 20.3824 121.842 20.5625C121.97 20.7341 122.124 20.8499 122.304 20.9099C122.484 20.9614 122.715 21 122.997 21.0257C123.185 21.0429 123.309 21.0815 123.369 21.1415C123.429 21.193 123.459 21.3131 123.459 21.5018C123.459 21.6134 123.416 21.7292 123.331 21.8493C123.254 21.9694 123.151 22.0294 123.023 22.0294H116.283Z" fill="#F8EAEA"/>
<path d="M139.403 22.4154C138.171 22.4154 137.187 22.1752 136.451 21.6949C135.723 21.2145 135.36 20.3695 135.36 19.1599V10.6415H133.986C133.9 10.633 133.828 10.5686 133.768 10.4485C133.708 10.3199 133.678 10.1955 133.678 10.0754C133.678 9.92096 133.704 9.79228 133.755 9.68934C133.815 9.5864 133.896 9.51777 133.999 9.48346L135.603 9.00735C135.8 8.96446 136.023 8.79289 136.271 8.49265C136.528 8.18382 136.767 7.78922 136.99 7.30882C137.212 6.81985 137.388 6.28799 137.516 5.71324C137.593 5.37868 137.923 5.2114 138.505 5.2114C139.155 5.2114 139.48 5.35723 139.48 5.6489V9.23897H142.317C142.412 9.24755 142.484 9.29473 142.536 9.38052C142.596 9.4663 142.626 9.56495 142.626 9.67647C142.626 9.9424 142.583 10.1654 142.497 10.3456C142.42 10.5257 142.335 10.6158 142.24 10.6158H139.48V18.0147C139.48 18.7439 139.515 19.3015 139.583 19.6875C139.66 20.065 139.78 20.3266 139.942 20.4724C140.114 20.6097 140.358 20.6783 140.674 20.6783C140.957 20.6783 141.29 20.6226 141.676 20.511C142.061 20.3995 142.416 20.2623 142.741 20.0993C142.792 20.0735 142.865 20.125 142.959 20.2537C143.053 20.3824 143.126 20.5239 143.178 20.6783C143.229 20.8241 143.229 20.9142 143.178 20.9485C142.964 21.1801 142.63 21.4118 142.176 21.6434C141.731 21.8664 141.252 22.0509 140.738 22.1967C140.233 22.3425 139.788 22.4154 139.403 22.4154Z" fill="#F8EAEA"/>
<path d="M151.779 22.4026C149.288 22.4026 147.44 21.815 146.233 20.6397C145.026 19.4645 144.423 17.7745 144.423 15.5699C144.423 14.1887 144.744 13.0006 145.386 12.0055C146.036 11.0104 146.905 10.2598 147.992 9.75368C149.078 9.23897 150.272 8.98162 151.573 8.98162C153.473 8.98162 154.89 9.35478 155.822 10.1011C156.755 10.8388 157.341 11.924 157.581 13.3566C157.658 13.8199 157.697 14.5276 157.697 15.4798L148.787 15.4926C148.787 16.7365 148.98 17.7445 149.365 18.5165C149.759 19.2886 150.255 19.8419 150.854 20.1765C151.453 20.511 152.087 20.6783 152.754 20.6783C153.542 20.6783 154.201 20.5754 154.731 20.3695C155.27 20.1636 155.741 19.8248 156.143 19.3529C156.152 19.3444 156.173 19.3186 156.208 19.2757C156.25 19.2243 156.293 19.19 156.336 19.1728C156.379 19.1556 156.426 19.1513 156.477 19.1599L157.042 19.4301C157.128 19.4645 157.17 19.5159 157.17 19.5846C157.17 19.636 157.145 19.7089 157.093 19.8033C156.631 20.6097 155.955 21.2445 155.065 21.7077C154.175 22.171 153.079 22.4026 151.779 22.4026ZM153.422 14.296C153.422 12.8119 153.272 11.7396 152.972 11.079C152.673 10.4099 152.194 10.0754 151.535 10.0754C150.841 10.0754 150.242 10.4228 149.737 11.1176C149.241 11.8039 148.937 12.8634 148.826 14.296H153.422Z" fill="#F8EAEA"/>
<path d="M159.943 22.0294C159.806 22.0294 159.699 21.9737 159.622 21.8621C159.545 21.742 159.507 21.6219 159.507 21.5018C159.507 21.356 159.537 21.2445 159.597 21.1673C159.665 21.0815 159.776 21.0343 159.93 21.0257C160.333 20.9914 160.679 20.9228 160.97 20.8199C161.261 20.7083 161.407 20.5453 161.407 20.3309L161.419 12.0184C161.419 11.6238 161.347 11.3235 161.201 11.1176C161.064 10.9118 160.897 10.7745 160.701 10.7059C160.512 10.6373 160.264 10.5815 159.956 10.5386C159.691 10.4957 159.541 10.47 159.507 10.4614C159.404 10.4185 159.327 10.3585 159.276 10.2813C159.224 10.204 159.199 10.0925 159.199 9.94669C159.199 9.82659 159.224 9.7065 159.276 9.5864C159.336 9.45772 159.413 9.38909 159.507 9.38052C161.407 9.26042 163.268 9.20037 165.091 9.20037C165.185 9.20037 165.271 9.24326 165.348 9.32904C165.433 9.40625 165.476 9.53493 165.476 9.71507V19.9062C165.476 20.2065 165.553 20.4381 165.707 20.6011C165.87 20.7555 166.054 20.8585 166.259 20.9099C166.465 20.9528 166.726 20.9914 167.042 21.0257C167.231 21.0429 167.355 21.0815 167.415 21.1415C167.474 21.193 167.504 21.3131 167.504 21.5018C167.504 21.6134 167.462 21.7292 167.376 21.8493C167.299 21.9694 167.196 22.0294 167.068 22.0294H159.943ZM163.358 6.97427C162.913 6.97427 162.506 6.87561 162.138 6.67831C161.77 6.47243 161.479 6.19363 161.265 5.84191C161.051 5.48162 160.945 5.07414 160.945 4.61949C160.945 4.16483 161.051 3.75735 161.265 3.39706C161.479 3.03676 161.77 2.75797 162.138 2.56066C162.506 2.35478 162.913 2.25184 163.358 2.25184C163.794 2.25184 164.197 2.35478 164.565 2.56066C164.933 2.75797 165.224 3.03676 165.438 3.39706C165.66 3.75735 165.771 4.16483 165.771 4.61949C165.771 5.07414 165.66 5.48162 165.438 5.84191C165.224 6.19363 164.933 6.47243 164.565 6.67831C164.197 6.87561 163.794 6.97427 163.358 6.97427Z" fill="#F8EAEA"/>
<path d="M168.852 15.6985C168.852 14.2402 169.16 13.0092 169.777 12.0055C170.393 11.0018 171.257 10.2469 172.37 9.74081C173.491 9.23468 174.805 8.98162 176.311 8.98162C177.817 8.98162 179.118 9.23468 180.213 9.74081C181.309 10.2469 182.148 11.0018 182.73 12.0055C183.32 13.0092 183.615 14.2402 183.615 15.6985C183.615 17.1569 183.312 18.3879 182.704 19.3915C182.105 20.3952 181.253 21.1501 180.149 21.6562C179.045 22.1538 177.736 22.4026 176.221 22.4026C174.715 22.4026 173.41 22.1538 172.306 21.6562C171.202 21.1501 170.35 20.3952 169.751 19.3915C169.152 18.3879 168.852 17.1569 168.852 15.6985ZM173.358 15.6985C173.358 16.9167 173.444 17.9246 173.615 18.7224C173.786 19.5116 174.081 20.1207 174.501 20.5496C174.929 20.97 175.515 21.1801 176.26 21.1801C176.996 21.1801 177.569 20.97 177.98 20.5496C178.399 20.1207 178.69 19.5116 178.853 18.7224C179.015 17.9332 179.097 16.9252 179.097 15.6985C179.097 14.4804 179.011 13.4767 178.84 12.6875C178.669 11.8897 178.369 11.2806 177.941 10.8603C177.522 10.4314 176.944 10.2169 176.208 10.2169C175.472 10.2169 174.895 10.4314 174.475 10.8603C174.056 11.2806 173.765 11.8897 173.602 12.6875C173.44 13.4767 173.358 14.4804 173.358 15.6985Z" fill="#F8EAEA"/>
</svg>
