<svg width="200" height="32" viewBox="0 0 158 24" fill="none" xmlns="http://www.w3.org/2000/svg">
<path d="M21.6338 6.14493H17.476C17.8591 5.52464 18.0845 4.78841 18.0845 4C18.0845 1.7942 16.3408 0 14.1972 0C13.031 0 11.9803 0.533333 11.2676 1.37391C10.5549 0.533333 9.5042 -2.53623e-08 8.33801 0C6.19435 0 4.45069 1.7942 4.45069 4C4.45069 4.78841 4.67323 5.52464 5.05914 6.14493H0.901407C0.402816 6.14493 -2.46478e-08 6.55942 0 7.07246V12.8696C0 12.9971 0.101408 13.1014 0.225352 13.1014H1.35211V23.0725C1.35211 23.5855 1.75493 24 2.25352 24H20.2816C20.7802 24 21.1831 23.5855 21.1831 23.0725V13.1014H22.3098C22.4338 13.1014 22.5352 12.9971 22.5352 12.8696V7.07246C22.5352 6.55942 22.1323 6.14493 21.6338 6.14493ZM10.3098 22.029H3.2676V13.1014H10.3098V22.029ZM10.3098 11.1304H1.91549V8.11594H10.3098V11.1304ZM10.3098 6.02899H8.33801C7.25069 6.02899 6.36618 5.11884 6.36618 4C6.36618 2.88116 7.25069 1.97101 8.33801 1.97101C9.42533 1.97101 10.3098 2.88116 10.3098 4V6.02899ZM12.2253 4C12.2253 2.88116 13.1098 1.97101 14.1972 1.97101C15.2845 1.97101 16.169 2.88116 16.169 4C16.169 5.11884 15.2845 6.02899 14.1972 6.02899H12.2253V4ZM19.2676 22.029H12.2253V13.1014H19.2676V22.029ZM20.6197 11.1304H12.2253V8.11594H20.6197V11.1304Z" fill="url(#paint0_linear_74_629)"/>
<path d="M35.2678 23.1523C35.1577 23.1523 35.0661 23.1008 34.9927 22.9979C34.9267 22.895 34.8937 22.7957 34.8937 22.7001C34.8937 22.5383 34.9193 22.4317 34.9707 22.3803C35.022 22.3361 35.1284 22.3067 35.2898 22.292C35.5539 22.2626 35.7739 22.2222 35.95 22.1707C36.1334 22.1266 36.2911 22.031 36.4231 21.8839C36.5625 21.7369 36.6322 21.5163 36.6322 21.2222V9.8729C36.6322 9.53466 36.5699 9.27731 36.4452 9.10084C36.3204 8.92437 36.1737 8.80672 36.005 8.7479C35.8436 8.68908 35.6309 8.64128 35.3668 8.60452C35.1541 8.57511 35.0294 8.55305 34.9927 8.53834C34.9047 8.50158 34.8386 8.45011 34.7946 8.38393C34.7506 8.31775 34.7286 8.22216 34.7286 8.09716C34.7286 7.99422 34.7506 7.89128 34.7946 7.78834C34.846 7.67805 34.912 7.61922 34.9927 7.61187C37.0393 7.52363 38.5982 7.47216 39.6692 7.45746C39.7425 7.45746 39.8122 7.49055 39.8782 7.55672C39.9443 7.6229 39.9846 7.73687 39.9993 7.89863V8.79202C40.3514 8.30672 40.8686 7.93172 41.5508 7.66702C42.233 7.40231 42.9189 7.26996 43.6084 7.26996C44.7601 7.26996 45.7028 7.53466 46.4363 8.06408C47.1699 8.58614 47.7017 9.27731 48.0318 10.1376C48.3693 10.9979 48.538 11.9575 48.538 13.0163C48.538 14.0383 48.3253 14.9869 47.8998 15.8619C47.4817 16.7369 46.8508 17.4428 46.0072 17.9795C45.1636 18.5089 44.1366 18.7736 42.9262 18.7736C41.7892 18.7736 40.8135 18.6339 39.9993 18.3545L40.0653 19.4133V21.5861C40.0653 21.8067 40.256 21.9685 40.6375 22.0714C41.0263 22.1817 41.4958 22.2553 42.0459 22.292C42.1853 22.3067 42.2807 22.3472 42.332 22.4133C42.3834 22.4795 42.4091 22.5751 42.4091 22.7001C42.4091 22.803 42.376 22.9023 42.31 22.9979C42.244 23.1008 42.1523 23.1523 42.0349 23.1523H35.2678ZM41.8589 17.6155C42.9299 17.6155 43.6928 17.2185 44.1476 16.4244C44.6024 15.6229 44.8298 14.4869 44.8298 13.0163C44.8298 10.2516 43.8982 8.86922 42.0349 8.86922C41.6681 8.86922 41.2904 8.96114 40.9016 9.14496C40.5201 9.32143 40.2414 9.57143 40.0653 9.89496V16.645C40.124 16.7847 40.2524 16.9317 40.4504 17.0861C40.6558 17.2405 40.8869 17.3692 41.1436 17.4722C41.4004 17.5678 41.6388 17.6155 41.8589 17.6155Z" fill="url(#paint1_linear_74_629)"/>
<path d="M50.5626 18.4538C50.4453 18.4538 50.3536 18.406 50.2876 18.3104C50.2215 18.2075 50.1885 18.1045 50.1885 18.0016C50.1885 17.8766 50.2142 17.781 50.2656 17.7148C50.3169 17.6486 50.4123 17.6082 50.5516 17.5935C50.9111 17.5641 51.2118 17.5053 51.4539 17.417C51.7033 17.3214 51.828 17.1817 51.828 16.9979V9.8729C51.828 9.52731 51.7657 9.26261 51.641 9.07878C51.5163 8.89496 51.3696 8.77364 51.2008 8.71481C51.0321 8.65599 50.8121 8.60452 50.5406 8.5604C50.504 8.55305 50.4489 8.54569 50.3756 8.53834C50.3022 8.52364 50.2399 8.50893 50.1885 8.49422C50.1005 8.45746 50.0345 8.40599 49.9905 8.33981C49.9464 8.27364 49.9244 8.17805 49.9244 8.05305C49.9244 7.95011 49.9501 7.84716 50.0015 7.74422C50.0528 7.63393 50.1152 7.57511 50.1885 7.56775C51.5163 7.51628 52.9614 7.47952 54.5239 7.45746H54.843C54.9164 7.45746 54.986 7.49055 55.0521 7.55672C55.1181 7.6229 55.1584 7.73687 55.1731 7.89863V10.1376C55.3858 9.65966 55.6903 9.20378 56.0864 8.76996C56.4899 8.32878 56.9557 7.96849 57.4838 7.68908C58.012 7.40966 58.5585 7.26996 59.1234 7.26996C59.7542 7.26996 60.22 7.46481 60.5208 7.85452C60.8216 8.23687 60.972 8.71114 60.972 9.27731C60.972 9.63761 60.8876 9.97952 60.7189 10.303C60.5502 10.6266 60.3374 10.8876 60.0807 11.0861C59.8313 11.2773 59.5892 11.3729 59.3544 11.3729L57.7479 9.26628C57.2638 9.26628 56.8016 9.50893 56.3615 9.99422C55.9213 10.4722 55.5692 11.042 55.3052 11.7038V16.6339C55.3052 16.8766 55.3858 17.0604 55.5472 17.1854C55.7159 17.3104 55.9177 17.3986 56.1524 17.4501C56.3872 17.4942 56.6916 17.5347 57.0657 17.5714L57.2968 17.5935C57.4582 17.6082 57.5645 17.6413 57.6159 17.6928C57.6672 17.7369 57.6929 17.8398 57.6929 18.0016C57.6929 18.1045 57.6599 18.2075 57.5939 18.3104C57.5279 18.406 57.4362 18.4538 57.3188 18.4538H50.5626Z" fill="url(#paint2_linear_74_629)"/>
<path d="M68.2343 18.7736C66.0996 18.7736 64.5151 18.27 63.4807 17.2626C62.4464 16.2553 61.9293 14.8067 61.9293 12.917C61.9293 11.7332 62.2043 10.7148 62.7545 9.86187C63.312 9.00893 64.0566 8.36555 64.9882 7.93172C65.9199 7.49055 66.9432 7.26996 68.0582 7.26996C69.6867 7.26996 70.9008 7.58981 71.7004 8.22952C72.5 8.86187 73.0024 9.79202 73.2078 11.02C73.2739 11.417 73.3069 12.0236 73.3069 12.8398L65.6704 12.8508C65.6704 13.917 65.8355 14.781 66.1656 15.4428C66.503 16.1045 66.9285 16.5788 67.442 16.8655C67.9555 17.1523 68.4983 17.2957 69.0705 17.2957C69.7454 17.2957 70.3103 17.2075 70.7651 17.031C71.2272 16.8545 71.6307 16.5641 71.9754 16.1597C71.9828 16.1523 72.0011 16.1303 72.0305 16.0935C72.0671 16.0494 72.1038 16.02 72.1405 16.0053C72.1772 15.9905 72.2175 15.9869 72.2615 15.9942L72.7457 16.2258C72.819 16.2553 72.8557 16.2994 72.8557 16.3582C72.8557 16.4023 72.8337 16.4648 72.7897 16.5457C72.3936 17.2369 71.8141 17.781 71.0512 18.178C70.2882 18.5751 69.3493 18.7736 68.2343 18.7736ZM69.6427 11.8251C69.6427 10.553 69.5143 9.63393 69.2576 9.06775C69.0008 8.49422 68.59 8.20746 68.0252 8.20746C67.431 8.20746 66.9175 8.50525 66.4847 9.10084C66.0592 9.68908 65.7988 10.5972 65.7035 11.8251H69.6427Z" fill="url(#paint3_linear_74_629)"/>
<path d="M79.7659 18.7847C79.2304 18.7847 78.7316 18.7148 78.2695 18.5751C77.8073 18.4354 77.4148 18.2847 77.0921 18.1229C76.9747 18.0641 76.861 18.0347 76.751 18.0347C76.6189 18.0347 76.5199 18.053 76.4539 18.0898C76.3879 18.1266 76.3218 18.1854 76.2558 18.2663C76.1825 18.3545 76.1091 18.417 76.0357 18.4538C75.9624 18.4979 75.8523 18.52 75.7056 18.52C75.5589 18.52 75.4269 18.4905 75.3095 18.4317C75.1995 18.3655 75.1445 18.2847 75.1445 18.1891L75.1004 16.9317C75.0638 15.6082 75.0454 14.917 75.0454 14.8582C75.0454 14.6964 75.1004 14.5788 75.2105 14.5053C75.3278 14.4244 75.4636 14.3839 75.6176 14.3839C75.7423 14.3839 75.8524 14.406 75.9477 14.4501C76.0431 14.4942 76.1018 14.553 76.1238 14.6266C76.2485 15.0678 76.4355 15.5494 76.6849 16.0714C76.8097 16.3288 76.9967 16.5935 77.2461 16.8655C77.4955 17.1303 77.822 17.3619 78.2254 17.5604C78.6362 17.7516 79.1057 17.8472 79.6339 17.8472C80.2501 17.8472 80.7306 17.7405 81.0753 17.5273C81.4275 17.3141 81.6035 17.0016 81.6035 16.5898C81.6035 16.2516 81.5045 15.9575 81.3064 15.7075C81.1157 15.4501 80.7856 15.2001 80.3161 14.9575C79.854 14.7148 79.2011 14.4428 78.3575 14.1413C77.4992 13.8398 76.7693 13.4097 76.1678 12.8508C75.5736 12.292 75.2765 11.5751 75.2765 10.7001C75.2765 10.0678 75.4782 9.49055 75.8817 8.96849C76.2925 8.43908 76.8537 8.02363 77.5652 7.72216C78.2841 7.42069 79.08 7.26996 79.953 7.26996C80.3638 7.26996 80.7342 7.31408 81.0643 7.40231C81.3944 7.48319 81.7356 7.58981 82.0877 7.72216C82.139 7.73687 82.2197 7.76628 82.3297 7.8104C82.4471 7.84716 82.5315 7.86555 82.5828 7.86555C82.6929 7.86555 82.7662 7.84716 82.8029 7.8104C82.8469 7.76628 82.8799 7.71481 82.9019 7.65599C82.9239 7.58981 82.9459 7.53834 82.9679 7.50158C83.012 7.42805 83.0816 7.3729 83.177 7.33613C83.2797 7.29202 83.3897 7.26996 83.5071 7.26996C83.6758 7.26996 83.8225 7.30672 83.9473 7.38025C84.072 7.44643 84.1343 7.53834 84.1343 7.65599C84.1343 7.74422 84.1306 7.82878 84.1233 7.90966C84.1086 8.29202 84.1013 8.70746 84.1013 9.15599C84.1013 9.39128 84.1123 9.61555 84.1343 9.82878C84.149 10.0935 84.1563 10.2736 84.1563 10.3692C84.1563 10.5751 84.1013 10.7295 83.9913 10.8325C83.8812 10.928 83.7419 10.9758 83.5731 10.9758C83.4558 10.9758 83.3494 10.9575 83.254 10.9207C83.166 10.8766 83.111 10.8214 83.089 10.7553C82.9423 10.3141 82.7662 9.91702 82.5608 9.56408C82.3627 9.20378 82.0583 8.89128 81.6475 8.62658C81.2441 8.35452 80.7232 8.21849 80.085 8.21849C79.6522 8.21849 79.2708 8.31408 78.9407 8.50525C78.6179 8.69643 78.4565 9.00525 78.4565 9.43172C78.4565 9.76261 78.5445 10.0494 78.7206 10.292C78.8966 10.5347 79.1607 10.7516 79.5128 10.9428C79.8723 11.1339 80.3491 11.3288 80.9433 11.5273C82.183 11.9391 83.166 12.4391 83.8922 13.0273C84.6258 13.6082 84.9926 14.3913 84.9926 15.3766C84.9926 16.4869 84.5451 17.3325 83.6502 17.9133C82.7552 18.4942 81.4605 18.7847 79.7659 18.7847Z" fill="url(#paint4_linear_74_629)"/>
<path d="M92.684 18.7736C90.5494 18.7736 88.9648 18.27 87.9305 17.2626C86.8962 16.2553 86.379 14.8067 86.379 12.917C86.379 11.7332 86.6541 10.7148 87.2043 9.86187C87.7618 9.00893 88.5064 8.36555 89.438 7.93172C90.3696 7.49055 91.393 7.26996 92.508 7.26996C94.1365 7.26996 95.3505 7.58981 96.1501 8.22952C96.9497 8.86187 97.4522 9.79202 97.6576 11.02C97.7236 11.417 97.7566 12.0236 97.7566 12.8398L90.1202 12.8508C90.1202 13.917 90.2853 14.781 90.6154 15.4428C90.9528 16.1045 91.3783 16.5788 91.8918 16.8655C92.4053 17.1523 92.9481 17.2957 93.5203 17.2957C94.1952 17.2957 94.76 17.2075 95.2148 17.031C95.677 16.8545 96.0804 16.5641 96.4252 16.1597C96.4326 16.1523 96.4509 16.1303 96.4802 16.0935C96.5169 16.0494 96.5536 16.02 96.5903 16.0053C96.627 15.9905 96.6673 15.9869 96.7113 15.9942L97.1955 16.2258C97.2688 16.2553 97.3055 16.2994 97.3055 16.3582C97.3055 16.4023 97.2835 16.4648 97.2395 16.5457C96.8433 17.2369 96.2638 17.781 95.5009 18.178C94.738 18.5751 93.7991 18.7736 92.684 18.7736ZM94.0925 11.8251C94.0925 10.553 93.9641 9.63393 93.7074 9.06775C93.4506 8.49422 93.0398 8.20746 92.475 8.20746C91.8808 8.20746 91.3673 8.50525 90.9345 9.10084C90.509 9.68908 90.2486 10.5972 90.1532 11.8251H94.0925Z" fill="url(#paint5_linear_74_629)"/>
<path d="M99.6712 18.4538C99.5539 18.4538 99.4622 18.406 99.3962 18.3104C99.3301 18.2075 99.2971 18.1045 99.2971 18.0016C99.2971 17.8766 99.3228 17.781 99.3742 17.7148C99.4255 17.6486 99.5209 17.6082 99.6603 17.5935C100.438 17.4979 100.827 17.2626 100.827 16.8876V9.8729C100.827 9.53466 100.764 9.27731 100.64 9.10084C100.515 8.92437 100.368 8.80672 100.199 8.7479C100.038 8.68908 99.8253 8.64128 99.5612 8.60452C99.3485 8.57511 99.2238 8.55305 99.1871 8.53834C99.0991 8.50158 99.0331 8.45011 98.989 8.38393C98.945 8.31775 98.923 8.22216 98.923 8.09716C98.923 7.99422 98.945 7.89128 98.989 7.78834C99.0404 7.67805 99.1064 7.61922 99.1871 7.61187C100.904 7.50893 102.455 7.45746 103.842 7.45746C103.915 7.45746 103.985 7.49055 104.051 7.55672C104.117 7.6229 104.157 7.73687 104.172 7.89863V9.13393C104.34 8.9354 104.656 8.68908 105.118 8.39496C105.58 8.09349 106.116 7.83246 106.724 7.61187C107.341 7.38393 107.946 7.26996 108.54 7.26996C109.626 7.26996 110.488 7.50525 111.126 7.97584C111.764 8.43908 112.083 9.29937 112.083 10.5567V16.5236C112.083 16.9354 112.186 17.2038 112.391 17.3288C112.597 17.4538 112.809 17.5273 113.029 17.5494C113.257 17.5714 113.407 17.5861 113.481 17.5935C113.613 17.6082 113.704 17.645 113.756 17.7038C113.814 17.7553 113.844 17.8545 113.844 18.0016C113.844 18.1045 113.811 18.2075 113.745 18.3104C113.679 18.406 113.587 18.4538 113.47 18.4538H107.561C107.443 18.4538 107.352 18.406 107.286 18.3104C107.22 18.2075 107.187 18.1045 107.187 18.0016C107.187 17.8692 107.209 17.7736 107.253 17.7148C107.297 17.6486 107.388 17.6082 107.528 17.5935C107.799 17.5641 108.041 17.4869 108.254 17.3619C108.474 17.2369 108.584 17.0788 108.584 16.8876V10.6119C108.584 10.3251 108.562 10.0678 108.518 9.83981C108.474 9.61187 108.353 9.40599 108.155 9.22216C107.964 9.03834 107.671 8.94643 107.275 8.94643C106.901 8.94643 106.515 9.01996 106.119 9.16702C105.731 9.30672 105.371 9.48319 105.041 9.69643C104.718 9.90966 104.465 10.1192 104.282 10.3251V16.5236C104.282 16.8178 104.333 17.042 104.436 17.1964C104.546 17.3435 104.678 17.4428 104.832 17.4942C104.986 17.5383 105.184 17.5714 105.426 17.5935C105.587 17.6082 105.694 17.6413 105.745 17.6928C105.797 17.7369 105.822 17.8398 105.822 18.0016C105.822 18.0972 105.786 18.1964 105.712 18.2994C105.646 18.4023 105.558 18.4538 105.448 18.4538H99.6712Z" fill="url(#paint6_linear_74_629)"/>
<path d="M119.489 18.7847C118.432 18.7847 117.589 18.5788 116.958 18.167C116.334 17.7553 116.022 17.031 116.022 15.9942V8.69275H114.845C114.772 8.6854 114.709 8.63025 114.658 8.52731C114.607 8.41702 114.581 8.3104 114.581 8.20746C114.581 8.07511 114.603 7.96481 114.647 7.87658C114.698 7.78834 114.768 7.72952 114.856 7.70011L116.232 7.29202C116.4 7.25525 116.591 7.10819 116.804 6.85084C117.024 6.58614 117.229 6.2479 117.42 5.83613C117.611 5.41702 117.761 4.96113 117.871 4.46849C117.937 4.18172 118.219 4.03834 118.718 4.03834C119.276 4.03834 119.555 4.16334 119.555 4.41334V7.49055H121.986C122.067 7.4979 122.129 7.53834 122.173 7.61187C122.225 7.6854 122.25 7.76996 122.25 7.86555C122.25 8.09349 122.214 8.28466 122.14 8.43908C122.074 8.59349 122.001 8.67069 121.92 8.67069H119.555V15.0126C119.555 15.6376 119.584 16.1155 119.643 16.4464C119.709 16.77 119.811 16.9942 119.951 17.1192C120.097 17.2369 120.306 17.2957 120.578 17.2957C120.82 17.2957 121.106 17.2479 121.436 17.1523C121.766 17.0567 122.071 16.9391 122.349 16.7994C122.393 16.7773 122.456 16.8214 122.537 16.9317C122.617 17.042 122.68 17.1633 122.724 17.2957C122.768 17.4207 122.768 17.4979 122.724 17.5273C122.54 17.7258 122.254 17.9244 121.865 18.1229C121.484 18.3141 121.073 18.4722 120.633 18.5972C120.2 18.7222 119.819 18.7847 119.489 18.7847Z" fill="url(#paint7_linear_74_629)"/>
<path d="M130.096 18.7736C127.961 18.7736 126.377 18.27 125.342 17.2626C124.308 16.2553 123.791 14.8067 123.791 12.917C123.791 11.7332 124.066 10.7148 124.616 9.86187C125.174 9.00893 125.918 8.36555 126.85 7.93172C127.782 7.49055 128.805 7.26996 129.92 7.26996C131.548 7.26996 132.762 7.58981 133.562 8.22952C134.362 8.86187 134.864 9.79202 135.07 11.02C135.136 11.417 135.169 12.0236 135.169 12.8398L127.532 12.8508C127.532 13.917 127.697 14.781 128.027 15.4428C128.365 16.1045 128.79 16.5788 129.304 16.8655C129.817 17.1523 130.36 17.2957 130.932 17.2957C131.607 17.2957 132.172 17.2075 132.627 17.031C133.089 16.8545 133.492 16.5641 133.837 16.1597C133.844 16.1523 133.863 16.1303 133.892 16.0935C133.929 16.0494 133.965 16.02 134.002 16.0053C134.039 15.9905 134.079 15.9869 134.123 15.9942L134.607 16.2258C134.681 16.2553 134.717 16.2994 134.717 16.3582C134.717 16.4023 134.695 16.4648 134.651 16.5457C134.255 17.2369 133.676 17.781 132.913 18.178C132.15 18.5751 131.211 18.7736 130.096 18.7736ZM131.504 11.8251C131.504 10.553 131.376 9.63393 131.119 9.06775C130.862 8.49422 130.452 8.20746 129.887 8.20746C129.293 8.20746 128.779 8.50525 128.346 9.10084C127.921 9.68908 127.66 10.5972 127.565 11.8251H131.504Z" fill="url(#paint8_linear_74_629)"/>
<path d="M137.094 18.4538C136.977 18.4538 136.885 18.406 136.819 18.3104C136.753 18.2075 136.72 18.1045 136.72 18.0016C136.72 17.8766 136.746 17.781 136.797 17.7148C136.856 17.6413 136.951 17.6008 137.083 17.5935C137.428 17.5641 137.725 17.5053 137.974 17.417C138.224 17.3214 138.349 17.1817 138.349 16.9979L138.36 9.8729C138.36 9.53466 138.297 9.27731 138.172 9.10084C138.055 8.92437 137.912 8.80672 137.743 8.7479C137.582 8.68908 137.369 8.64128 137.105 8.60452C136.878 8.56775 136.749 8.54569 136.72 8.53834C136.632 8.50158 136.566 8.45011 136.522 8.38393C136.478 8.31775 136.456 8.22216 136.456 8.09716C136.456 7.99422 136.478 7.89128 136.522 7.78834C136.573 7.67805 136.639 7.61922 136.72 7.61187C138.349 7.50893 139.944 7.45746 141.507 7.45746C141.587 7.45746 141.661 7.49422 141.727 7.56775C141.8 7.63393 141.837 7.74422 141.837 7.89863V16.6339C141.837 16.8913 141.903 17.0898 142.035 17.2295C142.174 17.3619 142.332 17.4501 142.508 17.4942C142.684 17.531 142.908 17.5641 143.179 17.5935C143.34 17.6082 143.447 17.6413 143.498 17.6928C143.55 17.7369 143.575 17.8398 143.575 18.0016C143.575 18.0972 143.539 18.1964 143.465 18.2994C143.399 18.4023 143.311 18.4538 143.201 18.4538H137.094ZM140.021 5.54937C139.64 5.54937 139.291 5.46481 138.976 5.29569C138.66 5.11922 138.411 4.88025 138.228 4.57878C138.044 4.26996 137.952 3.92069 137.952 3.53099C137.952 3.14128 138.044 2.79202 138.228 2.48319C138.411 2.17437 138.66 1.9354 138.976 1.76628C139.291 1.58981 139.64 1.50158 140.021 1.50158C140.395 1.50158 140.74 1.58981 141.055 1.76628C141.371 1.9354 141.62 2.17437 141.804 2.48319C141.994 2.79202 142.09 3.14128 142.09 3.53099C142.09 3.92069 141.994 4.26996 141.804 4.57878C141.62 4.88025 141.371 5.11922 141.055 5.29569C140.74 5.46481 140.395 5.54937 140.021 5.54937Z" fill="url(#paint9_linear_74_629)"/>
<path d="M144.731 13.0273C144.731 11.7773 144.995 10.7222 145.523 9.86187C146.051 9.00158 146.792 8.35452 147.746 7.92069C148.707 7.48687 149.833 7.26996 151.124 7.26996C152.415 7.26996 153.53 7.48687 154.469 7.92069C155.408 8.35452 156.127 9.00158 156.625 9.86187C157.132 10.7222 157.385 11.7773 157.385 13.0273C157.385 14.2773 157.124 15.3325 156.603 16.1928C156.09 17.053 155.36 17.7001 154.414 18.1339C153.467 18.5604 152.345 18.7736 151.047 18.7736C149.756 18.7736 148.637 18.5604 147.691 18.1339C146.744 17.7001 146.014 17.053 145.501 16.1928C144.987 15.3325 144.731 14.2773 144.731 13.0273ZM148.593 13.0273C148.593 14.0714 148.666 14.9354 148.813 15.6192C148.96 16.2957 149.213 16.8178 149.572 17.1854C149.939 17.5457 150.441 17.7258 151.08 17.7258C151.71 17.7258 152.202 17.5457 152.554 17.1854C152.914 16.8178 153.163 16.2957 153.302 15.6192C153.442 14.9428 153.511 14.0788 153.511 13.0273C153.511 11.9832 153.438 11.1229 153.291 10.4464C153.145 9.76261 152.888 9.24055 152.521 8.88025C152.162 8.51261 151.666 8.32878 151.036 8.32878C150.405 8.32878 149.91 8.51261 149.55 8.88025C149.191 9.24055 148.941 9.76261 148.802 10.4464C148.662 11.1229 148.593 11.9832 148.593 13.0273Z" fill="url(#paint10_linear_74_629)"/>
<defs>
<linearGradient id="paint0_linear_74_629" x1="78.6923" y1="0" x2="78.6923" y2="24" gradientUnits="userSpaceOnUse">
<stop stop-color="#FF3D3D"/>
<stop offset="1" stop-color="#F97070"/>
</linearGradient>
<linearGradient id="paint1_linear_74_629" x1="78.6923" y1="0" x2="78.6923" y2="24" gradientUnits="userSpaceOnUse">
<stop stop-color="#FF3D3D"/>
<stop offset="1" stop-color="#F97070"/>
</linearGradient>
<linearGradient id="paint2_linear_74_629" x1="78.6923" y1="0" x2="78.6923" y2="24" gradientUnits="userSpaceOnUse">
<stop stop-color="#FF3D3D"/>
<stop offset="1" stop-color="#F97070"/>
</linearGradient>
<linearGradient id="paint3_linear_74_629" x1="78.6923" y1="0" x2="78.6923" y2="24" gradientUnits="userSpaceOnUse">
<stop stop-color="#FF3D3D"/>
<stop offset="1" stop-color="#F97070"/>
</linearGradient>
<linearGradient id="paint4_linear_74_629" x1="78.6923" y1="0" x2="78.6923" y2="24" gradientUnits="userSpaceOnUse">
<stop stop-color="#FF3D3D"/>
<stop offset="1" stop-color="#F97070"/>
</linearGradient>
<linearGradient id="paint5_linear_74_629" x1="78.6923" y1="0" x2="78.6923" y2="24" gradientUnits="userSpaceOnUse">
<stop stop-color="#FF3D3D"/>
<stop offset="1" stop-color="#F97070"/>
</linearGradient>
<linearGradient id="paint6_linear_74_629" x1="78.6923" y1="0" x2="78.6923" y2="24" gradientUnits="userSpaceOnUse">
<stop stop-color="#FF3D3D"/>
<stop offset="1" stop-color="#F97070"/>
</linearGradient>
<linearGradient id="paint7_linear_74_629" x1="78.6923" y1="0" x2="78.6923" y2="24" gradientUnits="userSpaceOnUse">
<stop stop-color="#FF3D3D"/>
<stop offset="1" stop-color="#F97070"/>
</linearGradient>
<linearGradient id="paint8_linear_74_629" x1="78.6923" y1="0" x2="78.6923" y2="24" gradientUnits="userSpaceOnUse">
<stop stop-color="#FF3D3D"/>
<stop offset="1" stop-color="#F97070"/>
</linearGradient>
<linearGradient id="paint9_linear_74_629" x1="78.6923" y1="0" x2="78.6923" y2="24" gradientUnits="userSpaceOnUse">
<stop stop-color="#FF3D3D"/>
<stop offset="1" stop-color="#F97070"/>
</linearGradient>
<linearGradient id="paint10_linear_74_629" x1="78.6923" y1="0" x2="78.6923" y2="24" gradientUnits="userSpaceOnUse">
<stop stop-color="#FF3D3D"/>
<stop offset="1" stop-color="#F97070"/>
</linearGradient>
</defs>
</svg>