<svg viewBox="0 0 25 25" fill="none" xmlns="http://www.w3.org/2000/svg">
<mask id="mask0_887_816" style="mask-type:alpha" maskUnits="userSpaceOnUse" x="0" y="0" width="25" height="25">
<rect x="0.929443" y="0.86084" width="24" height="24" fill="#D9D9D9"/>
</mask>
<g mask="url(#mask0_887_816)">
<path d="M12.9294 21.8608C10.4128 21.8608 8.28361 20.99 6.54194 19.2483C4.80028 17.5066 3.92944 15.3775 3.92944 12.8608C3.92944 10.5608 4.67944 8.56496 6.17944 6.87329C7.67944 5.18163 9.59611 4.19413 11.9294 3.91079C12.1461 3.87746 12.3378 3.90663 12.5044 3.99829C12.6711 4.08996 12.8044 4.21079 12.9044 4.36079C13.0044 4.51079 13.0586 4.68579 13.0669 4.88579C13.0753 5.08579 13.0128 5.27746 12.8794 5.46079C12.5961 5.89413 12.3836 6.35246 12.2419 6.83579C12.1003 7.31913 12.0294 7.82746 12.0294 8.36079C12.0294 9.86079 12.5544 11.1358 13.6044 12.1858C14.6544 13.2358 15.9294 13.7608 17.4294 13.7608C17.9461 13.7608 18.4586 13.6858 18.9669 13.5358C19.4753 13.3858 19.9294 13.1775 20.3294 12.9108C20.5128 12.7941 20.7003 12.74 20.8919 12.7483C21.0836 12.7566 21.2544 12.8025 21.4044 12.8858C21.5711 12.9691 21.7003 13.0941 21.7919 13.2608C21.8836 13.4275 21.9128 13.6275 21.8794 13.8608C21.6461 16.1608 20.6669 18.0691 18.9419 19.5858C17.2169 21.1025 15.2128 21.8608 12.9294 21.8608ZM12.9294 19.8608C14.3961 19.8608 15.7128 19.4566 16.8794 18.6483C18.0461 17.84 18.8961 16.7858 19.4294 15.4858C19.0961 15.5691 18.7628 15.6358 18.4294 15.6858C18.0961 15.7358 17.7628 15.7608 17.4294 15.7608C15.3794 15.7608 13.6336 15.04 12.1919 13.5983C10.7503 12.1566 10.0294 10.4108 10.0294 8.36079C10.0294 8.02746 10.0544 7.69413 10.1044 7.36079C10.1544 7.02746 10.2211 6.69413 10.3044 6.36079C9.00444 6.89413 7.95028 7.74413 7.14194 8.91079C6.33361 10.0775 5.92944 11.3941 5.92944 12.8608C5.92944 14.7941 6.61278 16.4441 7.97944 17.8108C9.34611 19.1775 10.9961 19.8608 12.9294 19.8608Z" fill="currentColor"/>
</g>
</svg>
