<svg width="56" height="55" viewBox="0 0 56 55" fill="none" xmlns="http://www.w3.org/2000/svg">
<mask id="mask0_437_217" style="mask-type:alpha" maskUnits="userSpaceOnUse" x="0" y="0" width="56" height="55">
<circle cx="28" cy="27.5" r="27.5" fill="#D9D9D9"/>
</mask>
<g mask="url(#mask0_437_217)">
<path d="M47.4452 8.05456C42.2879 2.89731 35.2932 4.7767e-07 27.9998 -1.9668e-07C20.7063 -1.03962e-06 13.7116 2.89731 8.55432 8.05456C3.39707 13.2118 0.499761 20.2065 0.499759 27.5C0.499759 34.7934 3.39707 41.7882 8.55432 46.9454L27.9998 27.5L47.4452 8.05456Z" fill="white" fill-opacity="0.75"/>
<g filter="url(#filter0_d_437_217)">
<path d="M8.55432 46.9454C13.7116 52.1027 20.7063 55 27.9998 55C35.2932 55 42.2879 52.1027 47.4452 46.9454C52.6024 41.7882 55.4998 34.7935 55.4998 27.5C55.4998 20.2066 52.6024 13.2118 47.4452 8.05457L27.9998 27.5L8.55432 46.9454Z" fill="#404040"/>
</g>
</g>
<defs>
<filter id="filter0_d_437_217" x="0.554199" y="-0.945312" width="60.9453" height="60.9453" filterUnits="userSpaceOnUse" color-interpolation-filters="sRGB">
<feFlood flood-opacity="0" result="BackgroundImageFix"/>
<feColorMatrix in="SourceAlpha" type="matrix" values="0 0 0 0 0 0 0 0 0 0 0 0 0 0 0 0 0 0 127 0" result="hardAlpha"/>
<feMorphology radius="1" operator="dilate" in="SourceAlpha" result="effect1_dropShadow_437_217"/>
<feOffset dx="-1" dy="-2"/>
<feGaussianBlur stdDeviation="3"/>
<feComposite in2="hardAlpha" operator="out"/>
<feColorMatrix type="matrix" values="0 0 0 0 0.340599 0 0 0 0 0.340243 0 0 0 0 0.341667 0 0 0 0.5 0"/>
<feBlend mode="normal" in2="BackgroundImageFix" result="effect1_dropShadow_437_217"/>
<feBlend mode="normal" in="SourceGraphic" in2="effect1_dropShadow_437_217" result="shape"/>
</filter>
</defs>
</svg>